<svg width="110" height="47" viewBox="0 0 110 47" fill="none" xmlns="http://www.w3.org/2000/svg">
<g id="DHL">
<g id="dhl">
<path id="rectangle" d="M109.5 46.0425H0.5V0.0424805H109.5V46.0425Z" fill="#FECC00"/>
<path id="Shape" fill-rule="evenodd" clip-rule="evenodd" d="M36.9111 22.6233L36.911 22.6234L36.911 22.6235L36.91 22.6247C36.6085 22.9974 36.3035 23.3744 36.0745 23.6501C35.849 23.9221 35.4416 24.416 36.7921 24.416H43.9022C43.9022 24.416 45.0481 23.0261 46.0088 21.8636C47.3155 20.2822 46.1218 16.9917 41.4501 16.9917H23.0519L19.8618 20.8561H37.2483C38.126 20.8561 38.1141 21.1539 37.6852 21.6726C37.4742 21.9273 37.1947 22.2728 36.9119 22.6223L36.9113 22.6231L36.9111 22.6233ZM32.4616 25.3712C31.1112 25.3712 31.5185 24.8763 31.7441 24.6043C31.9863 24.3126 32.317 23.9106 32.6385 23.5199L32.6393 23.5188C32.9071 23.1933 33.1684 22.8757 33.3666 22.6364C33.7961 22.1177 33.8075 21.8198 32.9286 21.8198H24.9771L18.5703 29.583H34.1944C39.3547 29.583 42.2277 26.4536 43.1134 25.3717C43.1134 25.3712 33.8899 25.3712 32.4616 25.3712ZM51.7916 29.583H42.626C42.626 29.583 46.0989 25.3711 46.1018 25.3716L55.2663 25.3706L51.7916 29.583ZM66.2739 16.9917L62.7583 21.2491H58.6678L62.1817 16.9917H53.0189L46.8888 24.416H69.3071L75.4355 16.9917H66.2739ZM65.0439 29.5812H55.8817C55.8817 29.5812 59.3547 25.3693 59.3581 25.3698H68.5203L65.0439 29.5812ZM5.49219 27.0308V27.9253H18.2569L18.9943 27.0308H5.49219ZM5.49219 25.3706H20.3663L19.6272 26.2641H5.49219V25.3706ZM5.49219 29.5812H16.8894L17.6234 28.6917H5.49219V29.5812ZM105.34 27.9248H91.8885L92.6271 27.0303H105.34V27.9248ZM90.5222 29.5812H105.34V28.6917H91.2556L90.5222 29.5812ZM93.2598 26.2652L93.9966 25.3706H105.339V26.2652H93.2598ZM81.9957 24.416L88.1252 16.9917H78.4211C78.4176 16.9917 72.287 24.416 72.287 24.416H81.9957ZM70.5063 26.5797C70.8319 26.1866 71.5017 25.3706 71.5017 25.3706V25.3711H92.3202L88.8438 29.5825H74.1287C70.3734 29.5825 69.3559 27.9656 70.5063 26.5797Z" fill="#D50029"/>
</g>
</g>
</svg>
