<svg width="74" height="78" viewBox="0 0 74 78" fill="none" xmlns="http://www.w3.org/2000/svg">
<g id="safe-payment">
<g id="Group 4">
<path id="Path" d="M28.0655 39.3587H5.66535C3.52313 39.3587 1.78034 37.7158 1.78034 35.6964V22.2021H1.07032V12.0513H1.78034V8.70813C1.78034 6.68858 3.52313 5.04558 5.66535 5.04558H35.5139C35.8153 4.57244 36.1573 4.12528 36.5344 3.70654H5.66535C2.74 3.70654 0.35997 5.95029 0.35997 8.70813V35.6964C0.35997 38.4542 2.74 40.6978 5.66535 40.6978H28.0994C28.0795 40.558 28.0655 40.4163 28.0655 40.2714V39.3587Z" fill="black"/>
<path id="Shape" fill-rule="evenodd" clip-rule="evenodd" d="M28.0561 20.3631C28.0561 18.6157 29.576 17.1939 31.4441 17.1939H33.99V12.0386H1.77876V12.0387H1.06895V22.1078H1.77876V22.1077H28.0561V20.3631ZM39.6258 17.194H49.6562V12.0387H39.6258V17.194ZM14.8552 33.5509C14.8552 34.1877 14.3013 34.7059 13.6205 34.7059H9.10835C8.42755 34.7059 7.87364 34.1877 7.87364 33.5509V29.3303C7.87364 28.6934 8.42755 28.1753 9.10835 28.1753H13.6205C14.3013 28.1753 14.8552 28.6934 14.8552 29.3303V33.5509ZM9.10837 26.8472H13.6205C15.0842 26.8472 16.2752 27.9611 16.2752 29.3304V33.551C16.2752 34.9202 15.0842 36.0342 13.6205 36.0342H9.10837C7.64468 36.0342 6.45372 34.9202 6.45372 33.551V29.3304C6.45372 27.9611 7.64468 26.8472 9.10837 26.8472Z" fill="black"/>
<path id="Shape_2" fill-rule="evenodd" clip-rule="evenodd" d="M55.3962 17.0386H57.955C59.8325 17.0386 61.36 18.4777 61.36 20.2468V40.1574C61.36 41.9265 59.8325 43.3657 57.955 43.3657H31.4279C29.7049 43.3657 28.2802 42.1524 28.0569 40.5856H28.7776C28.9939 41.7818 30.0966 42.6934 31.4279 42.6934H57.955C59.4415 42.6934 60.6464 41.5579 60.6464 40.1574V20.2468C60.6464 18.8462 59.4415 17.7109 57.955 17.7109H55.3962V17.0386ZM28.7365 39.2394H28.0228V22.0112H28.7365V39.2394Z" fill="black"/>
<path id="Shape_3" fill-rule="evenodd" clip-rule="evenodd" d="M33.9875 17.711H31.4284C29.9418 17.711 28.7366 18.8466 28.7366 20.2475V22.0141H28.0228V20.2475C28.0228 18.4782 29.5506 17.0386 31.4284 17.0386H33.9875V17.711ZM39.6524 17.7111H49.7348V17.0387H39.6524V17.7111ZM28.7366 40.1628V39.2461H28.0228V40.1628C28.0228 40.3083 28.0368 40.4506 28.0568 40.591H28.7778C28.7525 40.4515 28.7366 40.309 28.7366 40.1628ZM28.7366 39.2462H29.4501V22.0142H28.7366V39.2462ZM57.959 18.3835H54.6862C55.0804 18.3835 55.3998 18.0825 55.3998 17.711H57.959C59.4456 17.711 60.6507 18.8467 60.6507 20.2475V40.1628C60.6507 41.5636 59.4456 42.6992 57.959 42.6992H31.4284C30.0969 42.6992 28.9941 41.7874 28.7778 40.5911H29.5049C29.7112 41.4127 30.4942 42.0269 31.4284 42.0269H57.959C59.0497 42.0269 59.937 41.1906 59.937 40.1628V20.2475C59.937 19.2197 59.0497 18.3835 57.959 18.3835Z" fill="black"/>
<path id="Shape_4" fill-rule="evenodd" clip-rule="evenodd" d="M53.1691 5.18757C51.4194 2.50187 48.259 0.708358 44.6505 0.708358C41.825 0.708358 39.2761 1.80969 37.4623 3.5763H36.5097C38.4703 1.41664 41.3913 0.0424805 44.6505 0.0424805C50.5396 0.0424805 55.3309 4.52382 55.3309 10.0319V17.0443H54.619V10.0319C54.619 9.73244 54.6022 9.43651 54.5728 9.14423V8.55054C54.5728 7.25481 54.04 6.07368 53.1691 5.18757ZM34.6822 18.3761H31.4174C30.3292 18.3761 29.4437 19.2042 29.4437 20.2219V21.9712H28.7321V20.2219C28.7321 18.8348 29.9343 17.7102 31.4174 17.7102H33.9703C33.9703 18.078 34.289 18.3761 34.6822 18.3761ZM49.6795 17.7102H39.6215C39.6215 18.0779 39.303 18.3761 38.9097 18.3761H50.3915C49.9982 18.3761 49.6795 18.0779 49.6795 17.7102ZM29.4438 39.9422V39.0345H28.7321V39.9422C28.7321 40.0871 28.748 40.2281 28.7732 40.3663H29.4986C29.464 40.2299 29.4438 40.0883 29.4438 39.9422ZM47.301 23.5843C48.1426 24.2892 48.6253 25.2991 48.6253 26.3548C48.6253 27.8296 47.6915 29.1662 46.2464 29.7597C45.9457 29.8831 45.7743 30.183 45.8317 30.4855L46.7155 35.1547C46.6887 35.5102 46.3708 35.7918 45.9841 35.7918H43.3167C42.9301 35.7918 42.6121 35.5102 42.5853 35.1547L43.4695 30.4855C43.5267 30.183 43.3554 29.8831 43.0548 29.7597C41.4741 29.1104 40.5261 27.5899 40.6957 25.9757C40.8777 24.2458 42.3492 22.8515 44.1948 22.6608C45.3451 22.5419 46.4482 22.8699 47.301 23.5843ZM41.9753 30.7407C40.1364 29.7605 39.0673 27.856 39.2787 25.8453C39.4527 24.1913 40.4944 22.764 41.9697 21.9712H47.3286C47.6566 22.146 47.9661 22.3536 48.251 22.5922C49.3937 23.5495 50.0491 24.9209 50.0491 26.3548C50.0491 28.1796 48.9969 29.8485 47.3259 30.7405L48.1304 34.9899C48.1376 35.0281 48.1413 35.067 48.1413 35.1059C48.1413 36.2185 47.1736 37.1236 45.9841 37.1236H43.3167C42.1274 37.1236 41.1597 36.2185 41.1597 35.1059C41.1597 35.067 41.1632 35.0281 41.1706 34.9898L41.9753 30.7407ZM44.0379 21.3351C43.2925 21.4122 42.5924 21.6346 41.9694 21.9692H47.3283C46.3423 21.444 45.1899 21.216 44.0379 21.3351Z" fill="black"/>
<path id="Shape_5" fill-rule="evenodd" clip-rule="evenodd" d="M37.5205 3.70654C37.1022 4.1182 36.723 4.56511 36.3895 5.04345H36.3887C36.389 5.04313 36.3892 5.0428 36.3894 5.04248H35.5586C35.8585 4.5703 36.1989 4.12433 36.5743 3.70654H37.5205ZM35.5586 5.04248H35.558C34.6024 6.54738 34.0514 8.30693 34.0514 10.1863V12.0369H34.7587V10.1863C34.7587 8.28613 35.3595 6.51946 36.3887 5.04345H35.558C35.5582 5.04313 35.5584 5.0428 35.5586 5.04248ZM39.6658 10.1872C39.6658 7.58358 41.9071 5.46532 44.6618 5.46532C47.4169 5.46532 49.6582 7.58358 49.6582 10.1872V12.0378H50.3653V10.1872C50.3653 7.77308 48.6858 5.72974 46.3709 5.04343H42.9528C40.638 5.72974 38.9585 7.77308 38.9585 10.1872V12.0378H39.6658V10.1872Z" fill="black"/>
<path id="Shape_6" fill-rule="evenodd" clip-rule="evenodd" d="M44.6908 4.70654C44.0938 4.70654 43.5183 4.79239 42.9771 4.9512H46.4045C45.8635 4.79239 45.2878 4.70654 44.6908 4.70654ZM54.5752 8.57946C54.5752 7.28895 54.0445 6.11244 53.1768 5.22979C53.9383 6.39858 54.4303 7.73739 54.5752 9.17098V8.57946ZM34.7606 17.0389H34.0514V17.7018H34.7606V17.0389ZM34.7606 17.0386H34.0514V11.8901H34.7606V17.0386ZM49.7008 17.0389H50.41V17.7018H49.7008V17.0389ZM49.7008 17.0386V11.8901H50.41V17.0386H49.7008ZM38.9723 11.8901H39.6815V17.0386H38.9723V11.8901ZM38.9723 17.0389H39.6815V17.7018H38.9723V17.0389ZM54.6217 17.7018H55.3309V17.0386H54.6217V17.7018Z" fill="black"/>
<path id="Path_2" d="M54.6217 17.7065V18.3731H54.6649C55.0328 18.3731 55.331 18.0746 55.331 17.7065H54.6217H54.6217Z" fill="black"/>
<path id="Shape_7" fill-rule="evenodd" clip-rule="evenodd" d="M51.2195 3.92518C49.5489 2.35147 47.239 1.37613 44.6907 1.37613C42.3365 1.37613 40.1865 2.20971 38.5552 3.57753H37.53C39.3369 1.81145 41.8761 0.710449 44.6907 0.710449C48.2855 0.710449 51.4338 2.50342 53.1768 5.18832C52.6389 4.63903 51.971 4.20416 51.2195 3.92518ZM53.866 18.3729H54.5752V17.7072H53.866H53.1568V17.7073H50.4098H49.7006C49.7006 18.0748 50.018 18.3729 50.4098 18.3729H53.1568V18.3729H53.866ZM39.681 17.7073H34.0514C34.0514 18.0748 34.3688 18.3729 34.7604 18.3729H38.9718C39.3636 18.3729 39.681 18.0748 39.681 17.7073ZM54.6211 17.0416V10.0312C54.6211 9.73176 54.6045 9.43607 54.5752 9.14388V17.0416H54.6211ZM42.977 4.90879C40.6559 5.59225 38.9719 7.62712 38.9719 10.0312V11.8742H38.2627V10.0312C38.2627 7.87206 39.4781 5.97516 41.2996 4.90879H42.977ZM50.4098 10.0312V11.8742H51.119V10.0312C51.119 7.87206 49.9036 5.97516 48.0821 4.90879H46.4045C48.7257 5.59225 50.4098 7.62712 50.4098 10.0312ZM35.4697 11.8742H34.7605V10.0313C34.7605 8.13863 35.3632 6.37894 36.3959 4.90886H37.264C36.1373 6.34414 35.4697 8.11554 35.4697 10.0313V11.8742Z" fill="black"/>
<path id="Shape_8" fill-rule="evenodd" clip-rule="evenodd" d="M37.5308 3.70654H38.556C38.0784 4.11259 37.6454 4.56502 37.2648 5.05675H36.3966C36.7312 4.57365 37.1113 4.12215 37.5308 3.70654ZM51.2203 4.05811C52.883 5.6467 53.9128 7.83629 53.9128 10.2507V17.3603H54.576V9.35077C54.4311 7.89161 53.9391 6.52892 53.1777 5.33912C52.6397 4.78206 51.9718 4.34103 51.2203 4.05811ZM44.6915 4.80773C45.2886 4.80773 45.8642 4.8951 46.4052 5.05675H48.0828C47.0976 4.4718 45.9358 4.13262 44.6915 4.13262C43.4475 4.13262 42.2856 4.4718 41.3004 5.05675H42.9778C43.519 4.8951 44.0945 4.80773 44.6915 4.80773ZM50.4106 17.3613H51.1198V12.1208H50.4106V15.2266V17.3613ZM38.9727 12.1208V15.2267V17.3614H38.2635V12.1208H38.9727ZM34.7613 17.3614H35.4705V12.1208H34.7613V17.3614ZM54.6221 18.0379H54.5761V17.3628H54.6221V18.0379Z" fill="black"/>
<path id="Shape_9" fill-rule="evenodd" clip-rule="evenodd" d="M38.9823 17.0386H34.7611V18.1386H38.9823V17.0386ZM53.9568 17.0386H53.9108V18.1386H54.6216V17.0386H53.9568ZM50.4466 18.1386V17.0386H51.1574H53.1999V18.1386H50.4466Z" fill="black"/>
<path id="Path_3" d="M53.203 17.7051H53.9123V17.0386H53.203L53.203 17.7051Z" fill="black"/>
</g>
<path id="Shape_10" fill-rule="evenodd" clip-rule="evenodd" d="M6.68272 53.1328L7.89854 52.2522C7.55877 51.7064 7.08243 51.266 6.4692 50.9312C5.8558 50.5967 5.16577 50.4292 4.39927 50.4292C3.77507 50.4292 3.20261 50.5427 2.68255 50.7691C2.16216 50.9956 1.7487 51.3201 1.44233 51.7423C1.13564 52.1647 0.982205 52.6487 0.982205 53.1947C0.982205 53.8539 1.20408 54.4051 1.64767 54.8478C2.09126 55.2907 2.71268 55.682 3.51209 56.0219L4.71154 56.5472C5.28072 56.7943 5.68878 57.021 5.93522 57.2269C6.18166 57.4331 6.30496 57.7163 6.30496 58.0767C6.30496 58.5092 6.13237 58.8545 5.78752 59.1118C5.44234 59.3695 4.99073 59.498 4.43219 59.498C3.80782 59.498 3.26827 59.3513 2.81404 59.0578C2.35932 58.7643 1.95142 58.3703 1.59003 57.8758L0.358002 58.7566C0.774082 59.4466 1.33803 59.9874 2.05016 60.3788C2.76181 60.7704 3.56138 60.9658 4.44856 60.9658C5.13859 60.9658 5.76001 60.8446 6.31315 60.6028C6.86612 60.3609 7.29874 60.0156 7.611 59.5677C7.9231 59.1195 8.07916 58.6021 8.07916 58.0149C8.07916 57.3455 7.86547 56.7894 7.43841 56.3464C7.01136 55.9036 6.35965 55.4915 5.48344 55.1104L4.26795 54.5851C3.89542 54.41 3.61067 54.2683 3.41368 54.1602C3.21653 54.0521 3.05753 53.9157 2.93718 53.7509C2.8165 53.5861 2.7564 53.3801 2.7564 53.1328C2.7564 52.7311 2.91507 52.4248 3.2329 52.2136C3.55041 52.0026 3.93931 51.8969 4.39927 51.8969C4.85924 51.8969 5.28367 52.0026 5.6724 52.2136C6.06114 52.4248 6.3978 52.7311 6.68272 53.1328ZM11.94 60.9646H10.1852V50.7573H11.94V60.9646ZM24.2234 52.7775L22.9311 53.689C22.5538 53.1226 22.0908 52.6874 21.5417 52.3836C20.9924 52.0797 20.3676 51.9277 19.6676 51.9277C18.9459 51.9277 18.2916 52.0899 17.7046 52.4144C17.1175 52.7388 16.6571 53.1896 16.3233 53.7663C15.9893 54.3432 15.8225 54.9867 15.8225 55.6974C15.8225 56.4081 15.9893 57.052 16.3233 57.6287C16.6571 58.2056 17.1175 58.6561 17.7046 58.9805C18.2916 59.3049 18.9459 59.4672 19.6676 59.4672C20.3676 59.4672 20.9924 59.3154 21.5417 59.0114C22.0908 58.7077 22.5538 58.2725 22.9311 57.706L24.2234 58.6175C23.771 59.3385 23.1435 59.9101 22.3414 60.3324C21.5388 60.7548 20.6422 60.9658 19.6514 60.9658C18.628 60.9658 17.6885 60.734 16.8323 60.2705C15.976 59.8071 15.2974 59.1736 14.7967 58.3703C14.2959 57.5669 14.0455 56.6761 14.0455 55.6974C14.0455 54.7191 14.2959 53.8281 14.7967 53.0247C15.2974 52.2213 15.976 51.5879 16.8323 51.1243C17.6885 50.661 18.628 50.4292 19.6514 50.4292C20.6312 50.4292 21.5227 50.6403 22.3251 51.0626C23.1272 51.485 23.7603 52.0566 24.2234 52.7775ZM34.7522 60.9646V50.7573H33.0426V54.8247H27.6877V50.7573H25.9781V60.9646H27.6877V56.294H33.0426V60.9646H34.7522ZM44.3905 50.7573V52.2266H39.2283V54.8403H43.1156V56.263H39.2283V59.4955H44.5794V60.9646H37.5602V50.7573H44.3905ZM50.4939 55.3664H48.44V52.0737H50.4939C51.0599 52.0737 51.5025 52.2254 51.8219 52.529C52.1408 52.8325 52.3006 53.2322 52.3006 53.7277C52.3006 54.2132 52.1408 54.6076 51.8219 54.9112C51.5025 55.2147 51.0599 55.3664 50.4939 55.3664ZM50.401 57.0209H48.4202V60.9646H46.6852V50.7573H50.6301C51.3504 50.7573 51.9887 50.8887 52.5453 51.1517C53.1018 51.4146 53.5329 51.7834 53.8385 52.2574C54.1439 52.7318 54.297 53.2732 54.297 53.8813C54.297 54.5517 54.1111 55.1394 53.7403 55.6444C53.3691 56.1497 52.8618 56.5209 52.2178 56.758L55.4592 60.9646H53.4784L50.401 57.0209ZM63.6932 52.2266V50.7573H56.8629V60.9646H63.8821V59.4955H58.5311V56.263H62.4183V54.8403H58.5311V52.2266H63.6932ZM2.95454 75.96H8.78108V77.4292H0.358002V76.9808L6.15282 68.6911H1.03882V67.2219H8.76514V67.6705L2.95454 75.96ZM14.7556 69.855L16.5024 74.1355H12.9928L14.7556 69.855ZM17.848 77.4292L17.1009 75.7558H12.3781L11.6308 77.4292H9.83396L14.4611 67.2219H15.0337L19.6609 77.4292H17.848ZM30.1897 77.4292V67.2219H28.4801V71.2893H23.1253V67.2219H21.4157V77.4292H23.1253V72.7586H28.4801V77.4292H30.1897ZM34.3788 67.2219V75.9601H39.3147V77.4292H32.6465V67.2219H34.3788ZM48.9259 75.4668C49.3037 74.828 49.4926 74.0726 49.4926 73.2003V67.2219H47.7766V73.3067C47.7766 74.1586 47.5282 74.8127 47.0319 75.2691C46.5354 75.7255 45.8988 75.9537 45.1217 75.9537C44.3338 75.9537 43.689 75.7255 43.1872 75.2691C42.6854 74.8127 42.4345 74.1586 42.4345 73.3067V67.2219H40.7186V73.2003C40.7186 74.0726 40.9072 74.828 41.2851 75.4668C41.6628 76.1058 42.1836 76.5927 42.8472 76.9273C43.5111 77.262 44.2691 77.4292 45.1217 77.4292C45.9527 77.4292 46.7 77.262 47.3638 76.9273C48.0276 76.5927 48.548 76.1058 48.9259 75.4668ZM59.0142 67.0641H60.7238V77.4306H60.1431L53.6592 70.3548V77.2606H51.9498V66.894H52.5466L59.0142 73.9391V67.0641ZM71.56 69.9994L72.7958 69.026C72.2929 68.3462 71.6668 67.8209 70.918 67.4501C70.1688 67.0793 69.3343 66.894 68.4142 66.894C67.387 66.894 66.4451 67.1258 65.5892 67.5892C64.733 68.0527 64.059 68.6861 63.5669 69.4895C63.0746 70.2929 62.8287 71.1839 62.8287 72.1623C62.8287 73.1409 63.0746 74.0318 63.5669 74.8352C64.059 75.6384 64.7304 76.272 65.5812 76.7353C66.4319 77.1989 67.3761 77.4306 68.4142 77.4306C69.4839 77.4306 70.4577 77.1861 71.3352 76.6968C72.2125 76.2077 72.8867 75.5562 73.3576 74.7425V71.8687H68.3981V73.3211H71.6563V74.418C71.3245 74.9022 70.8882 75.2807 70.3481 75.5536C69.8078 75.8266 69.1897 75.9629 68.4944 75.9629C67.7344 75.9629 67.0604 75.7983 66.472 75.4686C65.8833 75.139 65.4232 74.6833 65.0917 74.1012C64.7599 73.5194 64.5941 72.8679 64.5941 72.1469C64.5941 71.4362 64.7546 70.7951 65.0755 70.2233C65.3966 69.6517 65.846 69.2037 66.4239 68.8792C67.0017 68.5547 67.6597 68.3926 68.3981 68.3926C69.7142 68.3926 70.7681 68.9283 71.56 69.9994Z" fill="black"/>
</g>
</svg>
