<svg width="236" height="68" viewBox="0 0 236 68" fill="none" xmlns="http://www.w3.org/2000/svg">
<rect x="1.00002" y="1" width="234" height="66" rx="2.5" fill="white"/>
<mask id="mask0_2_246" style="mask-type:alpha" maskUnits="userSpaceOnUse" x="97" y="33" width="44" height="17">
<path fill-rule="evenodd" clip-rule="evenodd" d="M97.2882 33.4797H140.148V49.0624H97.2882V33.4797Z" fill="white"/>
</mask>
<g mask="url(#mask0_2_246)">
<path fill-rule="evenodd" clip-rule="evenodd" d="M135.047 36.7846C135.168 36.6367 135.271 36.5083 135.312 36.4893C135.352 36.4708 135.373 36.4156 135.373 36.379C135.373 36.3049 135.229 36.4333 135.067 36.6738C135.006 36.7289 134.924 36.8397 134.863 36.9129C134.801 36.969 134.781 37.0242 134.801 37.0242C134.822 37.0242 134.945 36.9129 135.047 36.7846ZM133.229 38.9421C133.209 38.9421 133.189 38.9606 133.189 38.9973C133.189 39.0343 133.148 39.0899 133.107 39.1266C133.067 39.1451 133.025 39.1817 133.025 39.2192C133.025 39.2735 133.209 39.1076 133.331 38.9231C133.393 38.8323 133.434 38.7396 133.414 38.7206C133.414 38.7206 133.373 38.7572 133.331 38.8323C133.291 38.8865 133.25 38.9421 133.229 38.9421ZM132.434 37.5224C132.434 37.5956 132.495 37.559 132.556 37.4668C132.597 37.375 132.597 37.375 132.535 37.4297C132.475 37.4668 132.434 37.5034 132.434 37.5224ZM136.026 36.3428C135.944 36.5834 135.944 36.7859 136.006 36.7484C136.026 36.7303 136.067 36.6381 136.087 36.5273L136.149 36.2135C136.19 36.03 136.087 36.1218 136.026 36.3428ZM135.842 38.6103C135.842 38.5918 135.822 38.5918 135.801 38.6288C135.78 38.6654 135.76 38.7206 135.76 38.7572C135.76 38.8323 135.842 38.684 135.842 38.6103ZM135.74 38.9429C135.74 38.9063 135.72 38.9063 135.699 38.9615C135.679 39.0166 135.638 39.0908 135.638 39.1274C135.638 39.164 135.659 39.1459 135.679 39.0908C135.72 39.0532 135.74 38.98 135.74 38.9429ZM134.945 35.6789C134.924 35.6969 134.904 35.7159 134.904 35.7525C134.904 35.8077 134.945 35.7892 134.965 35.7159C134.985 35.6789 134.985 35.6603 134.945 35.6789ZM134.618 36.047C134.495 36.1211 134.311 36.3422 134.393 36.3056C134.434 36.3056 134.516 36.2323 134.597 36.1396C134.699 36.0293 134.699 36.0103 134.618 36.047ZM134.352 36.4158C134.352 36.3792 134.311 36.3792 134.29 36.3792C134.271 36.3968 134.25 36.4158 134.25 36.4334C134.25 36.4529 134.271 36.4529 134.29 36.4529C134.311 36.4529 134.331 36.4334 134.352 36.4158ZM134.189 36.8034C134.169 36.8034 134.066 36.9327 133.943 37.062C133.72 37.3563 133.618 37.5032 133.761 37.3373L133.943 37.1538C133.984 37.1163 134.026 37.062 134.026 37.062C134.005 37.0426 134.046 36.987 134.127 36.9327C134.189 36.8581 134.209 36.8034 134.189 36.8034ZM133.699 37.4663C133.659 37.4663 133.597 37.5404 133.516 37.6137C133.434 37.743 133.414 37.743 133.495 37.6878C133.557 37.6512 133.618 37.6137 133.638 37.6322C133.659 37.6512 133.659 37.6512 133.638 37.6137C133.618 37.5771 133.638 37.5404 133.679 37.5219C133.72 37.5029 133.72 37.4853 133.699 37.4663ZM133.475 38.0575C133.516 38.0024 133.455 37.9658 133.373 38.0024C133.352 38.02 133.312 38.0756 133.291 38.1308C133.25 38.2234 133.271 38.2415 133.312 38.2234C133.352 38.2044 133.373 38.1674 133.373 38.1308C133.373 38.0941 133.393 38.0575 133.414 38.0756C133.434 38.0941 133.475 38.0756 133.475 38.0575ZM133.188 38.2789C133.168 38.2969 133.127 38.353 133.107 38.4072C133.086 38.4628 133.046 38.518 133.025 38.4999C132.964 38.4814 132.637 38.9059 132.678 38.9796C132.678 38.9977 132.678 39.0162 132.658 39.0162C132.617 38.9977 132.495 39.1636 132.495 39.2373C132.495 39.3105 132.597 39.2007 132.78 38.961C132.903 38.7942 133.005 38.6107 133.005 38.5741C133.005 38.4999 133.025 38.4999 133.046 38.5365C133.067 38.5741 133.107 38.5365 133.168 38.4262C133.209 38.3335 133.229 38.2789 133.188 38.2789ZM133.782 37.0255C133.782 37.063 133.924 36.9704 133.964 36.8967C134.005 36.8411 134.026 36.8044 134.005 36.8044C133.984 36.8044 133.782 36.988 133.782 37.0255ZM132.434 39.3099C132.414 39.3293 132.393 39.3659 132.393 39.384C132.393 39.4582 132.414 39.4392 132.455 39.3659C132.475 39.3293 132.475 39.3099 132.434 39.3099ZM132.353 39.4961C132.312 39.4775 132.312 39.4034 132.393 39.2375C132.515 38.9979 132.455 38.9979 132.312 39.2198C132.271 39.2931 132.21 39.3668 132.189 39.3848C132.189 39.4034 132.107 39.5141 132.026 39.6434L131.618 40.2881C131.392 40.657 131.331 40.7682 131.392 40.7682C131.392 40.7682 131.475 40.657 131.576 40.5277C131.965 39.9748 132.21 39.6801 132.25 39.661C132.271 39.6434 132.291 39.6068 132.291 39.5878C132.291 39.5507 132.312 39.5141 132.353 39.5141C132.393 39.5141 132.393 39.5141 132.353 39.4961ZM131.392 39.9746C131.475 39.8091 131.372 39.8643 131.271 40.0487C131.209 40.1229 131.169 40.2512 131.169 40.2879C131.189 40.3806 131.229 40.3254 131.392 39.9746ZM131.148 40.4354C131.128 40.3061 131.046 40.2695 131.026 40.3803C131.026 40.4169 131.046 40.454 131.087 40.454C131.107 40.454 131.128 40.5096 131.107 40.5638C131.067 40.676 131.087 40.676 131.128 40.6199C131.148 40.5833 131.169 40.4906 131.148 40.4354ZM131.392 39.8092C131.392 39.8268 131.454 39.7726 131.495 39.6799C131.556 39.5691 131.637 39.4773 131.658 39.4773C131.678 39.4588 131.699 39.3847 131.719 39.3105C131.76 39.2007 131.76 39.1821 131.699 39.2929C131.678 39.348 131.637 39.4222 131.617 39.4222C131.556 39.4588 131.392 39.7536 131.392 39.8092ZM130.984 38.2964C130.964 38.2783 130.944 38.3159 130.924 38.3525C130.903 38.4067 130.903 38.4257 130.944 38.3701C130.984 38.3525 131.005 38.3159 130.984 38.2964ZM130.863 41.0624C130.863 41.0063 130.863 41.0063 130.822 41.0624C130.781 41.099 130.76 41.1722 130.76 41.2088C130.76 41.2649 130.76 41.2649 130.822 41.2088C130.842 41.1722 130.863 41.099 130.863 41.0624ZM130.76 37.8544C130.822 37.7074 130.842 37.6148 130.781 37.6708C130.754 37.7019 130.699 37.8228 130.644 37.9563C130.649 37.9693 130.655 37.9804 130.64 38.0203C130.64 38.0068 130.633 38.0017 130.627 37.9962C130.558 38.1672 130.494 38.3489 130.494 38.4073C130.494 38.4448 130.474 38.4999 130.454 38.518C130.433 38.5366 130.392 38.6107 130.373 38.7034C130.373 38.7942 130.27 39.1455 130.147 39.4959C129.964 40.0673 129.923 40.2699 129.984 40.2138C129.984 40.2138 130.045 40.0303 130.126 39.8268L130.311 39.2373L130.535 38.4999L130.76 37.8544ZM130.577 39.3665C130.515 39.4773 130.475 39.6242 130.475 39.6608C130.454 39.7901 130.556 39.6974 130.577 39.5505L130.637 39.2738C130.658 39.2006 130.637 39.2372 130.577 39.3665ZM130.577 40.3053C130.556 40.2686 130.556 40.3053 130.556 40.3613C130.556 40.416 130.556 40.4531 130.577 40.416C130.597 40.3794 130.597 40.3419 130.577 40.3053ZM130.454 39.8081C130.433 39.7891 130.413 39.8257 130.413 39.8632C130.413 39.9736 130.433 39.9926 130.475 39.8999C130.495 39.8632 130.475 39.8257 130.454 39.8081ZM130.474 40.6924C130.454 40.6752 130.413 40.7295 130.392 40.8036C130.331 40.9695 130.352 40.9876 130.433 40.8217C130.454 40.7485 130.474 40.6924 130.474 40.6924ZM130.331 40.1959C130.27 40.2325 130.086 40.822 130.086 40.9332C130.086 41.0625 130.229 40.7673 130.25 40.5828L130.331 40.2691C130.352 40.213 130.352 40.1764 130.331 40.1959ZM130.086 41.0631C130.025 41.0997 129.943 41.413 129.984 41.3759C130.005 41.3759 130.045 41.2842 130.066 41.1919C130.107 41.0802 130.107 41.026 130.086 41.0631ZM129.943 41.5787C129.923 41.5592 129.923 41.5787 129.923 41.6329C129.923 41.6885 129.923 41.6885 129.943 41.6519C129.964 41.6153 129.964 41.5787 129.943 41.5787ZM129.862 40.6933C129.923 40.5097 129.943 40.3429 129.943 40.3063C129.923 40.2511 129.862 40.4541 129.76 40.8596C129.699 41.1549 129.78 41.026 129.862 40.6933ZM130.173 38.3564C130.122 38.4973 130.081 38.6178 130.066 38.6836C130.025 38.9227 130.066 38.8861 130.188 38.5913C130.24 38.4824 130.287 38.33 130.314 38.2155C130.27 38.2586 130.224 38.3045 130.173 38.3564ZM129.959 38.3214C129.969 38.2894 129.978 38.2583 129.989 38.2264C129.809 38.3506 129.64 38.4711 129.64 38.4808C129.64 38.5174 129.619 38.5174 129.578 38.4993C129.558 38.4808 129.538 38.4808 129.558 38.5174C129.598 38.5549 129.558 38.5735 129.477 38.5735C129.396 38.5735 129.354 38.6101 129.354 38.6467C129.354 38.7028 129.375 38.7204 129.396 38.7204C129.416 38.7204 129.457 38.7028 129.457 38.6838C129.457 38.6467 129.496 38.6286 129.538 38.6286C129.578 38.6286 129.681 38.5549 129.762 38.4808C129.812 38.4307 129.882 38.3765 129.959 38.3214ZM129.273 38.7928C129.252 38.7752 129.191 38.8313 129.109 38.9412C129.211 38.8855 129.293 38.8123 129.273 38.7928ZM130.479 37.5942C130.493 37.5887 130.505 37.5822 130.518 37.5785C130.527 37.5775 130.529 37.5817 130.537 37.5817C130.559 37.5219 130.576 37.4658 130.576 37.4306C130.576 37.3931 130.535 37.47 130.479 37.5942ZM130.304 38.0112C130.289 38.0524 130.272 38.0932 130.257 38.134C130.291 38.115 130.325 38.0951 130.356 38.0779C130.382 38.0056 130.403 37.9463 130.433 37.9463C130.445 37.9361 130.443 37.9208 130.445 37.906C130.42 37.9259 130.404 37.944 130.375 37.9658C130.357 37.9769 130.333 37.9926 130.304 38.0112ZM130.842 38.6291C130.801 38.6291 130.781 38.6657 130.781 38.7209C130.781 38.7575 130.76 38.8326 130.76 38.8868C130.74 38.9234 130.74 38.9424 130.76 38.9424C130.76 38.9234 130.801 38.8502 130.842 38.7765C130.863 38.6843 130.863 38.6291 130.842 38.6291ZM128.782 39.3468C128.801 39.338 128.807 39.3125 128.82 39.2967C128.685 39.4209 128.673 39.4464 128.782 39.3468ZM127.987 39.2366C127.947 39.2366 127.783 39.2922 127.62 39.4025C127.599 39.4215 127.579 39.4392 127.538 39.4392C127.599 39.4582 127.681 39.4767 127.681 39.4392C127.681 39.4215 127.701 39.4025 127.721 39.4215C127.742 39.4392 127.783 39.4392 127.783 39.4025C127.783 39.384 127.783 39.3659 127.803 39.3659C127.824 39.3659 127.905 39.3474 127.967 39.3099C128.069 39.2732 128.069 39.2732 127.987 39.2366ZM127.579 39.3482C127.598 39.3482 127.64 39.3302 127.66 39.3107C127.66 39.2741 127.64 39.2741 127.598 39.2931C127.517 39.3107 127.496 39.3482 127.579 39.3482ZM127.251 39.5871C127.272 39.5686 127.231 39.5501 127.19 39.5501C127.129 39.532 127.108 39.5501 127.108 39.5871C127.149 39.6428 127.231 39.6428 127.251 39.5871ZM126.824 39.8083C126.742 39.8454 126.722 39.882 126.783 39.882C126.824 39.882 126.844 39.8634 126.864 39.8259C126.884 39.8083 126.864 39.7893 126.824 39.8083ZM126.803 39.7539C126.864 39.7363 126.884 39.7173 126.864 39.6979C126.864 39.6802 126.823 39.6979 126.783 39.7363C126.742 39.7729 126.742 39.7905 126.803 39.7539ZM126.129 40.1221L125.986 40.213C125.864 40.3057 125.823 40.3423 125.904 40.3423C125.925 40.3423 125.986 40.2871 126.047 40.2324L126.129 40.1221ZM122.46 38.2613C122.466 38.2418 122.469 38.2228 122.476 38.2038C122.48 38.1895 122.488 38.1755 122.492 38.1612C122.283 38.3044 122.05 38.4694 122.05 38.4805C122.05 38.5171 122.029 38.5171 121.988 38.499C121.967 38.4805 121.947 38.4805 121.967 38.5171C122.009 38.5546 121.967 38.5732 121.886 38.5732C121.805 38.5732 121.763 38.6098 121.763 38.6464C121.763 38.7025 121.784 38.7201 121.805 38.7201C121.825 38.7201 121.865 38.7025 121.865 38.6835C121.865 38.6464 121.907 38.6283 121.947 38.6283C121.988 38.6283 122.09 38.5546 122.172 38.4805C122.24 38.4119 122.347 38.3354 122.46 38.2613ZM121.682 38.7928C121.662 38.7752 121.6 38.8313 121.518 38.9412C121.62 38.8855 121.702 38.8123 121.682 38.7928ZM121.193 39.3473C121.212 39.3385 121.218 39.312 121.23 39.2963C121.095 39.4214 121.083 39.4469 121.193 39.3473ZM120.396 39.2366C120.355 39.2366 120.192 39.2922 120.029 39.4025C120.008 39.4215 119.988 39.4392 119.947 39.4392C120.008 39.4582 120.09 39.4767 120.09 39.4392C120.09 39.4215 120.11 39.4025 120.131 39.4215C120.151 39.4392 120.192 39.4392 120.192 39.4025C120.192 39.384 120.192 39.3659 120.212 39.3659C120.233 39.3659 120.314 39.3474 120.375 39.3099C120.477 39.2732 120.477 39.2732 120.396 39.2366ZM119.989 39.3482C120.009 39.3482 120.05 39.3302 120.07 39.3107C120.07 39.2741 120.05 39.2741 120.009 39.2931C119.927 39.3107 119.907 39.3482 119.989 39.3482ZM119.662 39.5871C119.682 39.5686 119.642 39.5501 119.601 39.5501C119.539 39.532 119.519 39.5501 119.519 39.5871C119.56 39.6428 119.642 39.6428 119.662 39.5871ZM119.234 39.8083C119.152 39.8454 119.131 39.882 119.192 39.882C119.234 39.882 119.253 39.8634 119.274 39.8259C119.294 39.8083 119.274 39.7893 119.234 39.8083ZM119.213 39.7539C119.275 39.7363 119.295 39.7173 119.275 39.6979C119.275 39.6802 119.234 39.6979 119.192 39.7363C119.152 39.7729 119.152 39.7905 119.213 39.7539ZM118.539 40.1221L118.396 40.213C118.274 40.3057 118.233 40.3423 118.315 40.3423C118.335 40.3423 118.396 40.2871 118.458 40.2324L118.539 40.1221ZM116.886 37.4856C116.886 37.5408 116.927 37.5408 117.315 37.4296C117.498 37.3749 117.682 37.2831 117.723 37.2456C117.784 37.2085 117.825 37.1719 117.845 37.1719C117.866 37.1719 117.988 37.0987 118.11 37.0245C118.233 36.9328 118.335 36.8767 118.356 36.8767C118.376 36.8767 118.927 36.4712 119.008 36.3794C119.049 36.3238 119.152 36.232 119.234 36.1574C119.315 36.1027 119.458 35.9368 119.539 35.8256L119.703 35.605H119.499C119.192 35.605 118.723 35.789 118.499 35.9924C118.192 36.2501 118.172 36.2686 118.152 36.2686C118.049 36.2686 116.886 37.3749 116.886 37.4856ZM119.703 36.14C119.703 36.1766 119.682 36.2132 119.642 36.2132C119.478 36.2508 119.356 36.3245 119.356 36.3977C119.356 36.4343 119.335 36.4538 119.315 36.4538C119.275 36.4343 119.254 36.4718 119.234 36.546C119.213 36.6197 119.172 36.6748 119.152 36.6748C119.091 36.6748 118.58 37.0799 118.56 37.136C118.56 37.1911 118.642 37.1726 118.764 37.0627C118.825 37.0252 118.907 36.97 118.928 36.97C118.968 36.97 119.091 36.8588 119.234 36.73C119.621 36.3611 119.744 36.2693 119.784 36.2693C119.825 36.2693 119.846 36.2508 119.846 36.2327C119.846 36.2132 119.927 36.1034 120.009 36.0107L120.192 35.7896C120.192 35.753 120.212 35.6793 120.233 35.6237C120.294 35.4763 120.294 35.4578 120.212 35.4944C120.172 35.513 120.132 35.5681 120.111 35.6423C120.091 35.7711 119.825 36.0663 119.744 36.0663C119.723 36.0663 119.703 36.1034 119.703 36.14ZM124.476 37.4856C124.476 37.5408 124.517 37.5408 124.904 37.4296C125.089 37.3749 125.272 37.2831 125.313 37.2456C125.374 37.2085 125.415 37.1719 125.436 37.1719C125.456 37.1719 125.578 37.0987 125.7 37.0245C125.823 36.9328 125.925 36.8767 125.945 36.8767C125.966 36.8767 126.517 36.4712 126.599 36.3794C126.64 36.3238 126.742 36.232 126.824 36.1574C126.904 36.1027 127.047 35.9368 127.129 35.8256L127.293 35.605H127.089C126.783 35.605 126.313 35.789 126.089 35.9924C125.782 36.2501 125.761 36.2686 125.741 36.2686C125.639 36.2686 124.476 37.3749 124.476 37.4856ZM127.293 36.14C127.293 36.1766 127.272 36.2132 127.232 36.2132C127.068 36.2508 126.945 36.3245 126.945 36.3977C126.945 36.4343 126.925 36.4538 126.904 36.4538C126.865 36.4343 126.845 36.4718 126.824 36.546C126.803 36.6197 126.763 36.6748 126.742 36.6748C126.681 36.6748 126.17 37.0799 126.149 37.136C126.149 37.1911 126.231 37.1726 126.354 37.0627C126.415 37.0252 126.497 36.97 126.517 36.97C126.558 36.97 126.681 36.8588 126.824 36.73C127.211 36.3611 127.334 36.2693 127.374 36.2693C127.415 36.2693 127.436 36.2508 127.436 36.2327C127.436 36.2132 127.517 36.1034 127.599 36.0107L127.783 35.7896C127.783 35.753 127.803 35.6793 127.824 35.6237C127.885 35.4763 127.885 35.4578 127.803 35.4944C127.762 35.513 127.721 35.5681 127.701 35.6423C127.681 35.7711 127.415 36.0663 127.334 36.0663C127.313 36.0663 127.293 36.1034 127.293 36.14ZM140.148 37.4126C140.148 37.5039 140.107 37.578 139.679 38.187C139.577 38.3334 139.475 38.4813 139.475 38.4998C139.475 38.5179 138.883 39.2928 138.823 39.3479C138.802 39.3479 138.741 39.4587 138.68 39.569C138.598 39.6974 138.516 39.8267 138.475 39.8642C138.434 39.9008 138.312 40.012 138.23 40.1228L137.903 40.4723C137.801 40.564 137.7 40.6567 137.7 40.6762C137.7 40.6933 137.679 40.7128 137.659 40.7128C137.619 40.7128 137.516 40.786 137.393 40.8778C136.985 41.2291 136.394 41.4867 136.169 41.4501L135.863 41.394C135.699 41.3574 135.413 41.1364 135.373 40.9885C135.352 40.9338 135.25 40.8412 135.168 40.7679C134.944 40.6201 134.863 40.4171 134.822 39.9379C134.801 39.4031 134.904 38.7941 135.209 37.8366L135.597 36.5269C135.597 36.4718 135.618 36.361 135.659 36.2873C135.679 36.1956 135.679 36.1399 135.638 36.1399C135.597 36.1399 135.577 36.158 135.577 36.1956C135.577 36.2132 135.535 36.2692 135.495 36.3059C135.373 36.4166 135.413 36.2692 135.556 36.1399C135.699 35.993 135.801 35.8262 135.74 35.8262C135.679 35.8262 135.535 35.974 135.373 36.1766L135.026 36.5459L134.76 36.8587L134.516 37.1169C134.393 37.2462 134.311 37.357 134.311 37.3755C134.311 37.4126 134.29 37.4302 134.271 37.4302C134.229 37.4302 134.086 37.6522 134.107 37.7073C134.107 37.7254 134.086 37.7439 134.066 37.7254C134.026 37.7073 133.964 37.7805 133.903 37.8732C133.841 37.9835 133.638 38.2788 133.434 38.5364C133.25 38.7765 133.086 39.0161 133.086 39.0346C133.086 39.0527 133.046 39.1454 132.984 39.2196C132.924 39.2928 132.882 39.3479 132.903 39.3665C132.924 39.3845 132.924 39.3845 132.924 39.3479C132.924 39.3104 132.964 39.2928 132.984 39.2928C133.005 39.2928 132.984 39.3665 132.924 39.4397C132.862 39.5324 132.78 39.6608 132.739 39.7534C132.678 39.8267 132.577 39.9935 132.475 40.1038C132.393 40.2136 132.312 40.3429 132.312 40.3624C132.312 40.3805 132.291 40.399 132.271 40.399C132.25 40.399 132.189 40.4542 132.169 40.5274C132.086 40.7128 131.76 41.192 131.658 41.2842C131.617 41.3208 131.535 41.4307 131.475 41.5234C131.189 42.0582 131.026 42.3534 131.005 42.4637C130.943 42.6111 130.882 42.6477 130.699 42.6296C130.617 42.6296 130.515 42.593 130.454 42.5559C130.373 42.5003 130.29 42.4827 130.229 42.4827C130.126 42.4637 129.474 41.9298 129.474 41.8552C129.474 41.8371 129.433 41.782 129.372 41.7259C129.127 41.4867 129.188 41.0261 129.577 39.6065C129.655 39.3266 129.749 39.0087 129.848 38.6833C128.699 39.8318 126.531 41.8834 124.823 41.7259C124.742 41.7259 124.476 41.6712 124.251 41.616C123.476 41.394 122.965 40.8778 122.619 39.9379C122.496 39.6065 122.476 39.4397 122.476 39.1454C122.476 38.9058 122.455 38.7765 122.414 38.7941C122.365 38.8284 122.364 38.7111 122.392 38.5485C121.284 39.6626 119.008 41.8895 117.233 41.7259C117.151 41.7259 116.886 41.6712 116.661 41.616C115.886 41.394 115.376 40.8778 115.029 39.9379C114.906 39.6065 114.885 39.4397 114.885 39.1454C114.885 38.9058 114.865 38.7765 114.824 38.7941C114.743 38.8502 114.784 38.5179 114.885 38.2046C115.11 37.5414 115.416 36.9876 116.09 36.1214C116.376 35.771 116.825 35.3289 117.212 35.0522C117.274 35.0156 117.457 34.9049 117.621 34.7756L117.927 34.554C117.968 34.4993 118.723 34.149 118.866 34.1304C118.947 34.1124 119.294 34.1124 119.355 34.1304C119.417 34.149 119.764 34.1304 119.907 34.2959C119.927 34.333 120.07 34.3144 120.131 34.37L120.416 34.554C120.703 34.7385 120.805 35.0708 120.886 35.4031C120.948 35.6237 120.825 36.0296 120.62 36.4342C120.498 36.6562 119.947 37.2277 119.539 37.5414L119.253 37.7805C119.213 37.8366 118.376 38.2417 118.029 38.3705C117.865 38.4447 117.723 38.4998 117.702 38.5364C117.681 38.5554 117.559 38.574 117.416 38.574C117.07 38.574 116.783 38.4261 116.641 38.187C116.519 37.9835 116.478 38.0201 116.273 38.3705L116.11 38.6291C116.069 38.6657 115.947 38.9609 115.804 39.2928C115.702 39.5875 115.661 39.9745 115.743 40.0853C115.825 40.2136 116.192 40.3429 116.621 40.399C117.376 40.4723 118.11 40.2136 118.825 39.8461C119.274 39.6241 119.825 39.3665 119.846 39.3845C119.886 39.4031 119.886 39.4031 119.866 39.3665C119.866 39.3479 119.947 39.2738 120.07 39.2006C120.192 39.1454 120.375 39.0346 120.477 38.9424C120.58 38.8692 120.682 38.8136 120.682 38.8326C120.703 38.8502 120.723 38.8502 120.723 38.8136C120.723 38.7765 120.784 38.7575 120.845 38.7575C120.907 38.7575 120.968 38.7209 120.988 38.6657C121.009 38.6291 121.05 38.6106 121.07 38.6106C121.091 38.6291 121.152 38.6291 121.213 38.6291H121.233H121.273C121.273 38.6843 121.253 38.7209 121.233 38.7209H121.193C121.193 38.7399 121.172 38.7399 121.131 38.7209C121.091 38.7033 121.07 38.7033 121.07 38.7399C121.07 38.7575 120.988 38.8326 120.886 38.8868C120.805 38.9234 120.723 38.9976 120.723 39.0161C120.723 39.0346 120.703 39.0527 120.682 39.0346C120.662 39.0346 120.6 39.0527 120.539 39.0902C120.416 39.1635 120.416 39.1635 120.498 39.2196C120.56 39.2372 120.6 39.2372 120.641 39.2006C120.682 39.182 120.723 39.1635 120.743 39.182C120.764 39.2006 120.784 39.182 120.805 39.1079C120.825 39.0527 120.845 39.0161 120.886 39.0346C120.907 39.0527 121.009 39.0161 121.111 38.9795C121.294 38.8868 121.172 38.7941 121.273 38.7765C121.294 38.7765 121.314 38.7399 121.314 38.7033C121.314 38.6291 121.335 38.6291 121.376 38.6657C121.458 38.7209 121.518 38.7033 121.518 38.6106C121.518 38.574 121.498 38.592 121.458 38.6291C121.416 38.6843 121.416 38.6843 121.416 38.6106C121.416 38.5554 121.478 38.5179 121.62 38.4627C121.723 38.4447 122.274 38.0943 122.274 38.0758C122.274 38.0391 122.295 38.0392 122.335 38.0577C122.376 38.0758 122.417 38.0577 122.417 38.0392C122.417 38.0025 122.458 37.9659 122.499 37.9659C122.58 37.9659 122.58 37.9659 122.499 37.9465C122.508 37.9465 122.54 37.9492 122.576 37.9465C122.794 37.3903 123.096 36.8727 123.68 36.1214C123.966 35.771 124.414 35.3289 124.802 35.0522C124.863 35.0156 125.048 34.9049 125.211 34.7756L125.517 34.554C125.558 34.4993 126.313 34.149 126.455 34.1304C126.538 34.1124 126.884 34.1124 126.945 34.1304C127.006 34.149 127.354 34.1304 127.496 34.2959C127.517 34.333 127.66 34.3144 127.721 34.37L128.007 34.554C128.293 34.7385 128.395 35.0708 128.476 35.4031C128.538 35.6237 128.415 36.0296 128.211 36.4342C128.089 36.6562 127.538 37.2277 127.129 37.5414L126.844 37.7805C126.803 37.8366 125.966 38.2417 125.618 38.3705C125.456 38.4447 125.313 38.4998 125.293 38.5364C125.272 38.5554 125.149 38.574 125.006 38.574C124.659 38.574 124.374 38.4261 124.231 38.187C124.109 37.9835 124.068 38.0201 123.864 38.3705L123.7 38.6291C123.659 38.6657 123.537 38.9609 123.394 39.2928C123.292 39.5875 123.251 39.9745 123.333 40.0853C123.414 40.2136 123.782 40.3429 124.211 40.399C124.965 40.4723 125.7 40.2136 126.415 39.8461C126.864 39.6241 127.415 39.3665 127.436 39.3845C127.476 39.4031 127.476 39.4031 127.456 39.3665C127.456 39.3479 127.538 39.2738 127.66 39.2006C127.783 39.1454 127.966 39.0346 128.068 38.9424C128.171 38.8692 128.272 38.8136 128.272 38.8326C128.293 38.8502 128.312 38.8502 128.312 38.8136C128.312 38.7765 128.374 38.7575 128.435 38.7575C128.496 38.7575 128.558 38.7209 128.578 38.6657C128.598 38.6291 128.64 38.6106 128.66 38.6106C128.68 38.6291 128.742 38.6291 128.802 38.6291H128.823H128.864C128.864 38.6843 128.844 38.7209 128.823 38.7209H128.782C128.782 38.7399 128.762 38.7399 128.721 38.7209C128.68 38.7033 128.66 38.7033 128.66 38.7399C128.66 38.7575 128.578 38.8326 128.476 38.8868C128.395 38.9234 128.312 38.9976 128.312 39.0161C128.312 39.0346 128.293 39.0527 128.272 39.0346C128.251 39.0346 128.191 39.0527 128.13 39.0902C128.007 39.1635 128.007 39.1635 128.089 39.2196C128.151 39.2372 128.191 39.2372 128.231 39.2006C128.272 39.182 128.312 39.1635 128.333 39.182C128.353 39.2006 128.374 39.182 128.395 39.1079C128.415 39.0527 128.435 39.0161 128.476 39.0346C128.496 39.0527 128.598 39.0161 128.7 38.9795C128.885 38.8868 128.762 38.7941 128.864 38.7765C128.885 38.7765 128.905 38.7399 128.905 38.7033C128.905 38.6291 128.926 38.6291 128.966 38.6657C129.048 38.7209 129.109 38.7033 129.109 38.6106C129.109 38.574 129.089 38.592 129.048 38.6291C129.007 38.6843 129.007 38.6843 129.007 38.6106C129.007 38.5554 129.068 38.5179 129.211 38.4627C129.314 38.4447 129.864 38.0943 129.864 38.0758C129.864 38.0391 129.884 38.0392 129.925 38.0577C129.966 38.0758 130.007 38.0577 130.007 38.0392C130.007 38.009 130.036 37.984 130.068 37.9738C130.289 37.2763 130.503 36.6377 130.617 36.361C130.924 35.6422 130.924 35.6056 130.862 35.568C130.822 35.5314 130.822 35.4944 130.862 35.4031C131.005 35.0888 131.148 34.6282 131.128 34.5726C131.128 34.5359 131.169 34.4993 131.249 34.4623L131.454 34.37C131.515 34.351 131.576 34.351 131.617 34.4066C131.678 34.4437 131.698 34.4623 131.78 34.4066C131.862 34.37 131.924 34.37 132.107 34.4437C132.21 34.4993 132.331 34.554 132.373 34.554C132.433 34.554 132.617 34.8126 132.739 35.0337C132.841 35.2548 132.801 35.4397 132.331 36.6562C132.026 37.5039 131.964 37.6707 131.78 38.0758L131.596 38.5179C131.576 38.574 131.637 38.5179 131.719 38.3895C131.801 38.2602 131.862 38.2046 131.882 38.2417C131.903 38.2602 131.944 38.2602 131.964 38.2046C132.005 38.1495 132.026 38.1309 132.026 38.1495C132.026 38.2236 131.903 38.4998 131.78 38.6472C131.637 38.8136 131.576 38.8326 131.678 38.6657C131.739 38.574 131.739 38.574 131.658 38.6106C131.617 38.6472 131.576 38.6657 131.556 38.6472C131.535 38.6291 131.535 38.6657 131.535 38.7033C131.535 38.8136 131.413 39.2196 131.351 39.2562C131.331 39.2562 131.311 39.3845 131.29 39.5324C131.249 39.6798 131.209 39.8642 131.169 39.9194C131.128 39.9935 131.087 40.0672 131.107 40.0853C131.128 40.1038 131.209 39.9745 131.29 39.8267C131.535 39.3479 131.862 38.7399 131.924 38.6657C131.944 38.6291 131.964 38.5554 131.964 38.5364L132.066 38.3163C132.189 38.1128 133.086 36.8963 133.127 36.8963C133.188 36.8963 132.739 37.5961 132.637 37.6888C132.577 37.7439 132.535 37.8 132.535 37.8172C132.535 37.8366 132.475 37.9098 132.414 37.9835C132.21 38.2236 131.842 38.8868 131.882 38.9424C131.924 38.9609 132.026 38.8326 132.128 38.6657L132.23 38.5364C132.271 38.4998 132.617 38.0201 132.617 37.9835C132.617 37.9659 132.699 37.8542 132.801 37.7439L133.005 37.4673L133.373 36.951C133.495 36.8041 133.597 36.6928 133.618 36.7114C133.638 36.7299 133.638 36.7114 133.618 36.6928C133.597 36.6562 133.638 36.6001 133.699 36.5459C133.761 36.4903 133.802 36.4342 133.802 36.4166C133.802 36.361 133.923 36.2132 134.271 35.7896C134.393 35.6607 134.434 35.568 134.393 35.587C134.271 35.6237 134.311 35.5129 134.475 35.347C134.699 35.1074 134.597 35.1255 134.331 35.366C134.005 35.6793 133.841 35.771 134.026 35.568L134.189 35.366C134.189 35.347 134.393 35.163 134.638 34.9595C134.985 34.6648 135.108 34.5911 135.229 34.5911C135.311 34.5911 135.373 34.5726 135.393 34.5359C135.433 34.4437 136.21 34.351 136.312 34.4252C136.332 34.4437 136.374 34.4437 136.414 34.4437C136.433 34.4252 136.474 34.4437 136.495 34.4993C136.535 34.554 136.597 34.5726 136.699 34.554C136.883 34.5359 137.291 34.7575 137.373 34.9415C137.475 35.163 137.475 35.7163 137.373 36.158C137.21 36.8773 137.169 37.0432 137.087 37.2277C137.046 37.338 136.985 37.5229 136.965 37.6522L136.781 38.2046L136.576 38.8692L136.394 39.4772C136.291 39.7724 136.21 40.1404 136.23 40.2136C136.271 40.2878 136.842 39.9935 137.312 39.569L137.495 39.4031C137.495 39.4397 137.475 39.4772 137.495 39.5138C137.495 39.5324 137.475 39.5505 137.434 39.5505C137.414 39.5505 137.373 39.569 137.352 39.6065C137.332 39.6608 137.332 39.6608 137.393 39.6065C137.414 39.569 137.434 39.5505 137.434 39.5875C137.434 39.6065 137.475 39.5875 137.536 39.5505C137.578 39.5138 137.598 39.5138 137.578 39.5505C137.557 39.5875 137.557 39.6431 137.578 39.6974C137.619 39.7534 137.619 39.7901 137.557 39.8267C137.475 39.8642 137.475 39.8642 137.536 39.8642C137.578 39.8642 137.638 39.8461 137.638 39.8267C137.659 39.7901 137.7 39.7724 137.739 39.7901C137.78 39.8091 137.739 39.8642 137.598 40.012C137.495 40.1038 137.434 40.1965 137.475 40.177C137.638 40.1228 138.025 39.8461 138.046 39.7724C138.087 39.6974 138.107 39.6974 138.127 39.7534C138.148 39.7724 138.169 39.7901 138.169 39.7534C138.169 39.7358 138.23 39.6608 138.291 39.6065C138.353 39.5505 138.393 39.4772 138.393 39.4587C138.373 39.4221 138.393 39.4221 138.414 39.4397C138.475 39.4958 138.638 39.3299 138.598 39.2196C138.598 39.1635 138.598 39.1269 138.618 39.1269C138.659 39.1269 139.108 38.5364 139.271 38.3529C139.434 38.1495 139.495 37.8732 139.536 37.8542C139.597 37.8366 139.74 37.9098 139.72 37.8366C139.7 37.7625 139.7 37.7625 139.74 37.8172C139.802 37.8908 139.802 37.8732 139.883 37.7073C139.945 37.578 139.945 37.578 139.883 37.6522C139.843 37.6888 139.802 37.7073 139.781 37.6888C139.659 37.5595 139.761 37.4496 140.027 37.4126C140.127 37.3203 140.127 37.3203 140.148 37.4126ZM139.046 38.2963C139.027 38.2597 138.25 39.0897 138.25 39.1449C138.25 39.163 138.475 39.0897 138.516 39.0341C138.557 38.9971 138.842 38.5735 138.904 38.5174C138.945 38.4808 139.067 38.2963 139.046 38.2963ZM137.842 39.4583C137.761 39.4954 137.659 39.5686 137.639 39.5871C137.557 39.6794 137.619 39.6604 137.721 39.5871L137.924 39.4393C137.985 39.4027 137.965 39.4027 137.842 39.4583ZM138.476 39.3475C138.476 39.366 138.496 39.3841 138.536 39.366C138.557 39.3475 138.578 39.31 138.578 39.2924C138.578 39.2733 138.557 39.2557 138.536 39.2733C138.517 39.2924 138.476 39.3294 138.476 39.3475ZM134.618 37.19C134.557 37.3193 134.557 37.3193 134.659 37.2266C134.761 37.1533 134.801 37.0787 134.72 37.0787C134.699 37.0787 134.659 37.1348 134.618 37.19ZM137.598 39.2918C137.557 39.2918 137.516 39.347 137.495 39.4021L137.618 39.3094L137.598 39.2918ZM137.76 39.6428C137.74 39.6428 137.74 39.6604 137.74 39.697C137.74 39.7165 137.76 39.7355 137.78 39.7355C137.822 39.7355 137.822 39.7165 137.801 39.697C137.801 39.6604 137.76 39.6428 137.76 39.6428ZM137.536 39.4949L137.638 39.4022C137.842 39.2187 138.312 39.1812 138.148 39.0519L138.291 38.9601C138.332 38.9049 139.108 38.0383 139.108 38.0193C139.108 38.0017 139.067 38.0193 139.006 38.0749L137.944 39.0519L137.618 39.3095C137.618 39.329 137.598 39.3656 137.598 39.4022L137.536 39.4949ZM133.597 38.4803C133.556 38.5169 133.535 38.5354 133.556 38.5354C133.577 38.5354 133.618 38.5169 133.638 38.4803C133.679 38.4436 133.699 38.4061 133.679 38.4061L133.597 38.4803ZM134.373 37.5219C134.311 37.6322 134.311 37.6322 134.373 37.5404C134.434 37.5029 134.454 37.4292 134.454 37.4116C134.454 37.356 134.434 37.3926 134.373 37.5219ZM133.495 38.6104C133.475 38.6289 133.433 38.647 133.433 38.647C133.433 38.6655 133.454 38.6655 133.495 38.6655C133.516 38.6655 133.535 38.647 133.535 38.6289C133.535 38.5918 133.516 38.5918 133.495 38.6104ZM134.046 37.8724C134.026 37.909 134.005 37.9651 134.005 37.9827C134.005 38.0017 134.026 38.0017 134.046 37.9651C134.086 37.9275 134.107 37.8724 134.107 37.8534C134.107 37.8358 134.086 37.8358 134.046 37.8724ZM139.823 37.2841C139.802 37.2841 139.761 37.3207 139.74 37.3573C139.72 37.4129 139.72 37.4129 139.781 37.3759C139.863 37.3013 139.883 37.2841 139.823 37.2841ZM133.311 36.7657C133.373 36.655 133.373 36.655 133.291 36.7467C133.25 36.7843 133.209 36.8394 133.209 36.876C133.209 36.9321 133.229 36.895 133.311 36.7657ZM139.557 37.6514C139.619 37.6699 139.7 37.688 139.619 37.5406C139.659 37.5221 139.659 37.5031 139.659 37.4855C139.639 37.4665 139.577 37.5031 139.516 37.5772C139.475 37.6514 139.373 37.7431 139.312 37.8164C139.251 37.8724 139.21 37.9457 139.21 37.9651C139.251 38.0569 139.659 37.8164 139.557 37.6514ZM134.107 35.7887C134.189 35.6965 134.189 35.6599 134.148 35.6784C134.107 35.6965 134.046 35.7336 134.026 35.7887C133.943 35.8995 133.862 35.9547 133.841 35.8814C133.821 35.8629 133.802 35.8629 133.761 35.8995C133.74 35.918 133.761 35.9732 133.782 35.9732C133.841 36.0098 133.475 36.4158 133.229 36.6554C133.209 36.692 133.209 36.7105 133.229 36.7105C133.271 36.7105 133.964 35.9922 134.107 35.7887ZM139.108 38.131C139.127 38.1129 139.148 38.0578 139.148 38.0203C139.127 38.0026 139.108 38.0203 139.087 38.0759C139.067 38.1496 139.067 38.1676 139.108 38.131ZM139.229 38.2039C139.291 38.1487 139.312 38.0936 139.312 38.075C139.271 38.057 139.127 38.2039 139.127 38.2595C139.127 38.2961 139.169 38.2595 139.229 38.2039ZM129.66 38.0203C129.64 38.0203 129.598 38.0203 129.598 38.0027L129.232 38.2419C129.232 38.2604 129.252 38.2604 129.252 38.279C129.252 38.297 129.681 38.0203 129.66 38.0203ZM129.191 38.259C129.171 38.259 129.15 38.2956 129.15 38.2956L129.232 38.2404C129.232 38.2404 129.211 38.2404 129.191 38.259ZM129.028 38.4436C129.007 38.406 128.966 38.4616 128.926 38.5353C128.945 38.5168 128.987 38.4987 129.007 38.4987C129.047 38.4987 129.047 38.4802 129.028 38.4436ZM130.15 37.6711C130.15 37.6711 130.089 37.6892 130.028 37.7258C129.987 37.7629 129.966 37.8004 129.987 37.8004C130.068 37.8004 130.191 37.7077 130.15 37.6711ZM128.926 38.5369C128.885 38.5559 128.864 38.5744 128.864 38.611C128.864 38.611 128.885 38.611 128.885 38.5925C128.885 38.5744 128.905 38.5559 128.926 38.5369ZM122.07 38.0203C122.05 38.0203 122.009 38.0203 122.009 38.0027L121.641 38.2419C121.641 38.2604 121.662 38.2604 121.662 38.279C121.662 38.297 122.091 38.0203 122.07 38.0203ZM121.437 38.4436C121.416 38.406 121.376 38.4616 121.335 38.5353C121.355 38.5168 121.396 38.4987 121.416 38.4987C121.458 38.4987 121.458 38.4802 121.437 38.4436ZM122.56 37.6711C122.56 37.6711 122.499 37.6892 122.438 37.7258C122.397 37.7629 122.376 37.8004 122.397 37.8004C122.478 37.8004 122.601 37.7077 122.56 37.6711ZM121.6 38.259C121.58 38.259 121.56 38.2956 121.56 38.2956L121.641 38.2404C121.641 38.2404 121.62 38.2404 121.6 38.259ZM121.335 38.5369C121.294 38.5559 121.273 38.5744 121.273 38.611C121.273 38.611 121.294 38.611 121.294 38.5925C121.294 38.5744 121.314 38.5559 121.335 38.5369ZM112.887 34.831C112.866 34.8129 112.846 34.831 112.846 34.8495C112.846 34.8866 112.826 34.8866 112.785 34.8676C112.744 34.8495 112.744 34.8495 112.764 34.8866C112.805 34.9417 112.887 34.9598 112.907 34.9051C112.928 34.8676 112.928 34.8495 112.887 34.831ZM112.764 35.0329C112.805 34.9587 112.723 34.9772 112.621 35.0699C112.581 35.1246 112.519 35.1436 112.499 35.1436C112.479 35.1246 112.458 35.1436 112.479 35.1802C112.499 35.2358 112.519 35.2358 112.621 35.1622C112.683 35.1246 112.764 35.0699 112.764 35.0329ZM111.764 35.4199C111.846 35.3458 112.172 34.995 112.172 34.9769C112.172 34.9584 112.193 34.9403 112.234 34.9403C112.275 34.9403 112.316 34.9217 112.316 34.9037C112.316 34.8851 112.356 34.8295 112.438 34.8114C112.56 34.7373 112.601 34.6636 112.479 34.6636C112.417 34.6636 111.438 35.5669 111.274 35.7698C111.213 35.8435 111.091 35.9918 111.01 36.0651C110.948 36.1388 110.887 36.2314 110.887 36.2314C110.887 36.3047 110.743 36.3964 110.682 36.3788C110.642 36.3598 110.642 36.3598 110.662 36.3964C110.682 36.4154 110.601 36.599 110.478 36.7843C110.356 36.9864 110.254 37.1713 110.254 37.1899C110.254 37.2265 110.234 37.2265 110.192 37.2265C110.172 37.2079 110.152 37.1532 110.172 37.1157C110.192 37.0615 110.172 37.0054 110.152 36.9864C110.111 36.9688 110.09 36.9864 110.111 37.0239C110.172 37.0786 110.07 37.1899 109.968 37.1713C109.927 37.1532 109.927 37.1713 109.927 37.245C109.968 37.3368 110.05 37.3558 110.05 37.2631C110.05 37.2265 110.07 37.1899 110.09 37.1899C110.132 37.1899 110.152 37.2265 110.152 37.245C110.152 37.3368 109.744 38.038 109.703 38.019C109.683 38.0014 109.662 38.019 109.662 38.0565C109.662 38.0931 109.641 38.1858 109.621 38.259C109.581 38.4616 109.662 38.4249 109.764 38.2224C109.825 38.1117 109.866 38.038 109.887 38.0565C109.907 38.0746 109.887 38.1117 109.866 38.1663C109.785 38.2956 109.805 38.3517 109.887 38.2224C109.907 38.1483 109.927 38.0565 109.927 38.0014C109.907 37.9453 109.907 37.9087 109.948 37.9087C109.968 37.9087 110.009 37.872 110.009 37.8354C110.009 37.7988 110.029 37.7794 110.05 37.7794C110.132 37.7794 110.111 37.9453 109.948 38.2405C109.785 38.5728 109.744 38.6094 109.621 38.4986C109.539 38.4249 109.539 38.4249 109.581 38.5167C109.601 38.5909 109.581 38.6645 109.56 38.7197C109.519 38.7753 109.519 38.7929 109.56 38.7753C109.641 38.7387 109.621 38.8314 109.539 38.9046C109.499 38.9222 109.437 39.0701 109.417 39.2184C109.376 39.3653 109.336 39.5127 109.315 39.5312C109.294 39.5678 109.254 39.6786 109.234 39.8079L109.213 40.0109L109.458 39.5863C109.581 39.3653 109.703 39.1623 109.723 39.1623C109.744 39.1442 109.744 39.1257 109.723 39.1067C109.723 39.0891 109.723 39.0701 109.764 39.0701C109.805 39.0701 109.805 39.0149 109.785 38.9598C109.764 38.8856 109.785 38.8314 109.805 38.8124C109.845 38.7929 109.845 38.8314 109.825 38.868C109.785 38.9964 109.968 38.7021 110.07 38.4986L110.478 37.7613C110.601 37.5583 110.703 37.3743 110.743 37.3558C110.764 37.3368 110.846 37.2265 110.907 37.0786C110.968 36.9498 111.05 36.8395 111.07 36.8395C111.111 36.8395 111.172 36.7658 111.213 36.6916C111.254 36.599 111.336 36.5081 111.377 36.4891C111.438 36.4525 111.458 36.4154 111.438 36.3964C111.438 36.3788 111.458 36.3598 111.499 36.3598C111.54 36.3598 111.561 36.3232 111.54 36.3047C111.54 36.2861 111.561 36.2681 111.601 36.2681C111.642 36.2681 111.663 36.2495 111.663 36.212C111.663 36.1944 111.642 36.1754 111.601 36.1944C111.561 36.2314 111.561 36.212 111.621 36.1568C111.642 36.1202 111.724 36.0827 111.784 36.0827C111.866 36.0827 111.886 36.0827 111.825 36.0461C111.744 35.9918 111.744 35.9918 111.886 35.9728C111.907 35.9728 112.172 35.6781 112.172 35.6595C112.152 35.6225 112.234 35.5302 112.316 35.4385C112.397 35.3648 112.458 35.2726 112.438 35.2536C112.417 35.1989 111.724 35.8435 111.724 35.8992C111.724 35.9543 111.458 36.212 111.417 36.212C111.397 36.212 111.438 36.1202 111.54 35.9918C111.621 35.8811 111.703 35.7698 111.724 35.7698C111.744 35.7698 111.805 35.6962 111.866 35.6044C111.928 35.5117 112.254 35.1618 112.275 35.1433C112.316 35.1243 112.316 35.1243 112.275 35.1243C112.234 35.1243 111.928 35.4385 111.886 35.4932C111.784 35.641 111.724 35.6781 111.642 35.6781C111.519 35.6781 111.561 35.5859 111.764 35.4199ZM109.804 37.614C109.825 37.7066 109.825 37.7066 109.845 37.614C109.845 37.5773 109.886 37.5222 109.927 37.5032C109.948 37.4856 109.948 37.449 109.927 37.4295C109.886 37.3929 109.804 37.5032 109.804 37.614ZM110.662 36.2325C110.703 36.3242 110.805 36.3423 110.764 36.2505C110.764 36.2325 110.723 36.1954 110.703 36.1954C110.662 36.1764 110.642 36.1954 110.662 36.2325ZM111.131 35.7163C111.131 35.7163 111.152 35.7344 111.172 35.7344C111.213 35.7344 111.233 35.7163 111.233 35.6792C111.233 35.6607 111.213 35.6421 111.172 35.6607C111.152 35.6792 111.131 35.6973 111.131 35.7163ZM111.376 35.4751C111.376 35.4931 111.397 35.4931 111.417 35.4931C111.458 35.4751 111.478 35.4565 111.478 35.4385C111.478 35.4199 111.458 35.4199 111.417 35.4199C111.397 35.4199 111.376 35.4385 111.376 35.4751ZM108.662 37.3751C108.641 37.3376 108.641 37.3566 108.641 37.4298C108.641 37.4859 108.641 37.5035 108.662 37.4859C108.682 37.4493 108.682 37.3932 108.662 37.3751ZM108.641 37.6893C108.6 37.56 108.56 37.6527 108.498 37.8913C108.498 37.984 108.438 38.2422 108.376 38.4452C108.315 38.6477 108.294 38.8331 108.294 38.8697C108.315 38.9063 108.294 38.9429 108.274 38.9429C108.233 38.9614 108.213 39.0532 108.213 39.164C108.213 39.2743 108.192 39.367 108.172 39.3484C108.172 39.3484 108.131 39.4036 108.111 39.4963L108.049 39.7173C108.029 39.7363 108.009 39.7905 108.009 39.8272C107.927 40.2517 107.845 40.6206 107.805 40.7309C107.744 40.8602 107.763 40.8602 107.825 40.7865C107.865 40.7309 107.886 40.6767 107.886 40.6396C107.886 40.6206 107.927 40.6206 107.947 40.6572C107.988 40.7133 107.988 40.7133 107.967 40.6206C107.947 40.5645 107.947 40.5103 107.988 40.4727L108.09 40.1775L108.233 39.5329C108.438 38.7404 108.6 38.0206 108.6 37.8913C108.6 37.8371 108.6 37.781 108.621 37.781C108.641 37.781 108.662 37.7444 108.641 37.6893ZM107.379 38.5924C107.358 38.5924 107.317 38.5924 107.297 38.6294C107.235 38.6661 107.256 38.6846 107.317 38.6475C107.358 38.6475 107.399 38.6109 107.379 38.5924ZM104.255 36.8775C104.255 36.8224 104.153 36.7672 104.072 36.7672C104.031 36.7672 103.867 37.2279 103.867 37.3572C103.867 37.3757 103.949 37.3011 104.051 37.1727C104.173 37.0434 104.255 36.9141 104.255 36.8775ZM103.807 36.9697C103.807 36.9331 103.684 37.0624 103.663 37.1357C103.602 37.264 103.684 37.2274 103.766 37.099C103.786 37.043 103.807 36.9874 103.807 36.9697ZM103.684 37.5961C103.725 37.578 103.745 37.5228 103.745 37.4302C103.725 37.2642 103.663 37.2091 103.663 37.3569C103.663 37.4302 103.643 37.5038 103.643 37.5414C103.623 37.5961 103.623 37.6146 103.684 37.5961ZM103.766 38.1123C103.745 38.1123 103.684 38.1865 103.643 38.2782C103.582 38.37 103.521 38.4622 103.501 38.4622C103.48 38.4622 103.48 38.4807 103.48 38.4993C103.501 38.5174 103.439 38.757 103.358 39.0341C103.276 39.3099 103.194 39.6426 103.174 39.7529C103.154 39.8637 103.112 39.974 103.092 40.0296C103.092 40.0667 103.092 40.1033 103.112 40.1033C103.154 40.1033 103.194 39.993 103.215 39.8637C103.296 39.587 103.419 39.219 103.48 39.1073L103.766 38.1865C103.807 38.1304 103.807 38.1123 103.766 38.1123ZM103.072 39.2191C103.072 39.2367 103.092 39.2557 103.133 39.2557C103.154 39.2557 103.174 39.2367 103.174 39.2191C103.174 39.1816 103.154 39.163 103.133 39.163C103.092 39.163 103.072 39.1816 103.072 39.2191ZM103.215 38.868C103.174 38.9783 103.153 39.0891 103.174 39.0891C103.194 39.0891 103.215 39.0515 103.215 39.0149C103.215 38.9783 103.235 38.9412 103.255 38.9598C103.276 38.9783 103.296 38.9046 103.296 38.8124C103.317 38.5909 103.317 38.5909 103.215 38.868ZM103.031 38.4441C103.072 38.389 103.419 37.5408 103.419 37.4491C103.419 37.412 103.256 37.5955 103.092 37.7995C103.01 37.9278 102.929 38.0386 102.929 38.0571C102.929 38.0752 102.908 38.1123 102.888 38.1123C102.868 38.1123 102.807 38.167 102.766 38.2411C102.705 38.3329 102.623 38.4441 102.561 38.4993C102.521 38.5549 102.48 38.5915 102.5 38.5915C102.521 38.5915 102.459 38.6466 102.378 38.7393C102.276 38.813 102.194 38.8862 102.194 38.9228C102.194 38.9419 102.133 39.0155 102.072 39.0897C101.99 39.1629 101.929 39.2732 101.909 39.3293C101.909 39.4025 101.888 39.4581 101.868 39.4767C101.827 39.4952 101.806 39.5318 101.786 39.587C101.745 39.6792 101.827 39.6792 101.95 39.606C101.99 39.5684 102.092 39.4767 102.154 39.384L102.541 38.997C102.684 38.8686 102.827 38.7027 102.868 38.6466C102.908 38.5734 102.99 38.4993 103.031 38.4441ZM101.724 39.384C101.745 39.384 101.806 39.366 101.847 39.3474C101.888 39.3293 101.908 39.3099 101.867 39.3099C101.847 39.3099 101.786 39.3293 101.745 39.3474C101.704 39.366 101.704 39.384 101.724 39.384ZM101.48 39.4218L101.99 38.8866C102.051 38.7939 102.133 38.7206 102.153 38.7206C102.174 38.7206 102.194 38.703 102.174 38.684C102.153 38.6655 102.174 38.6103 102.235 38.5552C102.276 38.5176 102.357 38.4259 102.398 38.3527C102.419 38.2785 102.52 38.1673 102.582 38.1126C102.684 38.0199 102.725 37.8906 102.623 37.9462C102.582 37.9657 102.582 37.9657 102.603 37.9281C102.623 37.9096 102.664 37.8906 102.684 37.9096C102.704 37.9096 102.745 37.8906 102.786 37.854C102.848 37.7803 102.848 37.7803 102.766 37.7998C102.684 37.8364 102.684 37.8364 102.745 37.7071L102.929 37.3933C103.031 37.1908 103.031 37.1908 103.01 37.3567C102.99 37.467 102.99 37.486 103.031 37.4123C103.051 37.3752 103.072 37.264 103.072 37.2089C103.072 37.1356 103.112 37.0796 103.133 37.0624C103.174 37.043 103.174 37.0624 103.154 37.1166C103.154 37.1723 103.154 37.2089 103.174 37.2089C103.215 37.2089 103.46 36.877 103.46 36.8404C103.46 36.8219 103.501 36.7853 103.541 36.7477C103.582 36.7111 103.623 36.656 103.623 36.6194C103.623 36.5267 103.541 36.5828 103.398 36.7853C103.358 36.8585 103.296 36.896 103.296 36.896C103.276 36.877 103.337 36.7667 103.439 36.6374C103.643 36.3974 103.663 36.2324 103.541 35.7708C103.501 35.5127 103.48 35.5127 103.337 35.5127C103.194 35.5312 102.725 35.7527 102.664 35.8259C102.643 35.8445 102.541 35.9372 102.419 35.9928C102.296 36.066 102.194 36.1212 102.194 36.1578C102.194 36.1763 102.133 36.2324 102.051 36.269C101.827 36.3608 100.48 37.6329 100.48 37.7437C100.48 37.7622 100.398 37.873 100.316 37.9657C100.031 38.3332 99.6832 38.9232 99.6832 39.0525C99.6832 39.1076 99.6629 39.1632 99.6425 39.2003C99.541 39.2925 99.3778 39.8088 99.2958 40.3061C99.2342 40.6013 99.1938 40.8409 99.1938 40.8409C99.1938 40.8594 99.2342 40.8594 99.2958 40.8594C99.3366 40.8594 99.4594 40.7858 99.541 40.7125C99.6425 40.6388 99.6832 40.6013 99.6629 40.6388C99.6425 40.6759 99.6832 40.6565 99.7449 40.5832C99.7852 40.5272 99.8265 40.5095 99.8056 40.5466C99.7852 40.5832 99.8056 40.5638 99.8672 40.5272C99.9289 40.472 99.9488 40.4169 99.9488 40.3988C99.9289 40.3802 99.9488 40.3622 99.9692 40.3802C99.9896 40.3988 100.072 40.3622 100.133 40.3061C100.194 40.2509 100.296 40.1963 100.337 40.1768C100.377 40.1592 100.418 40.1226 100.418 40.1036C100.418 40.0484 100.5 39.9557 100.745 39.7356C100.807 39.6605 100.847 39.6239 100.807 39.6795C100.745 39.7532 100.745 39.7722 100.827 39.6971C100.868 39.6795 100.909 39.6239 100.909 39.5873C100.909 39.5687 100.969 39.4955 101.01 39.4394C101.071 39.3662 101.112 39.3477 101.092 39.3843C101.051 39.4584 101.092 39.4218 101.357 39.1266C101.418 39.071 101.5 38.9607 101.561 38.8689C101.745 38.5737 102.051 38.26 102.174 38.26C102.235 38.26 102.276 38.2785 102.255 38.2966C102.235 38.316 102.194 38.316 102.153 38.316C102.092 38.2785 101.929 38.5176 101.969 38.5552C102.01 38.5918 101.766 38.9056 101.683 38.9422C101.602 38.9792 101.112 39.5687 101.133 39.6063C101.153 39.6429 101.133 39.6605 101.092 39.6795C101.051 39.6971 101.01 39.7722 101.01 39.8264C101.01 39.9191 100.949 40.0299 100.765 40.1768C100.643 40.3061 100.541 40.4169 100.581 40.4169C100.623 40.4169 100.704 40.3622 100.765 40.3061C100.827 40.2509 100.909 40.2134 100.949 40.2134C100.99 40.2329 101.01 40.2134 101.01 40.1963C101.01 40.1592 101.031 40.1402 101.071 40.1402C101.133 40.1402 101.459 39.7898 101.459 39.7356C101.459 39.7166 101.418 39.7166 101.378 39.7356C101.296 39.7532 101.296 39.7532 101.378 39.6795L101.541 39.6063C101.602 39.6063 101.725 39.4955 101.683 39.4584C101.683 39.4394 101.622 39.4584 101.582 39.5136C101.521 39.5502 101.48 39.5873 101.459 39.5873C101.398 39.5687 101.255 39.6795 101.255 39.7356C101.255 39.7532 101.235 39.7898 101.194 39.8088C101.051 39.8459 101.112 39.7898 101.48 39.4218ZM100.398 40.3628C100.459 40.3628 100.969 39.9012 100.969 39.8466C100.969 39.8095 100.806 39.9198 100.622 40.0857L100.194 40.4546C100.153 40.4727 100.133 40.5278 100.133 40.5644C100.133 40.5839 100.194 40.5644 100.255 40.4912C100.316 40.4175 100.377 40.3628 100.398 40.3628ZM99.1936 37.227C99.1936 37.1904 99.214 37.1719 99.2339 37.1904C99.2548 37.1904 99.3364 37.1163 99.3975 37.006C99.4796 36.8957 99.5203 36.8215 99.4592 36.8581C99.4179 36.8957 99.3975 36.8957 99.3975 36.8767C99.3975 36.8215 99.1528 37.1719 98.9077 37.5589C98.6426 38.0195 98.7038 38.0571 98.9892 37.5955C99.1116 37.4296 99.1936 37.2456 99.1936 37.227ZM98.7041 37.9657C98.6837 37.9657 98.6633 38.0024 98.6429 38.0575L98.5817 38.2234C98.5201 38.3333 98.5817 38.2786 98.6837 38.1127C98.7244 38.039 98.7448 37.9657 98.7041 37.9657ZM100.602 35.7528C100.643 35.808 100.724 35.808 100.724 35.7528C100.724 35.7343 100.765 35.6972 100.806 35.6972C100.928 35.6606 101.255 35.3835 101.255 35.3103C101.255 35.2922 101.296 35.2546 101.316 35.2546C101.357 35.2366 101.357 35.2176 101.296 35.2176C101.173 35.2176 100.561 35.6792 100.602 35.7528ZM103.561 36.8227C103.48 36.9515 103.378 37.0803 103.378 37.0803C103.316 37.1174 103.214 37.3014 103.255 37.3014C103.276 37.3014 103.398 37.173 103.5 37.0256C103.704 36.7675 103.806 36.6007 103.745 36.6007C103.745 36.6007 103.663 36.6934 103.561 36.8227ZM102.766 42.8498C102.766 42.8132 102.766 42.8132 102.725 42.8688C102.705 42.9231 102.684 42.9981 102.684 43.0348C102.684 43.0714 102.705 43.0714 102.725 43.0158C102.766 42.9615 102.766 42.8865 102.766 42.8498ZM102.643 43.2365C102.603 43.2365 102.582 43.274 102.582 43.2921C102.582 43.3658 102.623 43.3482 102.643 43.274C102.664 43.2365 102.664 43.2189 102.643 43.2365ZM102.541 42.5185C102.541 42.4078 102.48 42.4629 102.459 42.6103C102.439 42.703 102.439 42.7211 102.48 42.6654C102.52 42.6288 102.541 42.5737 102.541 42.5185ZM102.459 42.7765C102.418 42.7399 102.398 42.7765 102.378 42.9058L102.276 43.1635C102.234 43.2562 102.174 43.4592 102.153 43.6251L102.051 44.1038C101.99 44.2697 101.99 44.343 102.031 44.3064C102.051 44.2887 102.112 44.0853 102.174 43.8652C102.336 43.3113 102.316 43.3489 102.418 43.0527C102.459 42.9234 102.48 42.7951 102.459 42.7765ZM102.235 44.5828C102.235 44.5643 102.235 44.5276 102.215 44.5091C102.215 44.491 102.194 44.5091 102.194 44.5643C102.194 44.6194 102.215 44.6194 102.235 44.5828ZM102.174 44.7686C102.153 44.7496 102.153 44.7862 102.153 44.8228C102.153 44.8789 102.153 44.8974 102.174 44.8599C102.194 44.8228 102.194 44.7862 102.174 44.7686ZM102.133 45.0079C102.133 44.9161 102.133 44.9161 102.092 45.0079C102.072 45.0639 102.051 45.1372 102.051 45.1738C102.051 45.2665 102.051 45.2665 102.092 45.1738C102.113 45.1372 102.133 45.0639 102.133 45.0079ZM102.051 45.3207C102.051 45.2836 102.031 45.3017 101.99 45.3383C101.969 45.3754 101.949 45.431 101.949 45.4495C101.949 45.4676 101.969 45.4676 101.99 45.431C102.031 45.3944 102.051 45.3383 102.051 45.3207ZM101.072 47.3556C101.064 47.3482 101.076 47.3269 101.088 47.3051C101.052 47.3681 101.024 47.4163 101.011 47.4321C101.047 47.3881 101.072 47.3556 101.072 47.3556ZM101.005 47.4381C100.999 47.4419 100.999 47.4358 101.01 47.4038C101.026 47.3501 101.042 47.301 101.06 47.2514C101.151 47.0646 101.232 46.8802 101.216 46.8658C101.235 46.8459 101.255 46.775 101.255 46.7217C101.255 46.6114 101.235 46.6114 101.214 46.6846L101.112 46.9427C101.072 47.0159 100.971 47.2704 100.89 47.4905C100.85 47.5563 100.813 47.6143 100.787 47.6504C100.77 47.6782 100.803 47.6425 100.861 47.5864C100.858 47.6064 100.874 47.5883 100.898 47.5498C100.903 47.5457 100.904 47.5443 100.909 47.5392C100.95 47.5026 100.978 47.4692 101.005 47.4381ZM100.746 47.7433C100.705 47.7433 100.623 47.8175 100.582 47.8912C100.521 47.9825 100.459 48.0562 100.439 48.0562C100.42 48.0562 100.399 48.0562 100.42 48.0752C100.439 48.0928 100.399 48.1488 100.338 48.1855C100.276 48.2411 100.256 48.2781 100.297 48.2781C100.317 48.2781 100.42 48.1855 100.521 48.0752C100.623 47.9644 100.705 47.8726 100.705 47.8351C100.705 47.8175 100.725 47.7799 100.766 47.7799C100.807 47.7619 100.807 47.7433 100.746 47.7433ZM100.175 48.1485L100.379 47.9455C100.42 47.9089 100.46 47.8538 100.46 47.8348C100.46 47.8172 100.5 47.7796 100.542 47.743C100.582 47.7245 100.623 47.6879 100.623 47.6688C100.623 47.6512 100.684 47.5219 100.787 47.3926C100.798 47.3759 100.803 47.3704 100.813 47.3574C100.804 47.3519 100.799 47.3366 100.807 47.2935C100.827 47.1827 100.848 47.1095 100.868 47.1095C100.888 47.1095 100.929 47.0358 100.929 46.9436C100.949 46.8513 101.01 46.6664 101.071 46.539C101.073 46.5348 101.074 46.5306 101.075 46.5269C101.076 46.5269 101.076 46.526 101.076 46.526H101.076C101.114 46.4189 101.132 46.3179 101.112 46.335C101.071 46.3536 101.071 46.335 101.092 46.2618C101.112 46.2057 101.112 46.1691 101.092 46.1877C101.032 46.2428 100.672 47.198 100.664 47.3421C100.747 47.173 100.842 46.9806 100.936 46.7966C100.911 46.8611 100.887 46.9264 100.868 46.9871C100.868 47.0789 100.807 47.1892 100.746 47.2448C100.684 47.3009 100.664 47.3375 100.684 47.3375C100.705 47.3375 100.705 47.356 100.664 47.3741C100.661 47.3764 100.658 47.3838 100.654 47.3871C100.648 47.4024 100.64 47.4107 100.631 47.4158C100.63 47.4181 100.628 47.4191 100.626 47.4214C100.627 47.4204 100.628 47.42 100.628 47.4181C100.626 47.4191 100.625 47.4228 100.623 47.4228C100.595 47.4357 100.58 47.4765 100.571 47.5233C100.543 47.5544 100.509 47.5882 100.48 47.6146C100.358 47.6688 100.358 47.6879 100.358 47.8172C100.358 47.8538 100.338 47.8723 100.297 47.8538C100.277 47.8348 100.256 47.8348 100.277 47.8723C100.297 47.8908 100.175 48.0192 100.031 48.1675C99.7658 48.3886 99.7658 48.4071 99.909 48.3325C100.011 48.2959 100.133 48.2041 100.175 48.1485ZM99.8269 48.13C99.8065 48.0915 99.9905 47.9265 100.072 47.9265C100.092 47.9265 100.113 47.8899 100.113 47.8528C100.113 47.8436 100.117 47.8362 100.119 47.8273C100.142 47.8074 100.166 47.7875 100.191 47.7546C100.218 47.7342 100.25 47.7045 100.276 47.6679C100.345 47.5743 100.343 47.5687 100.295 47.5887C100.377 47.438 100.474 47.2161 100.602 46.8875C100.99 45.873 101.071 45.6343 101.561 44.0479L101.827 43.1447C101.847 43.0895 101.725 43.1813 101.521 43.3657C101.357 43.5316 101.214 43.6424 101.235 43.6243C101.276 43.5506 101.174 43.5506 101.133 43.6058C101.112 43.6243 101.092 43.6424 101.071 43.6243C101.051 43.6243 100.99 43.6609 100.949 43.7351C100.909 43.8259 100.643 44.1221 100.357 44.4168C100.01 44.7677 99.704 45.1171 99.4593 45.486C99.2754 45.708 99.153 45.9105 99.153 45.9291C99.153 45.9471 99.0302 46.1126 98.9078 46.316C98.8351 46.4199 98.773 46.5227 98.7294 46.6015C98.6678 46.8963 98.6293 47.496 98.6636 47.7606C98.7044 48.0373 98.8267 48.2032 98.9903 48.1666L99.2967 48.0549C99.3986 48.0007 99.5414 47.9631 99.6026 47.9446C99.7268 47.9103 99.8185 47.9112 99.8968 47.908C99.8524 47.9423 99.8074 47.9775 99.7657 48.0007L99.5011 48.1842C99.4598 48.2398 99.3579 48.2769 99.2758 48.295C99.1739 48.3135 99.1331 48.3501 99.1331 48.3877C99.1331 48.498 99.3778 48.4428 99.6438 48.295C99.7657 48.2208 99.8473 48.1476 99.8269 48.13ZM98.3772 45.3396C98.418 45.303 98.4996 45.1737 98.5816 45.0453C98.6428 44.916 98.7448 44.7867 98.7855 44.7501C98.8268 44.7316 98.8472 44.694 98.8472 44.6574C98.8472 44.6398 98.8064 44.6769 98.7244 44.7501C98.6632 44.8233 98.602 44.8979 98.602 44.916C98.602 44.9345 98.4996 45.0819 98.3772 45.2474C98.2553 45.4142 98.1733 45.5801 98.1733 45.5977C98.1733 45.607 98.1622 45.6269 98.146 45.6487C98.0955 45.7683 98.0255 45.924 97.9393 46.1085C98.0278 45.9416 98.1186 45.7915 98.1529 45.746C98.2141 45.6724 98.2757 45.5801 98.2961 45.5241C98.3161 45.4508 98.3564 45.3767 98.3772 45.3396ZM97.6638 46.6959C97.6837 46.6426 97.6995 46.6042 97.7189 46.5532L97.6017 46.6848C97.6276 46.6371 97.6897 46.5268 97.762 46.4058C97.7671 46.4039 97.7727 46.4039 97.7769 46.4026C97.7829 46.3859 97.7894 46.3697 97.7954 46.3539C97.795 46.353 97.7945 46.353 97.7936 46.353C97.7959 46.3497 97.7977 46.3465 97.7996 46.3432C97.8635 46.1792 97.921 46.0346 97.9738 45.9094L97.7037 46.3715C97.7027 46.372 97.7027 46.3729 97.7023 46.3738C97.686 46.3798 97.6638 46.3849 97.6638 46.397C97.6638 46.397 97.68 46.4002 97.6851 46.403C97.5169 46.6848 97.6805 46.5254 97.6017 46.6848C97.4997 46.8507 97.6837 46.6227 97.6638 46.6959ZM98.9079 45.4503C98.9079 45.5054 99.1118 45.2844 99.1531 45.1926C99.1735 45.1555 99.1735 45.118 99.1531 45.118C99.1118 45.118 98.9079 45.4137 98.9079 45.4503ZM99.1529 44.2701C99.1733 44.2701 99.2141 44.2525 99.2548 44.215C99.2752 44.1783 99.2956 44.1417 99.2752 44.1417L99.1937 44.215C99.1529 44.2525 99.1529 44.2701 99.1529 44.2701ZM99.1529 44.0117C99.1733 44.0117 99.2141 43.9751 99.2548 43.938C99.2752 43.9014 99.2956 43.8824 99.2752 43.8824C99.2752 43.8824 99.234 43.9014 99.1937 43.938C99.1529 43.9751 99.1529 44.0117 99.1529 44.0117ZM99.2547 45.0454C99.2547 45.064 99.2751 45.064 99.2955 45.0079L99.3974 44.8981C99.4795 44.8429 100.112 44.1603 100.54 43.6806L101.112 43.0725C101.296 42.9066 101.438 42.7407 101.438 42.7222C101.438 42.7041 101.5 42.648 101.581 42.5748C101.683 42.5007 101.745 42.427 101.745 42.3904C101.745 42.3718 101.602 42.483 101.438 42.63C101.112 42.9432 100.622 43.4405 100.622 43.4966C100.622 43.4966 100.54 43.5698 100.459 43.6625C100.377 43.7367 100.214 43.9026 100.112 44.031L99.5814 44.5843C99.3775 44.7692 99.2338 44.9528 99.2547 45.0454ZM99.3364 44.0488C99.3364 44.1229 99.3776 44.1039 99.4179 44.0302C99.4179 43.9936 99.4179 43.9755 99.3975 43.9936C99.3572 43.9936 99.3364 44.0302 99.3364 44.0488ZM99.5407 43.8823C99.5815 43.8457 99.6019 43.8263 99.5815 43.8086C99.5611 43.7896 99.5407 43.8086 99.5203 43.8647C99.4999 43.9189 99.4999 43.9189 99.5407 43.8823ZM99.6423 43.6986C99.6423 43.7362 99.6627 43.7362 99.7039 43.6986C99.7447 43.662 99.785 43.6254 99.7646 43.6254C99.7243 43.5883 99.6423 43.6435 99.6423 43.6986ZM100.174 43.1276C100.174 43.1642 100.214 43.1276 100.276 43.0724C100.316 43.0168 100.357 42.9626 100.337 42.9431C100.316 42.9241 100.174 43.0724 100.174 43.1276ZM100.439 42.9059C100.459 42.9059 100.52 42.8136 100.623 42.7033L100.786 42.5189L100.602 42.6658C100.459 42.7951 100.377 42.9059 100.439 42.9059ZM100.928 42.0945C100.949 42.0945 100.969 42.0751 101.01 42.0385C101.051 42.0018 101.071 41.9652 101.051 41.9652C101.031 41.9652 100.99 42.0018 100.969 42.0385C100.928 42.0751 100.909 42.0945 100.928 42.0945ZM100.969 42.3346C100.969 42.3902 100.99 42.3717 101.112 42.2243L101.235 42.0765L101.092 42.1877C101.031 42.2428 100.969 42.317 100.969 42.3346ZM101.806 42.2978C101.806 42.3173 101.827 42.3173 101.847 42.3173C101.867 42.3173 101.888 42.2978 101.888 42.2798C101.888 42.2431 101.867 42.2431 101.847 42.2612C101.827 42.2612 101.806 42.2978 101.806 42.2978ZM101.99 44.4362C102.031 44.4182 102.051 44.3996 102.051 44.3811C102.051 44.363 102.031 44.363 101.99 44.363C101.969 44.363 101.949 44.3811 101.949 44.3996C101.949 44.4362 101.969 44.4362 101.99 44.4362ZM101.888 44.7857C101.949 44.6564 101.969 44.5466 101.969 44.5281C101.929 44.4548 101.867 44.4915 101.867 44.6013C101.867 44.6564 101.847 44.7681 101.826 44.8418C101.806 44.9702 101.806 44.9702 101.888 44.7857ZM101.113 47.2601C101.132 47.2328 101.151 47.205 101.174 47.1707C101.235 47.0975 101.297 47.0048 101.297 46.9862C101.297 46.9686 101.368 46.8069 101.444 46.6354C101.385 46.7527 101.226 47.0567 101.113 47.2601ZM101.704 44.4725C101.683 44.4178 101.581 44.657 101.438 45.1C101.296 45.487 101.194 45.8188 101.194 45.8374L101.133 45.9847C101.091 46.1326 101.173 46.2429 101.235 46.1326C101.255 46.096 101.255 46.096 101.214 46.1136C101.133 46.1502 101.153 46.0218 101.235 45.9481C101.275 45.9115 101.296 45.8554 101.296 45.8374C101.296 45.8007 101.316 45.7632 101.459 45.4504C101.5 45.3586 101.541 45.2098 101.541 45.1366C101.52 45.0634 101.541 44.9892 101.561 44.9892C101.622 44.9341 101.724 44.5471 101.704 44.4725ZM101.316 47.2927C101.275 47.3298 101.255 47.4039 101.255 47.4415C101.255 47.5513 101.296 47.5147 101.337 47.3488C101.357 47.2561 101.357 47.238 101.316 47.2927ZM101.357 47.2025C101.378 47.2025 101.418 47.1659 101.439 47.1293C101.48 47.0366 101.439 47.0176 101.378 47.1103C101.337 47.1659 101.316 47.2025 101.357 47.2025ZM101.765 44.9886C101.725 44.9334 101.704 44.9334 101.704 45.0627C101.704 45.1359 101.683 45.2462 101.622 45.3208C101.581 45.3755 101.561 45.4311 101.602 45.4131C101.622 45.3945 101.643 45.3755 101.643 45.3945C101.643 45.4678 101.398 46.2051 101.378 46.2246L101.316 46.2978C101.316 46.3163 101.296 46.3896 101.276 46.4632C101.255 46.5749 101.255 46.5926 101.296 46.5555C101.337 46.5383 101.378 46.4632 101.378 46.4262L101.521 46.0026C101.745 45.3945 101.806 45.0808 101.765 44.9886ZM101.602 46.5748C101.541 46.6657 101.541 46.7217 101.602 46.6847C101.622 46.6847 101.642 46.629 101.642 46.5924C101.642 46.5187 101.642 46.5187 101.602 46.5748ZM101.642 46.4645C101.663 46.4468 101.704 46.3727 101.724 46.299C101.765 46.1141 101.724 46.1507 101.663 46.3542C101.622 46.4468 101.622 46.502 101.642 46.4645ZM101.806 43.9381C101.806 43.9558 101.786 44.0484 101.745 44.1226C101.704 44.2329 101.725 44.4549 101.786 44.4549C101.806 44.4549 101.806 44.4174 101.786 44.3622C101.765 44.3061 101.806 44.1963 101.847 44.1036C101.909 43.9933 101.949 43.8825 101.949 43.8459C101.949 43.7898 101.969 43.7166 102.01 43.6429C102.051 43.5878 102.092 43.4219 102.113 43.2926C102.133 43.1633 102.174 43.0159 102.194 42.9617C102.214 42.9056 102.214 42.85 102.194 42.85C102.153 42.85 101.786 43.8825 101.806 43.9381ZM104.603 35.5311C104.603 35.6052 104.643 35.5867 104.664 35.5125C104.684 35.4574 104.684 35.4393 104.643 35.4574C104.623 35.4759 104.603 35.5125 104.603 35.5311ZM104.603 35.2923C104.603 35.347 104.623 35.347 104.643 35.3104C104.643 35.2923 104.643 35.2548 104.623 35.2367C104.623 35.2177 104.603 35.2367 104.603 35.2923ZM104.684 35.8438C104.664 35.8438 104.643 35.8628 104.643 35.9179C104.664 35.9545 104.664 35.9731 104.684 35.9365C104.705 35.8994 104.705 35.8628 104.684 35.8438ZM114.907 34.2033C113.642 36.1952 113.601 37.1541 113.561 37.2458C113.519 37.3566 113.09 37.1541 113.01 37.0062C112.805 36.5998 112.785 35.9927 112.989 35.4393C113.05 35.2919 112.968 35.2734 112.968 35.2544C112.948 35.2363 112.723 35.4027 112.662 35.4759C112.642 35.494 112.601 35.5125 112.56 35.494C112.519 35.4759 112.519 35.494 112.539 35.5311C112.539 35.5677 112.519 35.6233 112.478 35.6604C112.397 35.716 112.397 35.716 112.417 35.6418C112.438 35.5867 112.438 35.5677 112.397 35.5867C112.376 35.6052 112.356 35.6418 112.376 35.6789C112.397 35.716 112.397 35.7707 112.376 35.7707C112.356 35.7892 111.968 36.1762 111.845 36.324C111.723 36.4714 111.56 36.6192 111.54 36.6558C111.499 36.6744 111.478 36.711 111.499 36.711C111.519 36.711 111.519 36.7295 111.478 36.7666C111.417 36.8037 111.315 36.933 111.233 37.0794L111.029 37.3751C111.029 37.3932 110.948 37.5225 110.866 37.6703C110.785 37.8168 110.682 37.9656 110.662 37.9832C110.621 38.0198 110.601 38.0573 110.601 38.0939C110.601 38.1491 110.05 39.1631 110.009 39.2002C109.988 39.2002 109.948 39.2558 109.948 39.31C109.927 39.3476 109.907 39.3842 109.866 39.3842C109.845 39.3842 109.825 39.4027 109.845 39.4393C109.845 39.4769 109.845 39.532 109.825 39.5686C109.804 39.5872 109.784 39.6238 109.784 39.6428C109.784 39.6428 109.703 39.8087 109.6 39.9931L109.314 40.5465L109.029 41.136C108.927 41.3204 108.805 41.5967 108.763 41.744C108.315 43.1636 108.254 43.2748 108.008 43.2748C107.927 43.2748 107.845 43.2563 107.845 43.2373L107.662 43.1089C107.539 43.0718 107.457 42.9796 107.437 42.8869C107.355 42.7034 107.253 42.6107 107.253 42.74C107.253 42.8137 107.233 42.8327 107.212 42.8137C107.172 42.7951 107.172 42.7215 107.192 42.6292C107.192 42.5555 107.192 42.4823 107.172 42.4823C107.152 42.4823 107.09 42.4262 107.049 42.3711C106.968 42.2789 106.968 42.2422 107.029 42.1319C107.111 42.0203 107.131 41.8919 107.273 41.2092L107.743 39.1816L107.947 38.3525L107.994 38.1426C107.953 38.1815 107.913 38.2186 107.868 38.2598L107.787 38.3331V38.3159C107.787 38.2784 107.684 38.0754 107.684 38.0573C107.684 38.0573 107.725 38.0388 107.766 38.0022C107.807 37.9656 107.909 37.8905 108.052 37.8168C107.868 37.8905 107.725 37.928 107.684 37.928C107.623 37.928 107.643 38.3159 107.684 38.3525C107.704 38.3525 107.664 38.3701 107.603 38.3701C107.541 38.3701 107.501 38.3891 107.521 38.4068C107.541 38.4443 107.664 38.4258 107.746 38.3701C107.501 38.6102 107.051 39.0343 106.827 39.145C106.664 39.2368 106.582 39.2924 106.623 39.3295C106.644 39.3661 106.501 39.4769 106.174 39.6604C105.888 39.8263 105.582 40.159 105.419 40.2693C105.276 40.362 105.112 40.4538 105.092 40.4538C105.072 40.4538 105.052 40.4719 105.052 40.5094C105.052 40.527 105.01 40.5465 104.99 40.5465C104.949 40.5465 104.807 40.6387 104.643 40.749L104.01 41.2092C103.949 41.2287 103.827 41.5967 103.745 42.0203C103.704 42.2422 103.643 42.4457 103.622 42.4823C103.602 42.5365 103.561 42.6658 103.561 42.8137C103.521 43.0352 103.439 43.33 103.337 43.4959C103.296 43.5515 103.255 43.6618 103.235 43.7535L102.929 44.8051C102.887 44.8973 102.848 45.0447 102.827 45.1365C102.807 45.2292 102.766 45.3214 102.745 45.339C102.725 45.3585 102.664 45.5601 102.582 45.8006C102.52 46.0397 102.459 46.2793 102.418 46.335L102.189 46.8985C102.126 47.0908 102.137 47.0918 102.174 47.0167C102.114 47.1817 102.053 47.3508 101.97 47.4477C101.929 47.5218 101.892 47.5186 101.892 47.5728C101.892 47.6094 101.827 47.7795 101.766 47.8171C101.685 47.8722 101.624 47.9274 101.624 47.9454C101.624 48.0015 101.113 48.5544 100.97 48.6462C100.684 48.8487 100.092 49.0341 99.7457 49.0517C99.5413 49.0707 99.3777 49.0707 99.3578 49.0341C99.317 49.0151 99.1738 48.959 99.0107 48.9224C98.7863 48.8672 98.6635 48.794 98.3577 48.5354C97.9086 48.1484 97.6731 48.0126 97.5707 47.6623C97.5095 47.5144 97.4331 47.3318 97.3918 47.2767C97.3107 47.1659 97.2528 46.917 97.314 46.88C97.3339 46.8624 97.314 46.734 97.314 46.6964L97.3775 46.5389C97.3571 46.5013 97.4382 46.3535 97.561 46.1876C97.6829 46.0397 97.7649 45.8738 97.7649 45.8372C97.7649 45.8006 97.7848 45.7821 97.8057 45.7821C97.8465 45.7821 97.8669 45.7454 97.8873 45.7088C97.9081 45.6528 97.9489 45.5601 98.0096 45.4868C98.0509 45.4136 98.0916 45.339 98.0712 45.3214C98.0712 45.3024 98.0916 45.3024 98.112 45.3024C98.1528 45.3024 98.1528 45.2658 98.1528 45.2292C98.112 45.1365 98.1528 45.0262 98.2344 45.0633C98.2552 45.0813 98.2756 45.0633 98.2552 45.0447C98.1936 45.0072 98.3975 44.7129 98.6427 44.4357L99.1117 43.9195C99.2753 43.7359 99.3573 43.6618 99.3976 43.6984C99.418 43.7359 99.4384 43.7359 99.4593 43.6799C99.4797 43.6252 99.4593 43.6066 99.4384 43.6252C99.3573 43.6799 99.3976 43.5881 99.4797 43.4959C99.5408 43.4593 99.5816 43.4398 99.6219 43.4593C99.6423 43.4773 99.6423 43.4773 99.6219 43.4398C99.5816 43.3856 100.255 42.6107 100.357 42.6107C100.398 42.6107 100.439 42.5926 100.459 42.5741C100.48 42.5365 100.48 42.5365 100.439 42.5555C100.296 42.6292 100.398 42.5189 100.724 42.1871C100.969 41.9466 101.092 41.8548 101.133 41.8919C101.153 41.9294 101.153 41.91 101.153 41.8733C101.112 41.7816 101.255 41.6157 101.357 41.6333C101.398 41.6523 101.459 41.6157 101.5 41.5596C101.561 41.4674 101.561 41.4674 101.48 41.523C101.439 41.542 101.398 41.5596 101.398 41.542C101.398 41.523 101.459 41.4674 101.5 41.4303C101.561 41.4127 101.602 41.3937 101.581 41.4303C101.521 41.523 101.622 41.4674 101.827 41.2838C101.949 41.1916 102.031 41.0799 102.01 41.0628C101.99 41.0433 102.01 41.0257 102.031 41.0433C102.051 41.0628 102.153 41.0067 102.255 40.9149C102.398 40.7856 102.439 40.6929 102.623 40.0297C102.725 39.6062 102.807 39.2734 102.807 39.2734C102.786 39.2558 102.214 39.919 102.194 39.9741C102.194 39.9931 102.113 40.0849 102.031 40.159L101.704 40.5094C101.276 40.9882 100.418 41.6157 99.9691 41.7626C99.7448 41.8367 99.5204 41.8367 99.1117 41.7626C98.8874 41.7255 98.4587 41.3385 98.296 41.0257C97.9892 40.5094 98.0096 39.2002 98.3359 38.4068C98.3771 38.3331 98.4383 38.1491 98.4587 38.0198C98.5199 37.7436 98.9689 36.9696 99.234 36.6373C99.4593 36.3606 99.8055 36.0469 100.235 35.697C100.623 35.4027 101.071 35.0885 101.133 35.0885C101.174 35.0885 101.255 35.0152 101.357 34.9411C101.459 34.8859 101.541 34.8123 101.581 34.8123C101.602 34.8123 101.683 34.7752 101.725 34.7381C101.786 34.6644 101.847 34.6459 101.99 34.6829C102.092 34.6829 102.174 34.6829 102.194 34.6459C102.255 34.5356 103.602 34.7381 103.663 34.8669C103.663 34.8859 103.704 34.9045 103.725 34.9045C103.745 34.9045 103.908 34.9777 104.052 35.0885C104.276 35.2173 104.357 35.2363 104.398 35.1997L104.623 34.7571C104.868 34.2218 105.01 34.112 105.337 34.1301C105.46 34.1301 105.603 34.1486 105.643 34.1852C105.663 34.2218 105.745 34.2408 105.786 34.2408C105.847 34.2408 105.868 34.2774 105.868 34.314C105.868 34.3507 105.929 34.3697 106.011 34.3877H106.214C106.378 34.4063 106.481 34.9411 106.337 35.0333C106.297 35.0704 106.255 35.1626 106.235 35.2544C106.214 35.3285 106.194 35.4027 106.174 35.4208C106.113 35.4574 105.807 36.0469 105.643 36.4533L105.439 36.933L105.215 37.5035L104.97 38.1125C104.868 38.2784 104.664 38.8132 104.643 38.9606C104.623 39.0343 104.582 39.145 104.582 39.1816C104.541 39.2558 104.541 39.2558 104.745 39.1816C104.847 39.1265 104.949 39.0523 104.97 39.0343C104.99 39.0157 105.031 38.9972 105.052 38.9972C105.133 38.9972 105.031 39.0709 104.766 39.2192C104.623 39.2924 104.501 39.3661 104.501 39.3661C104.501 39.3842 104.582 39.3476 104.684 39.2924C105.194 39.0343 105.337 38.942 105.296 38.8864C105.276 38.8688 105.296 38.8498 105.337 38.8688C105.358 38.8864 105.5 38.8322 105.663 38.7571C105.807 38.6654 105.95 38.5917 105.97 38.5917C105.99 38.5917 106.031 38.5551 106.072 38.5175C106.113 38.4809 106.174 38.4624 106.194 38.4809C106.235 38.4809 106.255 38.4624 106.255 38.4258C106.255 38.3891 106.214 38.3701 106.153 38.3891C106.093 38.4068 106.113 38.3891 106.214 38.3331C106.297 38.2784 106.419 38.2413 106.46 38.2598C106.501 38.2784 106.562 38.2598 106.603 38.2232C106.644 38.1866 106.644 38.1491 106.603 38.1305C106.582 38.1305 106.786 37.9832 107.051 37.8168C107.521 37.541 107.684 37.4493 107.521 37.5957C107.48 37.6328 107.439 37.6518 107.419 37.6518C107.399 37.6518 107.297 37.725 107.174 37.7996C107.031 37.8905 106.97 37.9461 106.99 38.0198C106.99 38.0754 106.97 38.0939 106.929 38.0754C106.908 38.0573 106.848 38.0754 106.848 38.0939C106.827 38.1305 106.766 38.1305 106.725 38.1125C106.684 38.0939 106.664 38.1125 106.684 38.1305C106.725 38.1866 106.541 38.3525 106.481 38.2965C106.439 38.2965 106.378 38.2965 106.337 38.3331C106.255 38.3701 106.255 38.3701 106.357 38.3525C106.439 38.3159 106.46 38.3331 106.439 38.3701C106.419 38.4068 106.481 38.3891 106.582 38.3525C106.664 38.2965 106.766 38.2598 106.807 38.2598C106.848 38.2413 106.929 38.1866 106.99 38.1305C107.051 38.0754 107.154 38.0022 107.235 37.9832C107.297 37.9656 107.379 37.928 107.379 37.8905C107.399 37.8729 107.419 37.8539 107.439 37.8539C107.46 37.8729 107.541 37.8362 107.603 37.7996C107.684 37.8362 107.787 37.8729 107.746 37.7069C107.766 37.7069 107.848 37.6328 107.97 37.5591C108.047 37.4896 108.112 37.4516 108.154 37.4317L108.539 35.716C108.58 35.5677 108.682 35.1807 108.743 34.8669C108.825 34.5536 108.907 34.2033 108.947 34.112C108.968 34.0008 108.989 33.9085 108.947 33.8534C108.927 33.7978 108.927 33.7792 109.009 33.7426C109.131 33.687 109.539 33.7055 109.682 33.7792C109.744 33.7978 109.825 33.8348 109.886 33.8348C110.132 33.8163 110.478 34.314 110.478 34.6644C110.478 34.8859 110.376 35.5677 110.315 35.6418C110.295 35.6604 110.234 35.9551 110.151 36.2689C110.07 36.5826 109.988 36.8769 109.948 36.9135C109.907 36.9506 109.907 36.9696 109.948 36.9696C109.988 36.9696 110.029 36.9135 110.132 36.6744C110.132 36.6373 110.172 36.6373 110.213 36.6558C110.315 36.6744 110.295 36.8959 110.192 36.8959C110.132 36.8959 110.132 36.8959 110.192 36.933C110.295 36.9872 110.335 36.9506 110.335 36.8218C110.335 36.7666 110.356 36.711 110.397 36.711C110.417 36.6925 110.458 36.6192 110.478 36.5455L110.499 36.4162L110.397 36.5265C110.295 36.6192 110.192 36.6558 110.192 36.5826C110.192 36.5455 110.213 36.5265 110.234 36.5265C110.274 36.5265 110.295 36.4899 110.315 36.4339C110.335 36.3972 110.376 36.3606 110.397 36.3796C110.417 36.3796 110.458 36.3421 110.478 36.2689C110.56 36.0659 110.703 35.9185 110.785 35.937C110.825 35.9551 110.846 35.937 110.825 35.9C110.805 35.8443 110.805 35.8258 110.846 35.8444C110.907 35.8634 111.07 35.6233 111.07 35.5311C111.07 35.4574 112.478 34.1667 112.621 34.1301C112.826 34.0559 113.723 33.4289 113.805 33.503C113.866 33.5401 114.009 33.4659 114.132 33.4845C114.275 33.503 114.56 33.687 114.581 33.7055C114.601 33.7245 114.846 33.9085 114.907 34.2033ZM110.376 37.2633C110.356 37.3745 110.356 37.3926 110.417 37.3193C110.458 37.2633 110.478 37.2081 110.458 37.19C110.438 37.1349 110.58 36.8763 110.641 36.9129C110.662 36.9129 110.702 36.9129 110.702 36.8953C110.723 36.8763 110.702 36.8577 110.641 36.8577C110.539 36.8763 110.397 37.0983 110.376 37.2633ZM111.07 36.1946C111.09 36.2498 111.07 36.3234 111.05 36.2864C111.029 36.2683 110.785 36.4894 110.785 36.545C110.785 36.545 110.825 36.5626 110.886 36.5626C110.948 36.5626 110.968 36.545 110.968 36.526C110.948 36.5084 110.948 36.4527 110.968 36.4157C110.988 36.3601 111.009 36.3601 111.029 36.3967C111.07 36.4527 111.07 36.4527 111.07 36.3967C111.07 36.3601 111.131 36.2864 111.172 36.2317C111.233 36.1756 111.254 36.1205 111.233 36.1205C111.192 36.0829 111.05 36.1571 111.07 36.1946ZM109.478 39.3099C109.458 39.3475 109.417 39.4026 109.417 39.4392C109.417 39.4582 109.458 39.4392 109.498 39.4026C109.539 39.3475 109.56 39.2923 109.56 39.2733C109.56 39.2367 109.519 39.2557 109.478 39.3099ZM111.315 35.9379C111.294 35.956 111.274 35.9745 111.274 36.0111C111.274 36.0301 111.294 36.0301 111.335 36.0301C111.356 36.0111 111.376 35.9745 111.376 35.956C111.376 35.9194 111.356 35.9194 111.315 35.9379ZM110.764 36.6562C110.785 36.6377 110.764 36.6196 110.744 36.6196C110.682 36.6196 110.682 36.6377 110.723 36.7299C110.744 36.804 110.826 36.8221 110.826 36.748C110.826 36.7299 110.805 36.7114 110.785 36.7114C110.764 36.7114 110.744 36.6928 110.764 36.6562ZM110.172 37.5039C110.131 37.5415 110.111 37.5962 110.111 37.6147C110.111 37.6522 110.131 37.6332 110.172 37.5781C110.213 37.5229 110.254 37.5039 110.254 37.5596C110.254 37.5781 110.254 37.5962 110.274 37.5962C110.295 37.5781 110.274 37.5415 110.274 37.4863C110.233 37.4303 110.233 37.4303 110.172 37.5039ZM100.561 44.38L100.48 44.4547C100.418 44.5645 100.418 44.5645 100.5 44.4913C100.54 44.4352 100.581 44.3986 100.561 44.38ZM101.075 46.5254C101.042 46.5565 100.987 46.6658 100.936 46.7961C100.986 46.6978 101.032 46.6084 101.075 46.5263C101.075 46.5263 101.075 46.5254 101.075 46.5254ZM100.765 44.1602C100.745 44.1421 100.725 44.1787 100.704 44.2153C100.663 44.2705 100.684 44.2895 100.725 44.2339C100.765 44.2153 100.765 44.1787 100.765 44.1602ZM100.153 47.7791C100.161 47.7791 100.176 47.7666 100.19 47.755C100.223 47.7128 100.257 47.6595 100.295 47.5891C100.286 47.5923 100.289 47.5891 100.276 47.5947L100.072 47.761C100.023 47.8046 99.961 47.8584 99.8966 47.9084C99.9791 47.9042 100.048 47.8894 100.119 47.8278C100.126 47.8014 100.138 47.7791 100.153 47.7791ZM100.561 47.5882C100.561 47.572 100.566 47.5595 100.568 47.5442C100.509 47.6711 100.47 47.7578 100.48 47.7541C100.52 47.7356 100.561 47.6614 100.561 47.5882ZM101.194 46.8939C101.197 46.8939 101.194 46.9023 101.194 46.906C101.202 46.8902 101.211 46.8726 101.214 46.8694C101.215 46.8684 101.215 46.867 101.216 46.8661C101.214 46.8652 101.218 46.8564 101.215 46.8573C101.194 46.8758 101.174 46.8939 101.194 46.8939ZM101.12 47.081C101.166 46.9906 101.194 46.9262 101.194 46.9067C101.176 46.941 101.151 47.0003 101.12 47.081ZM100.602 47.4849C100.602 47.4664 100.612 47.4451 100.625 47.4251C100.612 47.4506 100.597 47.4798 100.586 47.5039C100.591 47.4974 100.6 47.4896 100.602 47.4849ZM102.408 46.4277C102.429 46.3582 102.44 46.3118 102.418 46.335C102.398 46.3614 102.409 46.3823 102.408 46.4277ZM102.112 38.4816C102.133 38.445 102.133 38.4075 102.133 38.4075C102.112 38.4075 102.072 38.445 102.051 38.4816C102.01 38.5182 102.01 38.5558 102.031 38.5558C102.072 38.5558 102.092 38.5182 102.112 38.4816ZM102.541 37.7253C102.561 37.7073 102.582 37.6887 102.561 37.6521C102.52 37.596 102.48 37.6146 102.48 37.6887C102.48 37.7253 102.5 37.7439 102.541 37.7253ZM105.766 38.6282C105.827 38.6282 106.052 38.4618 106.011 38.4618C105.99 38.4618 105.909 38.4989 105.848 38.5545C105.766 38.5911 105.746 38.6282 105.766 38.6282ZM101.12 47.0807C101.057 47.2049 100.967 47.3648 100.89 47.4914C100.89 47.4932 100.889 47.4946 100.888 47.4965C100.869 47.5474 100.862 47.5729 100.861 47.5873C100.874 47.5748 100.882 47.5664 100.898 47.5507C100.937 47.489 100.998 47.376 101.06 47.2522C101.08 47.1892 101.1 47.1326 101.12 47.0807ZM103.133 36.9333L103.378 36.6001C103.48 36.4902 103.561 36.3424 103.561 36.3058C103.561 36.2506 103.541 36.2692 103.48 36.3609L103.235 36.7113C103.154 36.8221 103.072 36.9509 103.072 36.9699C103.072 36.9875 103.112 36.9699 103.133 36.9333ZM102.308 46.703C102.258 46.7869 102.216 46.9009 102.174 47.0168C102.206 46.9519 102.257 46.8332 102.308 46.703ZM97.7619 46.4064C97.7726 46.3888 97.7823 46.3721 97.7935 46.3536C97.78 46.3462 97.7555 46.3462 97.7249 46.3605C97.71 46.3605 97.7119 46.3703 97.7022 46.3744C97.6947 46.3865 97.6915 46.3925 97.685 46.4036C97.6943 46.4087 97.6985 46.4152 97.7249 46.4152C97.7383 46.4152 97.7499 46.4101 97.7619 46.4064ZM102.308 46.7024C102.35 46.5972 102.386 46.499 102.408 46.4271C102.407 46.4749 102.392 46.5509 102.311 46.6959C102.31 46.6983 102.309 46.701 102.308 46.7024Z" fill="#57854E"/>
</g>
<path fill-rule="evenodd" clip-rule="evenodd" d="M130.541 20.0186H131.095C131.64 20.0115 132.184 20.0385 132.726 20.0992C134.468 20.2206 135.892 21.5607 136.146 23.317C136.348 24.4703 136.377 25.6473 136.233 26.8092C136.048 28.7267 134.502 30.2133 132.607 30.2924C132.165 30.3365 131.722 30.3583 131.278 30.3569H130.169H129.211V20.011H130.066H130.58M133.327 19.1252C132.195 18.9848 131.056 18.9232 129.916 18.9403H128.229H126.646H126.417V19.1816C126.389 19.3939 126.446 19.6077 126.575 19.777C126.757 19.9699 127.097 20.0429 127.905 20.0505V30.292H126.908C126.756 30.2745 126.605 30.321 126.488 30.421C126.38 30.5499 126.328 30.7187 126.345 30.8874C126.345 31.1131 126.345 31.4506 126.638 31.4506H127.905H129.551C130.589 31.4506 131.483 31.4103 132.37 31.3302C135.338 31.0401 136.921 29.6805 137.341 27.034C137.523 25.7275 137.504 24.4002 137.285 23.0995C137.074 20.9734 135.419 19.292 133.327 19.0773" fill="black"/>
<path fill-rule="evenodd" clip-rule="evenodd" d="M148.8 25.4675C148.8 25.6476 148.746 25.8434 148.716 26.0475V26.0946C148.653 26.6662 148.548 27.2319 148.399 27.7874C147.876 29.488 146.65 30.3104 144.637 30.3104H144.56C142.912 30.4258 141.417 29.3333 140.998 27.7089C140.513 26.0867 140.513 24.3542 140.998 22.7325C141.53 20.9377 142.764 20.0599 144.769 20.0599H145.261C146.973 20.1777 148.2 21.4396 148.554 23.4455C148.623 23.8454 148.662 24.2291 148.7 24.6996C148.7 24.9111 148.746 25.1618 148.77 25.4361M145.223 18.9479C142.686 18.8228 140.929 19.8257 140.15 21.8242C139.884 22.5759 139.683 23.3494 139.549 24.1362C139.48 24.4576 139.41 24.8182 139.325 25.1627C139.299 25.2703 139.355 25.3811 139.456 25.4213L139.503 25.8054C139.503 26.1735 139.572 26.589 139.625 26.934C139.801 28.9865 141.227 30.706 143.188 31.2287C143.713 31.37 144.255 31.4435 144.799 31.4481C146.955 31.5183 148.892 30.1168 149.533 28.0232C150.126 26.1693 150.126 24.1718 149.533 22.3183C148.953 20.3734 147.22 19.0186 145.223 18.9479Z" fill="black"/>
<path fill-rule="evenodd" clip-rule="evenodd" d="M161.794 25.4122C161.794 25.6238 161.732 25.8515 161.701 26.0547C161.64 26.6293 161.536 27.198 161.39 27.7564C160.893 29.4498 159.634 30.3039 157.653 30.3039C155.719 30.3039 154.484 29.4336 153.971 27.7329C153.529 26.2376 153.497 24.65 153.878 23.1387C154.144 21.2254 155.857 19.8632 157.762 20.0498H158.042C159.945 20.1205 161.243 21.3746 161.608 23.4759C161.67 23.8602 161.709 24.2597 161.748 24.6907V24.7378C161.748 24.9337 161.748 25.1614 161.818 25.4122M162.525 22.3395C161.95 20.3768 160.194 19.0059 158.166 18.9375H157.801C155.471 18.9375 153.808 19.9486 153.078 21.8536C152.819 22.5963 152.624 23.3594 152.495 24.1354V24.2056C152.433 24.5114 152.371 24.8329 152.301 25.1387C152.277 25.2417 152.329 25.347 152.425 25.3895V25.7577C152.425 26.1106 152.488 26.5415 152.542 26.9023C152.702 28.9583 154.132 30.6877 156.107 31.2143C156.654 31.3681 157.218 31.4471 157.785 31.4494C160.093 31.5011 162.118 29.9089 162.633 27.6395C163.103 25.8976 163.057 24.0555 162.501 22.3395" fill="black"/>
<mask id="mask1_2_246" style="mask-type:alpha" maskUnits="userSpaceOnUse" x="73" y="19" width="10" height="13">
<path fill-rule="evenodd" clip-rule="evenodd" d="M73.0456 19.0081H82.1314V31.2551H73.0456V19.0081Z" fill="white"/>
</mask>
<g mask="url(#mask1_2_246)">
<path fill-rule="evenodd" clip-rule="evenodd" d="M82.0273 28.2895C81.8961 28.1806 81.7246 28.132 81.5555 28.1561C81.4294 28.1561 81.036 28.1561 81.036 28.4781V30.1456H75.8764V20.0624H77.0563C77.1991 20.0661 77.3326 19.9906 77.4025 19.8654C77.4563 19.7612 77.4832 19.6448 77.4809 19.5271C77.4809 19.3227 77.4025 19.0081 77.1745 19.0081H73.1708V19.1341C73.0772 19.3918 73.0943 19.6763 73.2181 19.9206C73.3019 20.03 73.434 20.0916 73.5717 20.086H74.0676H74.6418V30.1535H73.383C73.2259 30.1535 73.0447 30.2481 73.0447 30.6888C73.0447 30.8301 73.0447 31.2551 73.3279 31.2551H82.1292V30.3426V28.6121C82.1394 28.4939 82.0996 28.3771 82.0194 28.2895" fill="black"/>
</g>
<path fill-rule="evenodd" clip-rule="evenodd" d="M88.3424 20.041H88.8922C89.1414 20.041 89.2663 19.8318 89.2663 19.4134C89.2663 18.9541 88.9877 18.9375 88.9583 18.9375H85.5055C85.3984 18.9375 85.2956 18.984 85.2196 19.067C85.1363 19.1828 85.0965 19.3299 85.1099 19.4774C85.0883 19.7568 85.2766 20.0021 85.531 20.0254C85.5591 20.0282 85.5876 20.0277 85.6157 20.0249H86.3486H86.6268V30.3955H85.4101C85.0952 30.3955 85.0952 30.7741 85.0952 30.9354C85.0952 31.3861 85.3224 31.4425 85.5202 31.4506H87.3675H89.1928V30.6455C89.1928 30.3717 88.9216 30.3717 88.6577 30.3717H87.7779V20.041H88.3424Z" fill="black"/>
<path fill-rule="evenodd" clip-rule="evenodd" d="M101.706 28.4285C101.57 28.3196 101.396 28.2703 101.223 28.2921C101.087 28.2921 100.684 28.2921 100.684 28.6212V30.325H95.3745V20.0224H96.5814C96.7274 20.0262 96.864 19.949 96.9351 19.8211C96.9943 19.716 97.0223 19.5962 97.0157 19.4754C97.0157 19.2586 96.9351 18.9375 96.7099 18.9375H92.6071V19.0658C92.5099 19.3286 92.5274 19.6203 92.655 19.8694C92.7393 19.9835 92.8754 20.047 93.0171 20.038H93.5158H94.1032V30.325H92.8564C92.7033 30.325 92.5104 30.4216 92.5104 30.8719C92.5104 31.0168 92.5104 31.4506 92.8 31.4506H101.77V30.5263V28.7581C101.794 28.644 101.771 28.5256 101.706 28.4285Z" fill="black"/>
<path fill-rule="evenodd" clip-rule="evenodd" d="M113.258 28.4285C113.122 28.3196 112.948 28.2703 112.776 28.2921C112.64 28.2921 112.239 28.2921 112.239 28.6212V30.325H106.984V20.0224H108.187C108.333 20.0243 108.468 19.9471 108.54 19.8211C108.596 19.7146 108.623 19.5957 108.621 19.4754C108.621 19.2586 108.532 18.9375 108.308 18.9375H104.225L104.185 19.0658C104.089 19.3286 104.107 19.6199 104.233 19.8694C104.318 19.9821 104.453 20.0456 104.594 20.038H105.091H105.677V30.325H104.434C104.281 30.325 104.097 30.4216 104.097 30.8719C104.097 31.0168 104.097 31.4506 104.377 31.4506H113.362V31.2096V30.6792V30.5263V28.7581C113.379 28.6383 113.34 28.5171 113.258 28.4285Z" fill="black"/>
<path fill-rule="evenodd" clip-rule="evenodd" d="M124.076 19.4394H122.735H121.125C120.686 19.4394 120.686 19.8204 120.686 19.9757C120.674 20.1063 120.705 20.2368 120.773 20.349C120.831 20.4392 120.932 20.4919 121.04 20.4892H122.013L120.561 22.821L120.341 23.1394C119.862 23.9171 119.369 24.6944 118.874 25.5106C118.442 24.7879 117.98 23.9561 117.532 23.2177V23.1476C116.92 22.0983 116.339 21.0952 115.963 20.4814H116.693C117.14 20.4814 117.14 20.0692 117.14 19.929C117.14 19.7893 117.14 19.4009 116.818 19.4009H113.719C113.366 19.4009 113.366 19.6569 113.366 19.8905C113.366 20.1237 113.366 20.4731 113.813 20.4731H114.134C114.226 20.4622 114.318 20.4622 114.409 20.4731C114.72 20.764 114.984 21.0997 115.194 21.4685L115.814 22.4871L118.05 26.156L118.105 26.249C118.197 26.3713 118.261 26.5119 118.293 26.6612V29.5217V30.4084H117.25C116.842 30.4084 116.7 30.5559 116.7 30.9526C116.7 31.3488 116.999 31.45 117.037 31.45H120.671C120.791 31.4555 120.908 31.417 121.001 31.341C121.085 31.2393 121.123 31.1065 121.103 30.9759V30.9911C121.103 30.5326 120.828 30.5014 120.741 30.5014L119.462 30.4625V29.6151V26.762C119.499 26.5783 119.574 26.4038 119.682 26.249C120.145 25.4717 120.647 24.6944 121.087 24.0184C121.612 23.2411 122.256 22.2068 122.812 21.2504C123.205 20.5744 123.299 20.4731 123.362 20.4731H123.48H123.919H124.171C124.252 20.4754 124.332 20.4443 124.39 20.3879C124.493 20.2867 124.484 20.1388 124.484 19.9601V19.8749C124.515 19.6665 124.369 19.4732 124.159 19.4435C124.139 19.4407 124.12 19.4394 124.1 19.4394" fill="black"/>
<rect x="1.00002" y="1" width="234" height="66" rx="2.5" stroke="#979797"/>
</svg>
