<svg width="90" height="32" viewBox="0 0 90 32" fill="none" xmlns="http://www.w3.org/2000/svg">
<g id="LILLYDOO-green-logo">
<g id="Group 3">
<mask id="mask0_2_247" style="mask-type:alpha" maskUnits="userSpaceOnUse" x="24" y="15" width="44" height="17">
<path id="Clip 2" fill-rule="evenodd" clip-rule="evenodd" d="M24.2882 15.4797H67.1479V31.0624H24.2882V15.4797Z" fill="white"/>
</mask>
<g mask="url(#mask0_2_247)">
<path id="Fill 1" fill-rule="evenodd" clip-rule="evenodd" d="M62.0466 18.7846C62.1685 18.6367 62.2709 18.5083 62.3117 18.4893C62.352 18.4708 62.3729 18.4156 62.3729 18.379C62.3729 18.3049 62.2292 18.4333 62.0674 18.6738C62.0058 18.7289 61.9242 18.8397 61.8631 18.9129C61.8014 18.969 61.781 19.0242 61.8014 19.0242C61.8223 19.0242 61.9446 18.9129 62.0466 18.7846V18.7846ZM60.2294 20.9421C60.2094 20.9421 60.1886 20.9606 60.1886 20.9973C60.1886 21.0343 60.1478 21.0899 60.1075 21.1266C60.0667 21.1451 60.025 21.1817 60.025 21.2192C60.025 21.2735 60.2094 21.1076 60.3313 20.9231C60.393 20.8323 60.4338 20.7396 60.4138 20.7206C60.4138 20.7206 60.373 20.7572 60.3313 20.8323C60.291 20.8865 60.2502 20.9421 60.2294 20.9421V20.9421ZM59.4338 19.5224C59.4338 19.5956 59.4954 19.559 59.5561 19.4668C59.5969 19.375 59.5969 19.375 59.5353 19.4297C59.4755 19.4668 59.4338 19.5034 59.4338 19.5224V19.5224ZM63.0265 18.3428C62.9444 18.5834 62.9444 18.7859 63.0061 18.7484C63.0265 18.7303 63.0672 18.6381 63.0872 18.5273L63.1488 18.2135C63.1896 18.03 63.0872 18.1218 63.0265 18.3428V18.3428ZM62.842 20.6103C62.842 20.5918 62.8221 20.5918 62.8012 20.6288C62.7804 20.6654 62.7605 20.7206 62.7605 20.7572C62.7605 20.8323 62.842 20.684 62.842 20.6103V20.6103ZM62.74 20.9429C62.74 20.9063 62.7201 20.9063 62.6992 20.9615C62.6788 21.0166 62.638 21.0908 62.638 21.1274C62.638 21.164 62.6589 21.1459 62.6788 21.0908C62.7201 21.0532 62.74 20.98 62.74 20.9429V20.9429ZM61.9445 17.6789C61.9242 17.6969 61.9038 17.7159 61.9038 17.7525C61.9038 17.8077 61.9445 17.7892 61.9649 17.7159C61.9849 17.6789 61.9849 17.6603 61.9445 17.6789V17.6789ZM61.6176 18.047C61.4948 18.1211 61.3113 18.3422 61.3928 18.3056C61.4336 18.3056 61.5156 18.2323 61.5967 18.1396C61.6992 18.0293 61.6992 18.0103 61.6176 18.047V18.047ZM61.3521 18.4158C61.3521 18.3792 61.3114 18.3792 61.2905 18.3792C61.2706 18.3968 61.2497 18.4158 61.2497 18.4334C61.2497 18.4529 61.2706 18.4529 61.2905 18.4529C61.3114 18.4529 61.3313 18.4334 61.3521 18.4158V18.4158ZM61.1886 18.8034C61.1686 18.8034 61.0662 18.9327 60.9434 19.062C60.72 19.3563 60.6181 19.5032 60.7608 19.3373L60.9434 19.1538C60.9842 19.1163 61.0259 19.062 61.0259 19.062C61.0051 19.0426 61.0458 18.987 61.1269 18.9327C61.1886 18.8581 61.2094 18.8034 61.1886 18.8034V18.8034ZM60.6993 19.4663C60.6585 19.4663 60.5973 19.5404 60.5158 19.6137C60.4337 19.743 60.4138 19.743 60.4949 19.6878C60.5566 19.6512 60.6182 19.6137 60.6381 19.6322C60.6585 19.6512 60.6585 19.6512 60.6381 19.6137C60.6182 19.5771 60.6381 19.5404 60.6794 19.5219C60.7202 19.5029 60.7202 19.4853 60.6993 19.4663V19.4663ZM60.4751 20.0575C60.5159 20.0024 60.4547 19.9658 60.3731 20.0024C60.3523 20.02 60.3115 20.0756 60.2911 20.1308C60.2503 20.2234 60.2712 20.2415 60.3115 20.2234C60.3523 20.2044 60.3731 20.1674 60.3731 20.1308C60.3731 20.0941 60.3931 20.0575 60.4139 20.0756C60.4339 20.0941 60.4751 20.0756 60.4751 20.0575V20.0575ZM60.1884 20.2789C60.1685 20.2969 60.1272 20.353 60.1073 20.4072C60.0865 20.4628 60.0457 20.518 60.0248 20.4999C59.9641 20.4814 59.6369 20.9059 59.6777 20.9796C59.6777 20.9977 59.6777 21.0162 59.6578 21.0162C59.617 20.9977 59.4951 21.1636 59.4951 21.2373C59.4951 21.3105 59.5966 21.2007 59.7801 20.961C59.9029 20.7942 60.0049 20.6107 60.0049 20.5741C60.0049 20.4999 60.0248 20.4999 60.0457 20.5365C60.0665 20.5741 60.1073 20.5365 60.1685 20.4262C60.2093 20.3335 60.2292 20.2789 60.1884 20.2789V20.2789ZM60.7819 19.0255C60.7819 19.063 60.9237 18.9704 60.9645 18.8967C61.0053 18.8411 61.0261 18.8044 61.0053 18.8044C60.9844 18.8044 60.7819 18.988 60.7819 19.0255V19.0255ZM59.4337 21.3099C59.4138 21.3293 59.3934 21.3659 59.3934 21.384C59.3934 21.4582 59.4138 21.4392 59.4546 21.3659C59.4754 21.3293 59.4754 21.3099 59.4337 21.3099V21.3099ZM59.3526 21.4961C59.3118 21.4775 59.3118 21.4034 59.3934 21.2375C59.5152 20.9979 59.4545 20.9979 59.3118 21.2198C59.271 21.2931 59.2098 21.3668 59.189 21.3848C59.189 21.4034 59.1074 21.5141 59.0258 21.6434L58.6175 22.2881C58.3923 22.657 58.3311 22.7682 58.3923 22.7682C58.3923 22.7682 58.4748 22.657 58.5758 22.5277C58.9647 21.9748 59.2098 21.6801 59.2501 21.661C59.271 21.6434 59.2909 21.6068 59.2909 21.5878C59.2909 21.5507 59.3118 21.5141 59.3526 21.5141C59.3934 21.5141 59.3934 21.5141 59.3526 21.4961V21.4961ZM58.3924 21.9746C58.4749 21.8091 58.3725 21.8643 58.2705 22.0487C58.2089 22.1229 58.169 22.2512 58.169 22.2879C58.1889 22.3806 58.2288 22.3254 58.3924 21.9746V21.9746ZM58.1478 22.4354C58.1279 22.3061 58.0458 22.2695 58.0259 22.3803C58.0259 22.4169 58.0458 22.454 58.0866 22.454C58.107 22.454 58.1279 22.5096 58.107 22.5638C58.0667 22.676 58.0866 22.676 58.1279 22.6199C58.1478 22.5833 58.1687 22.4906 58.1478 22.4354V22.4354ZM58.3922 21.8092C58.3922 21.8268 58.4539 21.7726 58.4947 21.6799C58.5558 21.5691 58.6374 21.4773 58.6583 21.4773C58.6782 21.4588 58.6986 21.3847 58.7194 21.3105C58.7602 21.2007 58.7602 21.1821 58.6986 21.2929C58.6782 21.348 58.6374 21.4222 58.6175 21.4222C58.5558 21.4588 58.3922 21.7536 58.3922 21.8092V21.8092ZM57.9843 20.2964C57.9644 20.2783 57.9435 20.3159 57.9236 20.3525C57.9032 20.4067 57.9032 20.4257 57.9435 20.3701C57.9843 20.3525 58.0052 20.3159 57.9843 20.2964V20.2964ZM57.8627 23.0624C57.8627 23.0063 57.8627 23.0063 57.8219 23.0624C57.7811 23.099 57.7603 23.1722 57.7603 23.2088C57.7603 23.2649 57.7603 23.2649 57.8219 23.2088C57.8418 23.1722 57.8627 23.099 57.8627 23.0624V23.0624ZM57.76 19.8544C57.8216 19.7074 57.8415 19.6148 57.7808 19.6708C57.7544 19.7019 57.6988 19.8228 57.6436 19.9563C57.6492 19.9693 57.6548 19.9804 57.6404 20.0203C57.6404 20.0068 57.6334 20.0017 57.6269 19.9962C57.5584 20.1672 57.4944 20.3489 57.4944 20.4073C57.4944 20.4448 57.4745 20.4999 57.4536 20.518C57.4328 20.5366 57.3924 20.6107 57.3725 20.7034C57.3725 20.7942 57.2701 21.1455 57.1473 21.4959C56.9638 22.0673 56.923 22.2699 56.9837 22.2138C56.9837 22.2138 57.0453 22.0303 57.1264 21.8268L57.3109 21.2373L57.5352 20.4999L57.76 19.8544ZM57.5766 21.3665C57.5154 21.4773 57.4746 21.6242 57.4746 21.6608C57.4538 21.7901 57.5562 21.6974 57.5766 21.5505L57.6373 21.2738C57.6581 21.2006 57.6373 21.2372 57.5766 21.3665V21.3665ZM57.5766 22.3053C57.5562 22.2686 57.5562 22.3053 57.5562 22.3613C57.5562 22.416 57.5562 22.4531 57.5766 22.416C57.5965 22.3794 57.5965 22.3419 57.5766 22.3053V22.3053ZM57.4539 21.8081C57.4331 21.7891 57.4131 21.8257 57.4131 21.8632C57.4131 21.9736 57.4331 21.9926 57.4748 21.8999C57.4947 21.8632 57.4748 21.8257 57.4539 21.8081V21.8081ZM57.4744 22.6924C57.4535 22.6752 57.4128 22.7295 57.3924 22.8036C57.3307 22.9695 57.3516 22.9876 57.4327 22.8217C57.4535 22.7485 57.4744 22.6924 57.4744 22.6924V22.6924ZM57.3311 22.1959C57.2704 22.2325 57.0859 22.822 57.0859 22.9332C57.0859 23.0625 57.2291 22.7673 57.2495 22.5828L57.3311 22.2691C57.352 22.213 57.352 22.1764 57.3311 22.1959V22.1959ZM57.0858 23.0631C57.0246 23.0997 56.943 23.413 56.9838 23.3759C57.0047 23.3759 57.0455 23.2842 57.0659 23.1919C57.1066 23.0802 57.1066 23.026 57.0858 23.0631V23.0631ZM56.9429 23.5787C56.9229 23.5592 56.9229 23.5787 56.9229 23.6329C56.9229 23.6885 56.9229 23.6885 56.9429 23.6519C56.9637 23.6153 56.9637 23.5787 56.9429 23.5787V23.5787ZM56.8622 22.6933C56.9229 22.5097 56.9428 22.3429 56.9428 22.3063C56.9229 22.2511 56.8622 22.4541 56.7602 22.8596C56.6986 23.1549 56.7801 23.026 56.8622 22.6933V22.6933ZM57.173 20.3564C57.122 20.4973 57.0812 20.6178 57.0659 20.6836C57.0247 20.9227 57.0659 20.8861 57.1883 20.5913C57.2402 20.4824 57.287 20.33 57.3143 20.2155C57.2703 20.2586 57.224 20.3045 57.173 20.3564V20.3564ZM56.9594 20.3214C56.9687 20.2894 56.9784 20.2583 56.9886 20.2264C56.8093 20.3506 56.6401 20.4711 56.6401 20.4808C56.6401 20.5174 56.6193 20.5174 56.5785 20.4993C56.5581 20.4808 56.5377 20.4808 56.5581 20.5174C56.5984 20.5549 56.5581 20.5735 56.4774 20.5735C56.3959 20.5735 56.3542 20.6101 56.3542 20.6467C56.3542 20.7028 56.375 20.7204 56.3959 20.7204C56.4158 20.7204 56.4566 20.7028 56.4566 20.6838C56.4566 20.6467 56.4964 20.6286 56.5377 20.6286C56.5785 20.6286 56.6809 20.5549 56.762 20.4808C56.8116 20.4307 56.8816 20.3765 56.9594 20.3214V20.3214ZM56.2728 20.7928C56.252 20.7752 56.1913 20.8313 56.1092 20.9412C56.2112 20.8855 56.2932 20.8123 56.2728 20.7928V20.7928ZM57.4791 19.5942C57.493 19.5887 57.5045 19.5822 57.5175 19.5785C57.5273 19.5775 57.5286 19.5817 57.5365 19.5817C57.5588 19.5219 57.5764 19.4658 57.5764 19.4306C57.5764 19.3931 57.5351 19.47 57.4791 19.5942V19.5942ZM57.3044 20.0112C57.2887 20.0524 57.272 20.0932 57.2567 20.134C57.291 20.115 57.3253 20.0951 57.3563 20.0779C57.3818 20.0056 57.4027 19.9463 57.4328 19.9463C57.4448 19.9361 57.4425 19.9208 57.4448 19.906C57.4203 19.9259 57.4041 19.944 57.3749 19.9658C57.3572 19.9769 57.3331 19.9926 57.3044 20.0112V20.0112ZM57.8417 20.6291C57.8009 20.6291 57.781 20.6657 57.781 20.7209C57.781 20.7575 57.7601 20.8326 57.7601 20.8868C57.7397 20.9234 57.7397 20.9424 57.7601 20.9424C57.7601 20.9234 57.8009 20.8502 57.8417 20.7765C57.8625 20.6843 57.8625 20.6291 57.8417 20.6291V20.6291ZM55.7824 21.3468C55.801 21.338 55.8075 21.3125 55.8195 21.2967C55.6851 21.4209 55.6726 21.4464 55.7824 21.3468V21.3468ZM54.9875 21.2366C54.9467 21.2366 54.7831 21.2922 54.6195 21.4025C54.5986 21.4215 54.5787 21.4392 54.5379 21.4392C54.5986 21.4582 54.6811 21.4767 54.6811 21.4392C54.6811 21.4215 54.7011 21.4025 54.7215 21.4215C54.7423 21.4392 54.7831 21.4392 54.7831 21.4025C54.7831 21.384 54.7831 21.3659 54.803 21.3659C54.8239 21.3659 54.905 21.3474 54.9666 21.3099C55.0686 21.2732 55.0686 21.2732 54.9875 21.2366V21.2366ZM54.5785 21.3482C54.5984 21.3482 54.6402 21.3302 54.6601 21.3107C54.6601 21.2741 54.6402 21.2741 54.5984 21.2931C54.5169 21.3107 54.4965 21.3482 54.5785 21.3482V21.3482ZM54.2512 21.5871C54.2721 21.5686 54.2313 21.5501 54.1905 21.5501C54.1293 21.532 54.1085 21.5501 54.1085 21.5871C54.1492 21.6428 54.2313 21.6428 54.2512 21.5871V21.5871ZM53.8236 21.8083C53.742 21.8454 53.7216 21.882 53.7828 21.882C53.8236 21.882 53.8445 21.8634 53.8644 21.8259C53.8843 21.8083 53.8644 21.7893 53.8236 21.8083V21.8083ZM53.8025 21.7539C53.8642 21.7363 53.8841 21.7173 53.8642 21.6979C53.8642 21.6802 53.8234 21.6979 53.7826 21.7363C53.7418 21.7729 53.7418 21.7905 53.8025 21.7539V21.7539ZM53.1291 22.1221L52.9864 22.213C52.8636 22.3057 52.8228 22.3423 52.9043 22.3423C52.9247 22.3423 52.9864 22.2871 53.0471 22.2324L53.1291 22.1221ZM49.46 20.2613C49.4655 20.2418 49.4692 20.2228 49.4757 20.2038C49.4804 20.1895 49.4878 20.1755 49.4924 20.1612C49.2834 20.3044 49.0498 20.4694 49.0498 20.4805C49.0498 20.5171 49.029 20.5171 48.9882 20.499C48.9673 20.4805 48.9474 20.4805 48.9673 20.5171C49.009 20.5546 48.9673 20.5732 48.8862 20.5732C48.8046 20.5732 48.7629 20.6098 48.7629 20.6464C48.7629 20.7025 48.7838 20.7201 48.8046 20.7201C48.8246 20.7201 48.8654 20.7025 48.8654 20.6835C48.8654 20.6464 48.9066 20.6283 48.9474 20.6283C48.9882 20.6283 49.0901 20.5546 49.1717 20.4805C49.2403 20.4119 49.3473 20.3354 49.46 20.2613V20.2613ZM48.6821 20.7928C48.6621 20.7752 48.6005 20.8313 48.5185 20.9412C48.6204 20.8855 48.7024 20.8123 48.6821 20.7928V20.7928ZM48.1928 21.3473C48.2122 21.3385 48.2183 21.312 48.2303 21.2963C48.0955 21.4214 48.0829 21.4469 48.1928 21.3473V21.3473ZM47.3963 21.2366C47.3555 21.2366 47.1919 21.2922 47.0292 21.4025C47.0084 21.4215 46.9884 21.4392 46.9467 21.4392C47.0084 21.4582 47.0904 21.4767 47.0904 21.4392C47.0904 21.4215 47.1103 21.4025 47.1312 21.4215C47.1511 21.4392 47.1919 21.4392 47.1919 21.4025C47.1919 21.384 47.1919 21.3659 47.2118 21.3659C47.2327 21.3659 47.3138 21.3474 47.3754 21.3099C47.4774 21.2732 47.4774 21.2732 47.3963 21.2366V21.2366ZM46.9888 21.3482C47.0087 21.3482 47.0495 21.3302 47.0699 21.3107C47.0699 21.2741 47.0495 21.2741 47.0087 21.2931C46.9272 21.3107 46.9072 21.3482 46.9888 21.3482V21.3482ZM46.6625 21.5871C46.6824 21.5686 46.6416 21.5501 46.6008 21.5501C46.5392 21.532 46.5188 21.5501 46.5188 21.5871C46.56 21.6428 46.6416 21.6428 46.6625 21.5871V21.5871ZM46.2336 21.8083C46.1515 21.8454 46.1311 21.882 46.1919 21.882C46.2336 21.882 46.2535 21.8634 46.2743 21.8259C46.2943 21.8083 46.2743 21.7893 46.2336 21.8083V21.8083ZM46.2129 21.7539C46.2746 21.7363 46.2945 21.7173 46.2746 21.6979C46.2746 21.6802 46.2338 21.6979 46.1921 21.7363C46.1518 21.7729 46.1518 21.7905 46.2129 21.7539V21.7539ZM45.5392 22.1221L45.396 22.213C45.2736 22.3057 45.2329 22.3423 45.3149 22.3423C45.3348 22.3423 45.396 22.2871 45.4576 22.2324L45.5392 22.1221ZM43.8859 19.4856C43.8859 19.5408 43.9271 19.5408 44.3146 19.4296C44.4981 19.3749 44.6816 19.2831 44.7229 19.2456C44.784 19.2085 44.8253 19.1719 44.8452 19.1719C44.8656 19.1719 44.9884 19.0987 45.1103 19.0245C45.2331 18.9328 45.3351 18.8767 45.3559 18.8767C45.3759 18.8767 45.9274 18.4712 46.0085 18.3794C46.0493 18.3238 46.1517 18.232 46.2337 18.1574C46.3153 18.1027 46.458 17.9368 46.5391 17.8256L46.7027 17.605H46.4988C46.192 17.605 45.723 17.789 45.4987 17.9924C45.1923 18.2501 45.1719 18.2686 45.1516 18.2686C45.0491 18.2686 43.8859 19.3749 43.8859 19.4856V19.4856ZM46.7029 18.14C46.7029 18.1766 46.6825 18.2132 46.6417 18.2132C46.4781 18.2508 46.3557 18.3245 46.3557 18.3977C46.3557 18.4343 46.3353 18.4538 46.3154 18.4538C46.2746 18.4343 46.2538 18.4718 46.2338 18.546C46.213 18.6197 46.1722 18.6748 46.1518 18.6748C46.0911 18.6748 45.5804 19.0799 45.56 19.136C45.56 19.1911 45.6416 19.1726 45.7639 19.0627C45.8251 19.0252 45.9066 18.97 45.9275 18.97C45.9683 18.97 46.0911 18.8588 46.2338 18.73C46.6208 18.3611 46.7436 18.2693 46.7844 18.2693C46.8252 18.2693 46.8461 18.2508 46.8461 18.2327C46.8461 18.2132 46.9272 18.1034 47.0087 18.0107L47.1923 17.7896C47.1923 17.753 47.2122 17.6793 47.233 17.6237C47.2942 17.4763 47.2942 17.4578 47.2122 17.4944C47.1723 17.513 47.1315 17.5681 47.1107 17.6423C47.0908 17.7711 46.8252 18.0663 46.7436 18.0663C46.7228 18.0663 46.7029 18.1034 46.7029 18.14V18.14ZM51.4757 19.4856C51.4757 19.5408 51.5165 19.5408 51.9044 19.4296C52.0889 19.3749 52.2724 19.2831 52.3127 19.2456C52.3744 19.2085 52.4151 19.1719 52.436 19.1719C52.4559 19.1719 52.5778 19.0987 52.7002 19.0245C52.823 18.9328 52.9249 18.8767 52.9449 18.8767C52.9657 18.8767 53.5172 18.4712 53.5993 18.3794C53.64 18.3238 53.742 18.232 53.8236 18.1574C53.9042 18.1027 54.0469 17.9368 54.1294 17.8256L54.293 17.605H54.0887C53.7828 17.605 53.3128 17.789 53.0885 17.9924C52.7822 18.2501 52.7613 18.2686 52.7414 18.2686C52.6395 18.2686 51.4757 19.3749 51.4757 19.4856V19.4856ZM54.2932 18.14C54.2932 18.1766 54.2723 18.2132 54.2316 18.2132C54.068 18.2508 53.9451 18.3245 53.9451 18.3977C53.9451 18.4343 53.9252 18.4538 53.9044 18.4538C53.8645 18.4343 53.8446 18.4718 53.8237 18.546C53.8029 18.6197 53.7625 18.6748 53.7422 18.6748C53.681 18.6748 53.1703 19.0799 53.1494 19.136C53.1494 19.1911 53.2314 19.1726 53.3538 19.0627C53.4154 19.0252 53.4975 18.97 53.5174 18.97C53.5582 18.97 53.681 18.8588 53.8237 18.73C54.2107 18.3611 54.3335 18.2693 54.3743 18.2693C54.4151 18.2693 54.4359 18.2508 54.4359 18.2327C54.4359 18.2132 54.517 18.1034 54.5986 18.0107L54.7831 17.7896C54.7831 17.753 54.803 17.6793 54.8238 17.6237C54.885 17.4763 54.885 17.4578 54.803 17.4944C54.7622 17.513 54.7214 17.5681 54.701 17.6423C54.6811 17.7711 54.4151 18.0663 54.3335 18.0663C54.3131 18.0663 54.2932 18.1034 54.2932 18.14V18.14ZM67.148 19.4126C67.148 19.5039 67.1072 19.578 66.679 20.187C66.5766 20.3334 66.4746 20.4813 66.4746 20.4998C66.4746 20.5179 65.8833 21.2928 65.8225 21.3479C65.8017 21.3479 65.7405 21.4587 65.6798 21.569C65.5978 21.6974 65.5162 21.8267 65.4754 21.8642C65.4342 21.9008 65.3118 22.012 65.2298 22.1228L64.9031 22.4723C64.8011 22.564 64.6996 22.6567 64.6996 22.6762C64.6996 22.6933 64.6792 22.7128 64.6588 22.7128C64.6185 22.7128 64.5161 22.786 64.3933 22.8778C63.9845 23.2291 63.3936 23.4867 63.1693 23.4501L62.8625 23.394C62.6989 23.3574 62.4134 23.1364 62.3726 22.9885C62.3518 22.9338 62.2498 22.8412 62.1683 22.7679C61.9444 22.6201 61.8628 22.4171 61.8221 21.9379C61.8012 21.4031 61.9036 20.7941 62.209 19.8366L62.5969 18.5269C62.5969 18.4718 62.6178 18.361 62.6586 18.2873C62.6785 18.1956 62.6785 18.1399 62.6377 18.1399C62.5969 18.1399 62.577 18.158 62.577 18.1956C62.577 18.2132 62.5353 18.2692 62.495 18.3059C62.3726 18.4166 62.4134 18.2692 62.5562 18.1399C62.6989 17.993 62.8013 17.8262 62.7397 17.8262C62.6785 17.8262 62.5353 17.974 62.3726 18.1766L62.0264 18.5459L61.7604 18.8587L61.5157 19.1169C61.3929 19.2462 61.3113 19.357 61.3113 19.3755C61.3113 19.4126 61.2905 19.4302 61.2706 19.4302C61.2293 19.4302 61.0861 19.6522 61.107 19.7073C61.107 19.7254 61.0861 19.7439 61.0662 19.7254C61.0259 19.7073 60.9642 19.7805 60.9026 19.8732C60.8414 19.9835 60.638 20.2788 60.4336 20.5364C60.25 20.7765 60.0865 21.0161 60.0865 21.0346C60.0865 21.0527 60.0457 21.1454 59.984 21.2196C59.9238 21.2928 59.8821 21.3479 59.9029 21.3665C59.9238 21.3845 59.9238 21.3845 59.9238 21.3479C59.9238 21.3104 59.9641 21.2928 59.984 21.2928C60.0049 21.2928 59.984 21.3665 59.9238 21.4397C59.8621 21.5324 59.7801 21.6608 59.7393 21.7534C59.6777 21.8267 59.5767 21.9935 59.4752 22.1038C59.3931 22.2136 59.3116 22.3429 59.3116 22.3624C59.3116 22.3805 59.2907 22.399 59.2708 22.399C59.2499 22.399 59.1888 22.4542 59.1688 22.5274C59.0863 22.7128 58.7601 23.192 58.6581 23.2842C58.6173 23.3208 58.5348 23.4307 58.4746 23.5234C58.1886 24.0582 58.026 24.3534 58.0051 24.4637C57.9435 24.6111 57.8823 24.6477 57.6988 24.6296C57.6172 24.6296 57.5152 24.593 57.4536 24.5559C57.3725 24.5003 57.29 24.4827 57.2288 24.4827C57.1264 24.4637 56.4743 23.9298 56.4743 23.8552C56.4743 23.8371 56.4331 23.782 56.3724 23.7259C56.1272 23.4867 56.1879 23.0261 56.5768 21.6065C56.6551 21.3266 56.7492 21.0087 56.8479 20.6833C55.699 21.8318 53.5305 23.8834 51.8227 23.7259C51.7416 23.7259 51.4756 23.6712 51.2513 23.616C50.4759 23.394 49.9652 22.8778 49.6186 21.9379C49.4957 21.6065 49.4758 21.4397 49.4758 21.1454C49.4758 20.9058 49.455 20.7765 49.4142 20.7941C49.365 20.8284 49.3641 20.7111 49.3919 20.5485C48.2843 21.6626 46.0083 23.8895 44.2328 23.7259C44.1513 23.7259 43.8857 23.6712 43.6614 23.616C42.8856 23.394 42.3758 22.8778 42.0287 21.9379C41.9059 21.6065 41.8855 21.4397 41.8855 21.1454C41.8855 20.9058 41.8651 20.7765 41.8243 20.7941C41.7427 20.8502 41.7835 20.5179 41.8855 20.2046C42.1102 19.5414 42.4161 18.9876 43.0895 18.1214C43.3759 17.771 43.8245 17.3289 44.2124 17.0522C44.2741 17.0156 44.4571 16.9049 44.6207 16.7756L44.9271 16.554C44.9679 16.4993 45.7228 16.149 45.8656 16.1304C45.9471 16.1124 46.2942 16.1124 46.3554 16.1304C46.4171 16.149 46.7642 16.1304 46.9069 16.2959C46.9269 16.333 47.0696 16.3144 47.1312 16.37L47.4163 16.554C47.7027 16.7385 47.8046 17.0708 47.8862 17.4031C47.9478 17.6237 47.8245 18.0296 47.6202 18.4342C47.4983 18.6562 46.9468 19.2277 46.5389 19.5414L46.2535 19.7805C46.2127 19.8366 45.3757 20.2417 45.0286 20.3705C44.8654 20.4447 44.7227 20.4998 44.7023 20.5364C44.6814 20.5554 44.5591 20.574 44.4164 20.574C44.0697 20.574 43.7833 20.4261 43.641 20.187C43.5187 19.9835 43.4779 20.0201 43.2735 20.3705L43.1099 20.6291C43.0691 20.6657 42.9472 20.9609 42.8045 21.2928C42.7021 21.5875 42.6613 21.9745 42.7428 22.0853C42.8249 22.2136 43.1919 22.3429 43.6206 22.399C44.3756 22.4723 45.1101 22.2136 45.8248 21.8461C46.2743 21.6241 46.8249 21.3665 46.8457 21.3845C46.8861 21.4031 46.8861 21.4031 46.8661 21.3665C46.8661 21.3479 46.9468 21.2738 47.0696 21.2006C47.1919 21.1454 47.3755 21.0346 47.4774 20.9424C47.5798 20.8692 47.6818 20.8136 47.6818 20.8326C47.7027 20.8502 47.7226 20.8502 47.7226 20.8136C47.7226 20.7765 47.7842 20.7575 47.8454 20.7575C47.907 20.7575 47.9678 20.7209 47.9881 20.6657C48.009 20.6291 48.0498 20.6106 48.0697 20.6106C48.0906 20.6291 48.1517 20.6291 48.2134 20.6291H48.2333H48.2732C48.2732 20.6843 48.2532 20.7209 48.2333 20.7209H48.1925C48.1925 20.7399 48.1717 20.7399 48.1314 20.7209C48.0906 20.7033 48.0697 20.7033 48.0697 20.7399C48.0697 20.7575 47.9881 20.8326 47.8862 20.8868C47.8046 20.9234 47.7226 20.9976 47.7226 21.0161C47.7226 21.0346 47.7027 21.0527 47.6818 21.0346C47.6619 21.0346 47.6002 21.0527 47.5391 21.0902C47.4163 21.1635 47.4163 21.1635 47.4983 21.2196C47.5599 21.2372 47.6002 21.2372 47.641 21.2006C47.6818 21.182 47.7226 21.1635 47.7434 21.182C47.7638 21.2006 47.7842 21.182 47.8046 21.1079C47.8245 21.0527 47.8454 21.0161 47.8862 21.0346C47.907 21.0527 48.009 21.0161 48.1114 20.9795C48.294 20.8868 48.1717 20.7941 48.2732 20.7765C48.294 20.7765 48.314 20.7399 48.314 20.7033C48.314 20.6291 48.3348 20.6291 48.3756 20.6657C48.4576 20.7209 48.5183 20.7033 48.5183 20.6106C48.5183 20.574 48.4984 20.592 48.4576 20.6291C48.4159 20.6843 48.4159 20.6843 48.4159 20.6106C48.4159 20.5554 48.4775 20.5179 48.6203 20.4627C48.7227 20.4447 49.2738 20.0943 49.2738 20.0758C49.2738 20.0391 49.2946 20.0392 49.3354 20.0577C49.3762 20.0758 49.4174 20.0577 49.4174 20.0392C49.4174 20.0025 49.4582 19.9659 49.499 19.9659C49.5796 19.9659 49.5796 19.9659 49.499 19.9465C49.5078 19.9465 49.5402 19.9492 49.5764 19.9465C49.7942 19.3903 50.0959 18.8727 50.6799 18.1214C50.9658 17.771 51.4144 17.3289 51.8019 17.0522C51.8635 17.0156 52.0479 16.9049 52.2106 16.7756L52.517 16.554C52.5577 16.4993 53.3127 16.149 53.4554 16.1304C53.5379 16.1124 53.8841 16.1124 53.9448 16.1304C54.006 16.149 54.3536 16.1304 54.4963 16.2959C54.5167 16.333 54.6599 16.3144 54.7211 16.37L55.0071 16.554C55.2925 16.7385 55.395 17.0708 55.4761 17.4031C55.5377 17.6237 55.4149 18.0296 55.2105 18.4342C55.0891 18.6562 54.5376 19.2277 54.1293 19.5414L53.8443 19.7805C53.8026 19.8366 52.9656 20.2417 52.6185 20.3705C52.4558 20.4447 52.3126 20.4998 52.2926 20.5364C52.2723 20.5554 52.149 20.574 52.0062 20.574C51.6591 20.574 51.3736 20.4261 51.2314 20.187C51.1085 19.9835 51.0678 20.0201 50.8638 20.3705L50.7002 20.6291C50.6595 20.6657 50.5371 20.9609 50.3944 21.2928C50.2924 21.5875 50.2507 21.9745 50.3327 22.0853C50.4143 22.2136 50.7823 22.3429 51.211 22.399C51.9655 22.4723 52.7 22.2136 53.4151 21.8461C53.8642 21.6241 54.4148 21.3665 54.4356 21.3845C54.4764 21.4031 54.4764 21.4031 54.4556 21.3665C54.4556 21.3479 54.5376 21.2738 54.6599 21.2006C54.7828 21.1454 54.9663 21.0346 55.0682 20.9424C55.1707 20.8692 55.2717 20.8136 55.2717 20.8326C55.2925 20.8502 55.3125 20.8502 55.3125 20.8136C55.3125 20.7765 55.3741 20.7575 55.4353 20.7575C55.496 20.7575 55.5576 20.7209 55.5785 20.6657C55.5984 20.6291 55.6397 20.6106 55.6596 20.6106C55.6805 20.6291 55.7421 20.6291 55.8023 20.6291H55.8232H55.864C55.864 20.6843 55.8441 20.7209 55.8232 20.7209H55.7824C55.7824 20.7399 55.762 20.7399 55.7212 20.7209C55.6805 20.7033 55.6596 20.7033 55.6596 20.7399C55.6596 20.7575 55.5785 20.8326 55.4761 20.8868C55.395 20.9234 55.3125 20.9976 55.3125 21.0161C55.3125 21.0346 55.2925 21.0527 55.2717 21.0346C55.2513 21.0346 55.1906 21.0527 55.1299 21.0902C55.0071 21.1635 55.0071 21.1635 55.0891 21.2196C55.1507 21.2372 55.1906 21.2372 55.2314 21.2006C55.2717 21.182 55.3125 21.1635 55.3333 21.182C55.3533 21.2006 55.3741 21.182 55.395 21.1079C55.4149 21.0527 55.4353 21.0161 55.4761 21.0346C55.496 21.0527 55.5984 21.0161 55.7004 20.9795C55.8848 20.8868 55.762 20.7941 55.864 20.7765C55.8848 20.7765 55.9048 20.7399 55.9048 20.7033C55.9048 20.6291 55.9256 20.6291 55.9659 20.6657C56.0475 20.7209 56.1091 20.7033 56.1091 20.6106C56.1091 20.574 56.0892 20.592 56.0475 20.6291C56.0067 20.6843 56.0067 20.6843 56.0067 20.6106C56.0067 20.5554 56.0684 20.5179 56.2111 20.4627C56.3135 20.4447 56.8641 20.0943 56.8641 20.0758C56.8641 20.0391 56.8845 20.0392 56.9253 20.0577C56.9661 20.0758 57.0068 20.0577 57.0068 20.0392C57.0068 20.009 57.0356 19.984 57.0685 19.9738C57.2886 19.2763 57.5032 18.6377 57.6172 18.361C57.9235 17.6422 57.9235 17.6056 57.8624 17.568C57.8216 17.5314 57.8216 17.4944 57.8624 17.4031C58.0051 17.0888 58.1478 16.6282 58.1279 16.5726C58.1279 16.5359 58.1687 16.4993 58.2493 16.4623L58.4537 16.37C58.5149 16.351 58.5756 16.351 58.6173 16.4066C58.678 16.4437 58.6984 16.4623 58.78 16.4066C58.862 16.37 58.9237 16.37 59.1072 16.4437C59.2096 16.4993 59.3315 16.554 59.3727 16.554C59.4335 16.554 59.617 16.8126 59.7393 17.0337C59.8413 17.2548 59.8005 17.4397 59.3315 18.6562C59.0256 19.5039 58.9644 19.6707 58.78 20.0758L58.5965 20.5179C58.5756 20.574 58.6372 20.5179 58.7193 20.3895C58.8008 20.2602 58.862 20.2046 58.882 20.2417C58.9028 20.2602 58.9436 20.2602 58.9644 20.2046C59.0052 20.1495 59.0256 20.1309 59.0256 20.1495C59.0256 20.2236 58.9028 20.4998 58.78 20.6472C58.6372 20.8136 58.5756 20.8326 58.678 20.6657C58.7392 20.574 58.7392 20.574 58.6581 20.6106C58.6173 20.6472 58.5756 20.6657 58.5557 20.6472C58.5348 20.6291 58.5348 20.6657 58.5348 20.7033C58.5348 20.8136 58.4129 21.2196 58.3513 21.2562C58.3309 21.2562 58.311 21.3845 58.2901 21.5324C58.2493 21.6798 58.2086 21.8642 58.1687 21.9194C58.1279 21.9935 58.0867 22.0672 58.1071 22.0853C58.1279 22.1038 58.2086 21.9745 58.2901 21.8267C58.5348 21.3479 58.862 20.7399 58.9237 20.6657C58.9436 20.6291 58.9644 20.5554 58.9644 20.5364L59.0664 20.3163C59.1888 20.1128 60.0865 18.8963 60.1272 18.8963C60.1884 18.8963 59.7393 19.5961 59.6369 19.6888C59.5767 19.7439 59.5349 19.8 59.5349 19.8172C59.5349 19.8366 59.4752 19.9098 59.4135 19.9835C59.2096 20.2236 58.8416 20.8868 58.882 20.9424C58.9237 20.9609 59.0256 20.8326 59.128 20.6657L59.23 20.5364C59.2708 20.4998 59.617 20.0201 59.617 19.9835C59.617 19.9659 59.6985 19.8542 59.8005 19.7439L60.0049 19.4673L60.3729 18.951C60.4947 18.8041 60.5972 18.6928 60.618 18.7114C60.638 18.7299 60.638 18.7114 60.618 18.6928C60.5972 18.6562 60.638 18.6001 60.6991 18.5459C60.7608 18.4903 60.8016 18.4342 60.8016 18.4166C60.8016 18.361 60.9234 18.2132 61.2706 17.7896C61.3929 17.6607 61.4337 17.568 61.3929 17.587C61.2706 17.6237 61.3113 17.5129 61.4749 17.347C61.6993 17.1074 61.5968 17.1255 61.3313 17.366C61.005 17.6793 60.8414 17.771 61.0259 17.568L61.1885 17.366C61.1885 17.347 61.3929 17.163 61.6376 16.9595C61.9847 16.6648 62.1075 16.5911 62.229 16.5911C62.3115 16.5911 62.3726 16.5726 62.3926 16.5359C62.4334 16.4437 63.2101 16.351 63.312 16.4252C63.332 16.4437 63.3737 16.4437 63.414 16.4437C63.4335 16.4252 63.4738 16.4437 63.4946 16.4993C63.5354 16.554 63.5971 16.5726 63.699 16.554C63.8826 16.5359 64.2913 16.7575 64.3733 16.9415C64.4753 17.163 64.4753 17.7163 64.3733 18.158C64.2097 18.8773 64.169 19.0432 64.0869 19.2277C64.0461 19.338 63.9845 19.5229 63.9646 19.6522L63.7806 20.2046L63.5762 20.8692L63.3936 21.4772C63.2912 21.7724 63.2101 22.1404 63.23 22.2136C63.2713 22.2878 63.8418 21.9935 64.3117 21.569L64.4952 21.4031C64.4952 21.4397 64.4753 21.4772 64.4952 21.5138C64.4952 21.5324 64.4753 21.5505 64.4341 21.5505C64.4141 21.5505 64.3733 21.569 64.3525 21.6065C64.3321 21.6608 64.3321 21.6608 64.3933 21.6065C64.4141 21.569 64.4341 21.5505 64.4341 21.5875C64.4341 21.6065 64.4753 21.5875 64.536 21.5505C64.5777 21.5138 64.5977 21.5138 64.5777 21.5505C64.5569 21.5875 64.5569 21.6431 64.5777 21.6974C64.6185 21.7534 64.6185 21.7901 64.5569 21.8267C64.4753 21.8642 64.4753 21.8642 64.536 21.8642C64.5777 21.8642 64.6384 21.8461 64.6384 21.8267C64.6588 21.7901 64.6996 21.7724 64.7395 21.7901C64.7803 21.8091 64.7395 21.8642 64.5977 22.012C64.4952 22.1038 64.4341 22.1965 64.4753 22.177C64.6384 22.1228 65.0254 21.8461 65.0463 21.7724C65.0871 21.6974 65.1074 21.6974 65.1274 21.7534C65.1482 21.7724 65.1691 21.7901 65.1691 21.7534C65.1691 21.7358 65.2298 21.6608 65.291 21.6065C65.3526 21.5505 65.3934 21.4772 65.3934 21.4587C65.3735 21.4221 65.3934 21.4221 65.4138 21.4397C65.4754 21.4958 65.6381 21.3299 65.5978 21.2196C65.5978 21.1635 65.5978 21.1269 65.6182 21.1269C65.6589 21.1269 66.1076 20.5364 66.2712 20.3529C66.4338 20.1495 66.4955 19.8732 66.5363 19.8542C66.5974 19.8366 66.7402 19.9098 66.7202 19.8366C66.6999 19.7625 66.6999 19.7625 66.7402 19.8172C66.8018 19.8908 66.8018 19.8732 66.8834 19.7073C66.9446 19.578 66.9446 19.578 66.8834 19.6522C66.8426 19.6888 66.8018 19.7073 66.781 19.6888C66.6591 19.5595 66.761 19.4496 67.027 19.4126C67.1272 19.3203 67.1271 19.3203 67.148 19.4126V19.4126ZM66.0459 20.2963C66.0269 20.2597 65.2502 21.0897 65.2502 21.1449C65.2502 21.163 65.4754 21.0897 65.5162 21.0341C65.557 20.9971 65.8425 20.5735 65.9041 20.5174C65.9449 20.4808 66.0668 20.2963 66.0459 20.2963V20.2963ZM64.8421 21.4583C64.7605 21.4954 64.659 21.5686 64.6386 21.5871C64.5571 21.6794 64.6187 21.6604 64.7206 21.5871L64.9236 21.4393C64.9848 21.4027 64.9649 21.4027 64.8421 21.4583V21.4583ZM65.4757 21.3475C65.4757 21.366 65.4957 21.3841 65.5364 21.366C65.5573 21.3475 65.5777 21.31 65.5777 21.2924C65.5777 21.2733 65.5573 21.2557 65.5364 21.2733C65.5165 21.2924 65.4757 21.3294 65.4757 21.3475V21.3475ZM61.6179 19.19C61.5567 19.3193 61.5567 19.3193 61.6587 19.2266C61.7607 19.1533 61.8014 19.0787 61.7203 19.0787C61.6995 19.0787 61.6587 19.1348 61.6179 19.19V19.19ZM64.5976 21.2918C64.5568 21.2918 64.516 21.347 64.4952 21.4021L64.6185 21.3094L64.5976 21.2918ZM64.7604 21.6428C64.7396 21.6428 64.7396 21.6604 64.7396 21.697C64.7396 21.7165 64.7604 21.7355 64.7803 21.7355C64.8221 21.7355 64.8221 21.7165 64.8012 21.697C64.8012 21.6604 64.7604 21.6428 64.7604 21.6428V21.6428ZM64.536 21.4949L64.6384 21.4022C64.8419 21.2187 65.3118 21.1812 65.1482 21.0519L65.291 20.9601C65.3317 20.9049 66.1076 20.0383 66.1076 20.0193C66.1076 20.0017 66.0668 20.0193 66.0061 20.0749L64.9438 21.0519L64.6185 21.3095C64.6185 21.329 64.5976 21.3656 64.5976 21.4022L64.536 21.4949ZM60.5971 20.4803C60.5563 20.5169 60.5355 20.5354 60.5563 20.5354C60.5772 20.5354 60.618 20.5169 60.6379 20.4803C60.6791 20.4436 60.6991 20.4061 60.6791 20.4061L60.5971 20.4803ZM61.3731 19.5219C61.3115 19.6322 61.3115 19.6322 61.3731 19.5404C61.4338 19.5029 61.4542 19.4292 61.4542 19.4116C61.4542 19.356 61.4338 19.3926 61.3731 19.5219V19.5219ZM60.4947 20.6104C60.4747 20.6289 60.4335 20.647 60.4335 20.647C60.4335 20.6655 60.4543 20.6655 60.4947 20.6655C60.5155 20.6655 60.5354 20.647 60.5354 20.6289C60.5354 20.5918 60.5155 20.5918 60.4947 20.6104V20.6104ZM61.0459 19.8724C61.0259 19.909 61.0051 19.9651 61.0051 19.9827C61.0051 20.0017 61.0259 20.0017 61.0459 19.9651C61.0862 19.9275 61.1071 19.8724 61.1071 19.8534C61.1071 19.8358 61.0862 19.8358 61.0459 19.8724V19.8724ZM66.8226 19.2841C66.8018 19.2841 66.761 19.3207 66.7401 19.3573C66.7202 19.4129 66.7202 19.4129 66.7809 19.3759C66.863 19.3013 66.8834 19.2841 66.8226 19.2841V19.2841ZM60.3112 18.7657C60.3728 18.655 60.3728 18.655 60.2908 18.7467C60.25 18.7843 60.2092 18.8394 60.2092 18.876C60.2092 18.9321 60.2291 18.895 60.3112 18.7657V18.7657ZM66.557 19.6514C66.6186 19.6699 66.7002 19.688 66.6186 19.5406C66.6594 19.5221 66.6594 19.5031 66.6594 19.4855C66.6385 19.4665 66.5769 19.5031 66.5162 19.5772C66.4749 19.6514 66.3734 19.7431 66.3123 19.8164C66.2506 19.8724 66.2098 19.9457 66.2098 19.9651C66.2506 20.0569 66.6594 19.8164 66.557 19.6514V19.6514ZM61.107 17.7887C61.1885 17.6965 61.1885 17.6599 61.1478 17.6784C61.107 17.6965 61.0458 17.7336 61.0259 17.7887C60.9434 17.8995 60.8618 17.9547 60.8414 17.8814C60.8215 17.8629 60.8016 17.8629 60.7608 17.8995C60.7399 17.918 60.7608 17.9732 60.7816 17.9732C60.8414 18.0098 60.4748 18.4158 60.2292 18.6554C60.2093 18.692 60.2093 18.7105 60.2292 18.7105C60.2709 18.7105 60.9642 17.9922 61.107 17.7887V17.7887ZM66.1076 20.131C66.1275 20.1129 66.1483 20.0578 66.1483 20.0203C66.1275 20.0026 66.1076 20.0203 66.0867 20.0759C66.0668 20.1496 66.0668 20.1676 66.1076 20.131V20.131ZM66.2294 20.2039C66.291 20.1487 66.3118 20.0936 66.3118 20.075C66.2711 20.057 66.1274 20.2039 66.1274 20.2595C66.1274 20.2961 66.1686 20.2595 66.2294 20.2039V20.2039ZM56.66 20.0203C56.6401 20.0203 56.5984 20.0203 56.5984 20.0027L56.2322 20.2419C56.2322 20.2604 56.2522 20.2604 56.2522 20.279C56.2522 20.297 56.6809 20.0203 56.66 20.0203V20.0203ZM56.1915 20.259C56.1706 20.259 56.1502 20.2956 56.1502 20.2956L56.2322 20.2404C56.2322 20.2404 56.2114 20.2404 56.1915 20.259V20.259ZM56.0275 20.4436C56.0067 20.406 55.9659 20.4616 55.9255 20.5353C55.9455 20.5168 55.9867 20.4987 56.0067 20.4987C56.0474 20.4987 56.0474 20.4802 56.0275 20.4436V20.4436ZM57.1496 19.6711C57.1496 19.6711 57.0889 19.6892 57.0277 19.7258C56.9869 19.7629 56.966 19.8004 56.9869 19.8004C57.0685 19.8004 57.1913 19.7077 57.1496 19.6711V19.6711ZM55.9256 20.5369C55.8848 20.5559 55.864 20.5744 55.864 20.611C55.864 20.611 55.8848 20.611 55.8848 20.5925C55.8848 20.5744 55.9047 20.5559 55.9256 20.5369V20.5369ZM49.0702 20.0203C49.0502 20.0203 49.0095 20.0203 49.0095 20.0027L48.6415 20.2419C48.6415 20.2604 48.6623 20.2604 48.6623 20.279C48.6623 20.297 49.0906 20.0203 49.0702 20.0203V20.0203ZM48.4369 20.4436C48.416 20.406 48.3757 20.4616 48.3349 20.5353C48.3553 20.5168 48.3961 20.4987 48.416 20.4987C48.4577 20.4987 48.4577 20.4802 48.4369 20.4436V20.4436ZM49.5599 19.6711C49.5599 19.6711 49.4992 19.6892 49.4375 19.7258C49.3972 19.7629 49.3763 19.8004 49.3972 19.8004C49.4783 19.8004 49.6006 19.7077 49.5599 19.6711V19.6711ZM48.6005 20.259C48.5796 20.259 48.5597 20.2956 48.5597 20.2956L48.6412 20.2404C48.6412 20.2404 48.6204 20.2404 48.6005 20.259V20.259ZM48.3348 20.5369C48.2941 20.5559 48.2732 20.5744 48.2732 20.611C48.2732 20.611 48.2941 20.611 48.2941 20.5925C48.2941 20.5744 48.314 20.5559 48.3348 20.5369V20.5369ZM39.8869 16.831C39.8665 16.8129 39.8461 16.831 39.8461 16.8495C39.8461 16.8866 39.8257 16.8866 39.7849 16.8676C39.7437 16.8495 39.7437 16.8495 39.7641 16.8866C39.8053 16.9417 39.8869 16.9598 39.9073 16.9051C39.9277 16.8676 39.9277 16.8495 39.8869 16.831V16.831ZM39.764 17.0329C39.8053 16.9587 39.7233 16.9772 39.6213 17.0699C39.5805 17.1246 39.5193 17.1436 39.4989 17.1436C39.4786 17.1246 39.4582 17.1436 39.4786 17.1802C39.4989 17.2358 39.5193 17.2358 39.6213 17.1622C39.6829 17.1246 39.764 17.0699 39.764 17.0329V17.0329ZM38.7645 17.4199C38.8456 17.3458 39.1723 16.995 39.1723 16.9769C39.1723 16.9584 39.1927 16.9403 39.2339 16.9403C39.2747 16.9403 39.3155 16.9217 39.3155 16.9037C39.3155 16.8851 39.3563 16.8295 39.4379 16.8114C39.5602 16.7373 39.601 16.6636 39.4786 16.6636C39.417 16.6636 38.4377 17.5669 38.2741 17.7698C38.213 17.8435 38.0906 17.9918 38.0095 18.0651C37.9479 18.1388 37.8867 18.2314 37.8867 18.2314C37.8867 18.3047 37.7435 18.3964 37.6823 18.3788C37.6415 18.3598 37.6415 18.3598 37.6624 18.3964C37.6823 18.4154 37.6008 18.599 37.4784 18.7843C37.3561 18.9864 37.2541 19.1713 37.2541 19.1899C37.2541 19.2265 37.2337 19.2265 37.1925 19.2265C37.1721 19.2079 37.1517 19.1532 37.1721 19.1157C37.1925 19.0615 37.1721 19.0054 37.1517 18.9864C37.1114 18.9688 37.0905 18.9864 37.1114 19.0239C37.1721 19.0786 37.0701 19.1899 36.9681 19.1713C36.9274 19.1532 36.9274 19.1713 36.9274 19.245C36.9681 19.3368 37.0497 19.3558 37.0497 19.2631C37.0497 19.2265 37.0701 19.1899 37.0905 19.1899C37.1317 19.1899 37.1517 19.2265 37.1517 19.245C37.1517 19.3368 36.7438 20.038 36.7031 20.019C36.6827 20.0014 36.6623 20.019 36.6623 20.0565C36.6623 20.0931 36.6414 20.1858 36.621 20.259C36.5807 20.4616 36.6623 20.4249 36.7642 20.2224C36.8249 20.1117 36.8657 20.038 36.8866 20.0565C36.907 20.0746 36.8866 20.1117 36.8657 20.1663C36.7846 20.2956 36.8045 20.3517 36.8866 20.2224C36.907 20.1483 36.9274 20.0565 36.9274 20.0014C36.907 19.9453 36.907 19.9087 36.9478 19.9087C36.9681 19.9087 37.0089 19.872 37.0089 19.8354C37.0089 19.7988 37.0293 19.7794 37.0497 19.7794C37.1317 19.7794 37.1114 19.9453 36.9478 20.2405C36.7846 20.5728 36.7438 20.6094 36.621 20.4986C36.5395 20.4249 36.5395 20.4249 36.5807 20.5167C36.6006 20.5909 36.5807 20.6645 36.5603 20.7197C36.5191 20.7753 36.5191 20.7929 36.5603 20.7753C36.6414 20.7387 36.621 20.8314 36.5395 20.9046C36.4987 20.9222 36.437 21.0701 36.4171 21.2184C36.3763 21.3653 36.3355 21.5127 36.3147 21.5312C36.2943 21.5678 36.2535 21.6786 36.2336 21.8079L36.2132 22.0109L36.4579 21.5863C36.5807 21.3653 36.7031 21.1623 36.7234 21.1623C36.7438 21.1442 36.7438 21.1257 36.7234 21.1067C36.7234 21.0891 36.7234 21.0701 36.7642 21.0701C36.8045 21.0701 36.8045 21.0149 36.7846 20.9598C36.7642 20.8856 36.7846 20.8314 36.8045 20.8124C36.8453 20.7929 36.8453 20.8314 36.8249 20.868C36.7846 20.9964 36.9681 20.7021 37.0701 20.4986L37.4784 19.7613C37.6008 19.5583 37.7027 19.3743 37.7435 19.3558C37.7643 19.3368 37.8459 19.2265 37.9071 19.0786C37.9683 18.9498 38.0498 18.8395 38.0702 18.8395C38.1105 18.8395 38.1722 18.7658 38.213 18.6916C38.2537 18.599 38.3358 18.5081 38.3766 18.4891C38.4377 18.4525 38.4581 18.4154 38.4377 18.3964C38.4377 18.3788 38.4581 18.3598 38.4989 18.3598C38.5402 18.3598 38.5606 18.3232 38.5402 18.3047C38.5402 18.2861 38.5606 18.2681 38.6009 18.2681C38.6417 18.2681 38.6625 18.2495 38.6625 18.212C38.6625 18.1944 38.6417 18.1754 38.6009 18.1944C38.5606 18.2314 38.5606 18.212 38.6213 18.1568C38.6417 18.1202 38.7237 18.0827 38.7844 18.0827C38.866 18.0827 38.8864 18.0827 38.8252 18.0461C38.7441 17.9918 38.7441 17.9918 38.8864 17.9728C38.9072 17.9728 39.1723 17.6781 39.1723 17.6595C39.1519 17.6225 39.2339 17.5302 39.3155 17.4385C39.3971 17.3648 39.4583 17.2726 39.4379 17.2536C39.417 17.1989 38.7237 17.8435 38.7237 17.8992C38.7237 17.9543 38.4581 18.212 38.4169 18.212C38.397 18.212 38.4377 18.1202 38.5402 17.9918C38.6213 17.8811 38.7033 17.7698 38.7237 17.7698C38.7441 17.7698 38.8048 17.6962 38.866 17.6044C38.9276 17.5117 39.2543 17.1618 39.2747 17.1433C39.3155 17.1243 39.3155 17.1243 39.2747 17.1243C39.2339 17.1243 38.9276 17.4385 38.8864 17.4932C38.7844 17.641 38.7237 17.6781 38.6417 17.6781C38.5193 17.6781 38.5606 17.5859 38.7645 17.4199V17.4199ZM36.8045 19.614C36.8248 19.7066 36.8248 19.7066 36.8452 19.614C36.8452 19.5773 36.8865 19.5222 36.9273 19.5032C36.9477 19.4856 36.9477 19.449 36.9273 19.4295C36.8865 19.3929 36.8045 19.5032 36.8045 19.614V19.614ZM37.6624 18.2325C37.7027 18.3242 37.8051 18.3423 37.7643 18.2505C37.7643 18.2325 37.7231 18.1954 37.7027 18.1954C37.6624 18.1764 37.6415 18.1954 37.6624 18.2325V18.2325ZM38.1314 17.7163C38.1314 17.7163 38.1518 17.7344 38.1722 17.7344C38.213 17.7344 38.2334 17.7163 38.2334 17.6792C38.2334 17.6607 38.213 17.6421 38.1722 17.6607C38.1518 17.6792 38.1314 17.6973 38.1314 17.7163V17.7163ZM38.3763 17.4751C38.3763 17.4931 38.3967 17.4931 38.4166 17.4931C38.4578 17.4751 38.4782 17.4565 38.4782 17.4385C38.4782 17.4199 38.4578 17.4199 38.4166 17.4199C38.3967 17.4199 38.3763 17.4385 38.3763 17.4751V17.4751ZM35.6616 19.3751C35.6412 19.3376 35.6412 19.3566 35.6412 19.4298C35.6412 19.4859 35.6412 19.5035 35.6616 19.4859C35.6825 19.4493 35.6825 19.3932 35.6616 19.3751V19.3751ZM35.6412 19.6893C35.6004 19.56 35.5597 19.6527 35.4985 19.8913C35.4985 19.984 35.4378 20.2422 35.3761 20.4452C35.315 20.6477 35.2941 20.8331 35.2941 20.8697C35.315 20.9063 35.2941 20.9429 35.2742 20.9429C35.2334 20.9614 35.213 21.0532 35.213 21.164C35.213 21.2743 35.1922 21.367 35.1718 21.3484C35.1718 21.3484 35.131 21.4036 35.111 21.4963L35.0494 21.7173C35.029 21.7363 35.0086 21.7905 35.0086 21.8272C34.9271 22.2517 34.8455 22.6206 34.8047 22.7309C34.7435 22.8602 34.7635 22.8602 34.8251 22.7865C34.8654 22.7309 34.8863 22.6767 34.8863 22.6396C34.8863 22.6206 34.9271 22.6206 34.947 22.6572C34.9878 22.7133 34.9878 22.7133 34.9674 22.6206C34.947 22.5645 34.947 22.5103 34.9878 22.4727L35.0902 22.1775L35.2334 21.5329C35.4378 20.7404 35.6004 20.0206 35.6004 19.8913C35.6004 19.8371 35.6004 19.781 35.6208 19.781C35.6412 19.781 35.6616 19.7444 35.6412 19.6893V19.6893ZM34.3787 20.5924C34.3583 20.5924 34.3171 20.5924 34.2967 20.6294C34.2355 20.6661 34.2559 20.6846 34.3171 20.6475C34.3583 20.6475 34.3986 20.6109 34.3787 20.5924V20.5924ZM31.2554 18.8775C31.2554 18.8224 31.1534 18.7672 31.0718 18.7672C31.031 18.7672 30.8675 19.2279 30.8675 19.3572C30.8675 19.3757 30.949 19.3011 31.0514 19.1727C31.1733 19.0434 31.2554 18.9141 31.2554 18.8775V18.8775ZM30.8065 18.9697C30.8065 18.9331 30.6837 19.0624 30.6633 19.1357C30.6021 19.264 30.6837 19.2274 30.7657 19.099C30.7861 19.043 30.8065 18.9874 30.8065 18.9697V18.9697ZM30.6837 19.5961C30.7249 19.578 30.7453 19.5228 30.7453 19.4302C30.7249 19.2642 30.6633 19.2091 30.6633 19.3569C30.6633 19.4302 30.6429 19.5038 30.6429 19.5414C30.6225 19.5961 30.6225 19.6146 30.6837 19.5961V19.5961ZM30.7658 20.1123C30.7454 20.1123 30.6838 20.1865 30.643 20.2782C30.5823 20.37 30.5211 20.4622 30.5007 20.4622C30.4803 20.4622 30.4803 20.4807 30.4803 20.4993C30.5007 20.5174 30.4391 20.757 30.358 21.0341C30.276 21.3099 30.1944 21.6426 30.174 21.7529C30.1536 21.8637 30.1124 21.974 30.092 22.0296C30.092 22.0667 30.092 22.1033 30.1124 22.1033C30.1536 22.1033 30.1944 21.993 30.2148 21.8637C30.2963 21.587 30.4187 21.219 30.4803 21.1073L30.7658 20.1865C30.8066 20.1304 30.8066 20.1123 30.7658 20.1123V20.1123ZM30.0715 21.2191C30.0715 21.2367 30.0919 21.2557 30.1327 21.2557C30.1536 21.2557 30.174 21.2367 30.174 21.2191C30.174 21.1816 30.1536 21.163 30.1327 21.163C30.0919 21.163 30.0715 21.1816 30.0715 21.2191V21.2191ZM30.2146 20.868C30.1738 20.9783 30.1534 21.0891 30.1738 21.0891C30.1942 21.0891 30.2146 21.0515 30.2146 21.0149C30.2146 20.9783 30.235 20.9412 30.2554 20.9598C30.2758 20.9783 30.2962 20.9046 30.2962 20.8124C30.3166 20.5909 30.3166 20.5909 30.2146 20.868V20.868ZM30.0308 20.4441C30.0716 20.389 30.4187 19.5408 30.4187 19.4491C30.4187 19.412 30.2556 19.5955 30.092 19.7995C30.0104 19.9278 29.9289 20.0386 29.9289 20.0571C29.9289 20.0752 29.908 20.1123 29.8876 20.1123C29.8677 20.1123 29.807 20.167 29.7657 20.2411C29.7046 20.3329 29.623 20.4441 29.5613 20.4993C29.5206 20.5549 29.4802 20.5915 29.5002 20.5915C29.5206 20.5915 29.4594 20.6466 29.3778 20.7393C29.2759 20.813 29.1943 20.8862 29.1943 20.9228C29.1943 20.9419 29.1331 21.0155 29.0719 21.0897C28.9899 21.1629 28.9292 21.2732 28.9088 21.3293C28.9088 21.4025 28.888 21.4581 28.8676 21.4767C28.8268 21.4952 28.8064 21.5318 28.786 21.587C28.7452 21.6792 28.8268 21.6792 28.9496 21.606C28.9899 21.5684 29.0923 21.4767 29.1535 21.384L29.541 20.997C29.6842 20.8686 29.8274 20.7027 29.8677 20.6466C29.908 20.5734 29.99 20.4993 30.0308 20.4441V20.4441ZM28.7244 21.384C28.7448 21.384 28.806 21.366 28.8467 21.3474C28.8875 21.3293 28.9084 21.3099 28.8671 21.3099C28.8467 21.3099 28.7856 21.3293 28.7448 21.3474C28.704 21.366 28.704 21.384 28.7244 21.384V21.384ZM28.48 21.4218L28.9898 20.8866C29.0515 20.7939 29.133 20.7206 29.1534 20.7206C29.1738 20.7206 29.1942 20.703 29.1738 20.684C29.1534 20.6655 29.1738 20.6103 29.2345 20.5552C29.2758 20.5176 29.3569 20.4259 29.3981 20.3527C29.4185 20.2785 29.5205 20.1673 29.5821 20.1126C29.6841 20.0199 29.7249 19.8906 29.6229 19.9462C29.5821 19.9657 29.5821 19.9657 29.6025 19.9281C29.6229 19.9096 29.6637 19.8906 29.6841 19.9096C29.7045 19.9096 29.7452 19.8906 29.786 19.854C29.8477 19.7803 29.8477 19.7803 29.7656 19.7998C29.6841 19.8364 29.6841 19.8364 29.7452 19.7071L29.9288 19.3933C30.0307 19.1908 30.0307 19.1908 30.0103 19.3567C29.9899 19.467 29.9899 19.486 30.0307 19.4123C30.0511 19.3752 30.0715 19.264 30.0715 19.2089C30.0715 19.1356 30.1123 19.0796 30.1327 19.0624C30.1739 19.043 30.1739 19.0624 30.1535 19.1166C30.1535 19.1723 30.1535 19.2089 30.1739 19.2089C30.2147 19.2089 30.4599 18.877 30.4599 18.8404C30.4599 18.8219 30.5007 18.7853 30.541 18.7477C30.5822 18.7111 30.6226 18.656 30.6226 18.6194C30.6226 18.5267 30.541 18.5828 30.3982 18.7853C30.3579 18.8585 30.2963 18.896 30.2963 18.896C30.2759 18.877 30.3371 18.7667 30.439 18.6374C30.6429 18.3974 30.6633 18.2324 30.541 17.7708C30.5007 17.5127 30.4803 17.5127 30.3371 17.5127C30.1943 17.5312 29.7249 17.7527 29.6637 17.8259C29.6433 17.8445 29.5409 17.9372 29.4185 17.9928C29.2962 18.066 29.1942 18.1212 29.1942 18.1578C29.1942 18.1763 29.133 18.2324 29.0515 18.269C28.8267 18.3608 27.4799 19.6329 27.4799 19.7437C27.4799 19.7622 27.3979 19.873 27.3163 19.9657C27.0308 20.3332 26.6832 20.9232 26.6832 21.0525C26.6832 21.1076 26.6629 21.1632 26.6425 21.2003C26.541 21.2925 26.3778 21.8088 26.2958 22.3061C26.2342 22.6013 26.1938 22.8409 26.1938 22.8409C26.1938 22.8594 26.2342 22.8594 26.2958 22.8594C26.3366 22.8594 26.4594 22.7858 26.541 22.7125C26.6425 22.6388 26.6832 22.6013 26.6629 22.6388C26.6425 22.6759 26.6832 22.6565 26.7449 22.5832C26.7852 22.5272 26.8265 22.5095 26.8056 22.5466C26.7852 22.5832 26.8056 22.5638 26.8672 22.5272C26.9289 22.472 26.9488 22.4169 26.9488 22.3988C26.9289 22.3802 26.9488 22.3622 26.9692 22.3802C26.9896 22.3988 27.0716 22.3622 27.1328 22.3061C27.194 22.2509 27.2959 22.1963 27.3367 22.1768C27.3775 22.1592 27.4183 22.1226 27.4183 22.1036C27.4183 22.0484 27.5003 21.9557 27.745 21.7356C27.8066 21.6605 27.8474 21.6239 27.8066 21.6795C27.745 21.7532 27.745 21.7722 27.827 21.6971C27.8678 21.6795 27.9086 21.6239 27.9086 21.5873C27.9086 21.5687 27.9693 21.4955 28.0101 21.4394C28.0713 21.3662 28.1121 21.3477 28.0917 21.3843C28.0509 21.4584 28.0917 21.4218 28.3572 21.1266C28.4184 21.071 28.5004 20.9607 28.5611 20.8689C28.7451 20.5737 29.0515 20.26 29.1738 20.26C29.2345 20.26 29.2758 20.2785 29.2549 20.2966C29.2345 20.316 29.1942 20.316 29.1534 20.316C29.0922 20.2785 28.9291 20.5176 28.9694 20.5552C29.0102 20.5918 28.7655 20.9056 28.6835 20.9422C28.6024 20.9792 28.1121 21.5687 28.1329 21.6063C28.1533 21.6429 28.1329 21.6605 28.0917 21.6795C28.0509 21.6971 28.0101 21.7722 28.0101 21.8264C28.0101 21.9191 27.9489 22.0299 27.7654 22.1768C27.643 22.3061 27.5406 22.4169 27.5814 22.4169C27.6227 22.4169 27.7042 22.3622 27.7654 22.3061C27.827 22.2509 27.9086 22.2134 27.9489 22.2134C27.9897 22.2329 28.0101 22.2134 28.0101 22.1963C28.0101 22.1592 28.031 22.1402 28.0713 22.1402C28.1329 22.1402 28.4592 21.7898 28.4592 21.7356C28.4592 21.7166 28.4184 21.7166 28.3781 21.7356C28.296 21.7532 28.296 21.7532 28.3781 21.6795L28.5412 21.6063C28.6024 21.6063 28.7247 21.4955 28.6835 21.4584C28.6835 21.4394 28.6223 21.4584 28.5815 21.5136C28.5208 21.5502 28.48 21.5873 28.4592 21.5873C28.3985 21.5687 28.2553 21.6795 28.2553 21.7356C28.2553 21.7532 28.2349 21.7898 28.1941 21.8088C28.0509 21.8459 28.1121 21.7898 28.48 21.4218V21.4218ZM27.3976 22.3628C27.4588 22.3628 27.969 21.9012 27.969 21.8466C27.969 21.8095 27.8064 21.9198 27.6224 22.0857L27.1937 22.4546C27.1529 22.4727 27.1325 22.5278 27.1325 22.5644C27.1325 22.5839 27.1937 22.5644 27.2549 22.4912C27.316 22.4175 27.3772 22.3628 27.3976 22.3628V22.3628ZM26.1936 19.227C26.1936 19.1904 26.214 19.1719 26.2339 19.1904C26.2548 19.1904 26.3364 19.1163 26.3975 19.006C26.4796 18.8957 26.5203 18.8215 26.4592 18.8581C26.4179 18.8957 26.3975 18.8957 26.3975 18.8767C26.3975 18.8215 26.1528 19.1719 25.9077 19.5589C25.6426 20.0195 25.7038 20.0571 25.9892 19.5955C26.1116 19.4296 26.1936 19.2456 26.1936 19.227V19.227ZM25.7041 19.9657C25.6837 19.9657 25.6633 20.0024 25.6429 20.0575L25.5817 20.2234C25.5201 20.3333 25.5817 20.2786 25.6837 20.1127C25.7244 20.039 25.7448 19.9657 25.7041 19.9657V19.9657ZM27.602 17.7528C27.6428 17.808 27.7244 17.808 27.7244 17.7528C27.7244 17.7343 27.7652 17.6972 27.8064 17.6972C27.9283 17.6606 28.255 17.3835 28.255 17.3103C28.255 17.2922 28.2958 17.2546 28.3162 17.2546C28.357 17.2366 28.357 17.2176 28.2958 17.2176C28.1734 17.2176 27.5608 17.6792 27.602 17.7528V17.7528ZM30.5611 18.8227C30.48 18.9515 30.378 19.0803 30.378 19.0803C30.3164 19.1174 30.2144 19.3014 30.2552 19.3014C30.2756 19.3014 30.398 19.173 30.5004 19.0256C30.7043 18.7675 30.8062 18.6007 30.7451 18.6007C30.7451 18.6007 30.663 18.6934 30.5611 18.8227V18.8227ZM29.7657 24.8498C29.7657 24.8132 29.7657 24.8132 29.7249 24.8688C29.7045 24.9231 29.6841 24.9981 29.6841 25.0348C29.6841 25.0714 29.7045 25.0714 29.7249 25.0158C29.7657 24.9615 29.7657 24.8865 29.7657 24.8498V24.8498ZM29.6433 25.2365C29.6025 25.2365 29.5821 25.274 29.5821 25.2921C29.5821 25.3658 29.6229 25.3482 29.6433 25.274C29.6637 25.2365 29.6637 25.2189 29.6433 25.2365V25.2365ZM29.5407 24.5185C29.5407 24.4078 29.4799 24.4629 29.4591 24.6103C29.4387 24.703 29.4387 24.7211 29.4799 24.6654C29.5203 24.6288 29.5407 24.5737 29.5407 24.5185V24.5185ZM29.4591 24.7765C29.4184 24.7399 29.398 24.7765 29.3776 24.9058L29.2756 25.1635C29.2344 25.2562 29.1737 25.4592 29.1533 25.6251L29.0513 26.1038C28.9897 26.2697 28.9897 26.343 29.0309 26.3064C29.0513 26.2887 29.1125 26.0853 29.1737 25.8652C29.3363 25.3113 29.3164 25.3489 29.4184 25.0527C29.4591 24.9234 29.48 24.7951 29.4591 24.7765V24.7765ZM29.2346 26.5828C29.2346 26.5643 29.2346 26.5276 29.2146 26.5091C29.2146 26.491 29.1942 26.5091 29.1942 26.5643C29.1942 26.6194 29.2146 26.6194 29.2346 26.5828V26.5828ZM29.1735 26.7686C29.1531 26.7496 29.1531 26.7862 29.1531 26.8228C29.1531 26.8789 29.1531 26.8974 29.1735 26.8599C29.1939 26.8228 29.1939 26.7862 29.1735 26.7686V26.7686ZM29.133 27.0079C29.133 26.9161 29.133 26.9161 29.0922 27.0079C29.0718 27.0639 29.0514 27.1372 29.0514 27.1738C29.0514 27.2665 29.0514 27.2665 29.0922 27.1738C29.1126 27.1372 29.133 27.0639 29.133 27.0079V27.0079ZM29.0513 27.3207C29.0513 27.2836 29.0309 27.3017 28.9897 27.3383C28.9693 27.3754 28.9494 27.431 28.9494 27.4495C28.9494 27.4676 28.9693 27.4676 28.9897 27.431C29.0309 27.3944 29.0513 27.3383 29.0513 27.3207V27.3207ZM28.0719 29.3556C28.064 29.3482 28.0761 29.3269 28.0881 29.3051C28.052 29.3681 28.0237 29.4163 28.0107 29.4321C28.0474 29.3881 28.0719 29.3556 28.0719 29.3556V29.3556ZM28.0048 29.4381C27.9993 29.4419 27.9988 29.4358 28.0099 29.4038C28.0257 29.3501 28.0424 29.301 28.0595 29.2514C28.1513 29.0646 28.2324 28.8802 28.2157 28.8658C28.2352 28.8459 28.2551 28.775 28.2551 28.7217C28.2551 28.6114 28.2347 28.6114 28.2143 28.6846L28.1119 28.9427C28.0716 29.0159 27.9705 29.2704 27.8899 29.4905C27.85 29.5563 27.813 29.6143 27.7866 29.6504C27.7703 29.6782 27.8032 29.6425 27.8607 29.5864C27.8584 29.6064 27.8737 29.5883 27.8982 29.5498C27.9029 29.5457 27.9038 29.5443 27.9089 29.5392C27.9502 29.5026 27.9784 29.4692 28.0048 29.4381V29.4381ZM27.7458 29.7433C27.7046 29.7433 27.623 29.8175 27.5822 29.8912C27.5211 29.9825 27.4594 30.0562 27.4395 30.0562C27.4196 30.0562 27.3992 30.0562 27.4196 30.0752C27.4395 30.0928 27.3992 30.1488 27.3375 30.1855C27.2764 30.2411 27.256 30.2781 27.2967 30.2781C27.3171 30.2781 27.4196 30.1855 27.5211 30.0752C27.623 29.9644 27.7046 29.8726 27.7046 29.8351C27.7046 29.8175 27.725 29.7799 27.7662 29.7799C27.8065 29.7619 27.8065 29.7433 27.7458 29.7433V29.7433ZM27.1746 30.1485L27.3785 29.9455C27.4198 29.9089 27.4596 29.8538 27.4596 29.8348C27.4596 29.8172 27.5004 29.7796 27.5416 29.743C27.5824 29.7245 27.6232 29.6879 27.6232 29.6688C27.6232 29.6512 27.6844 29.5219 27.7868 29.3926C27.7979 29.376 27.803 29.3704 27.8128 29.3574C27.8044 29.3519 27.7993 29.3366 27.8067 29.2935C27.8271 29.1827 27.8475 29.1095 27.8679 29.1095C27.8878 29.1095 27.9286 29.0358 27.9286 28.9436C27.949 28.8513 28.0102 28.6664 28.0714 28.539C28.0732 28.5348 28.0741 28.5306 28.0751 28.5269C28.0755 28.5269 28.0755 28.526 28.076 28.526H28.0755C28.1135 28.4189 28.1321 28.3179 28.1121 28.335C28.0714 28.3536 28.0714 28.335 28.0918 28.2618C28.1121 28.2057 28.1121 28.1691 28.0918 28.1877C28.0315 28.2428 27.6723 29.198 27.6645 29.3421C27.7469 29.173 27.8424 28.9806 27.936 28.7966C27.9105 28.8611 27.8869 28.9264 27.8684 28.9871C27.8684 29.0789 27.8067 29.1892 27.746 29.2448C27.6844 29.3009 27.664 29.3375 27.6844 29.3375C27.7048 29.3375 27.7048 29.356 27.664 29.3741C27.6612 29.3764 27.6575 29.3838 27.6538 29.3871C27.6478 29.4024 27.6404 29.4107 27.6311 29.4158C27.6297 29.4181 27.6283 29.4191 27.6264 29.4214C27.6269 29.4204 27.6278 29.42 27.6283 29.4181C27.6264 29.4191 27.6246 29.4228 27.6227 29.4228C27.5949 29.4357 27.5801 29.4765 27.5713 29.5233C27.543 29.5544 27.5087 29.5882 27.48 29.6146C27.3581 29.6688 27.3581 29.6879 27.3581 29.8172C27.3581 29.8538 27.3377 29.8723 27.2969 29.8538C27.2765 29.8348 27.2562 29.8348 27.2765 29.8723C27.2969 29.8908 27.1746 30.0192 27.0314 30.1675C26.7658 30.3886 26.7658 30.4071 26.909 30.3325C27.011 30.2959 27.1333 30.2041 27.1746 30.1485V30.1485ZM26.8269 30.13C26.8065 30.0915 26.9905 29.9265 27.0725 29.9265C27.0924 29.9265 27.1128 29.8899 27.1128 29.8528C27.1128 29.8436 27.117 29.8362 27.1193 29.8273C27.1425 29.8074 27.1661 29.7875 27.1907 29.7546C27.218 29.7342 27.2495 29.7045 27.2764 29.6679C27.345 29.5743 27.3427 29.5687 27.2954 29.5887C27.3765 29.438 27.4738 29.2161 27.6022 28.8875C27.9897 27.873 28.0712 27.6343 28.5611 26.0479L28.8266 25.1447C28.847 25.0895 28.7247 25.1813 28.5208 25.3657C28.3572 25.5316 28.2144 25.6424 28.2348 25.6243C28.2756 25.5506 28.1736 25.5506 28.1329 25.6058C28.112 25.6243 28.0916 25.6424 28.0712 25.6243C28.0508 25.6243 27.9897 25.6609 27.9489 25.7351C27.9086 25.8259 27.643 26.1221 27.357 26.4168C27.0099 26.7677 26.704 27.1171 26.4593 27.486C26.2754 27.708 26.153 27.9105 26.153 27.9291C26.153 27.9471 26.0302 28.1126 25.9078 28.316C25.8351 28.4199 25.773 28.5227 25.7294 28.6015C25.6678 28.8963 25.6293 29.496 25.6636 29.7606C25.7044 30.0373 25.8267 30.2032 25.9903 30.1666L26.2967 30.0549C26.3986 30.0007 26.5414 29.9631 26.6026 29.9446C26.7268 29.9103 26.8185 29.9112 26.8968 29.908C26.8524 29.9423 26.8074 29.9775 26.7657 30.0007L26.5011 30.1842C26.4598 30.2398 26.3579 30.2769 26.2758 30.295C26.1739 30.3135 26.1331 30.3501 26.1331 30.3877C26.1331 30.498 26.3778 30.4428 26.6438 30.295C26.7657 30.2208 26.8473 30.1476 26.8269 30.13V30.13ZM25.3772 27.3396C25.418 27.303 25.4996 27.1737 25.5816 27.0453C25.6428 26.916 25.7448 26.7867 25.7855 26.7501C25.8268 26.7316 25.8472 26.694 25.8472 26.6574C25.8472 26.6398 25.8064 26.6769 25.7244 26.7501C25.6632 26.8233 25.602 26.8979 25.602 26.916C25.602 26.9345 25.4996 27.0819 25.3772 27.2474C25.2553 27.4142 25.1733 27.5801 25.1733 27.5977C25.1733 27.607 25.1622 27.6269 25.146 27.6487C25.0955 27.7683 25.0255 27.924 24.9393 28.1085C25.0278 27.9416 25.1186 27.7915 25.1529 27.746C25.2141 27.6724 25.2757 27.5801 25.2961 27.5241C25.3161 27.4508 25.3564 27.3767 25.3772 27.3396V27.3396ZM24.6638 28.6959C24.6837 28.6426 24.6995 28.6042 24.7189 28.5532L24.6017 28.6848C24.6276 28.6371 24.6897 28.5268 24.762 28.4058C24.7671 28.4039 24.7727 28.4039 24.7769 28.4026C24.7829 28.3859 24.7894 28.3697 24.7954 28.3539C24.795 28.353 24.7945 28.353 24.7936 28.353C24.7959 28.3497 24.7977 28.3465 24.7996 28.3432C24.8635 28.1792 24.921 28.0346 24.9738 27.9094L24.7037 28.3715C24.7027 28.372 24.7027 28.3729 24.7023 28.3738C24.686 28.3798 24.6638 28.3849 24.6638 28.397C24.6638 28.397 24.68 28.4002 24.6851 28.403C24.5169 28.6848 24.6805 28.5254 24.6017 28.6848C24.4997 28.8507 24.6837 28.6227 24.6638 28.6959V28.6959ZM25.9079 27.4503C25.9079 27.5054 26.1118 27.2844 26.1531 27.1926C26.1735 27.1555 26.1735 27.118 26.1531 27.118C26.1118 27.118 25.9079 27.4137 25.9079 27.4503V27.4503ZM26.1529 26.2701C26.1733 26.2701 26.2141 26.2525 26.2548 26.215C26.2752 26.1783 26.2956 26.1417 26.2752 26.1417L26.1937 26.215C26.1529 26.2525 26.1529 26.2701 26.1529 26.2701V26.2701ZM26.1529 26.0117C26.1733 26.0117 26.2141 25.9751 26.2548 25.938C26.2752 25.9014 26.2956 25.8824 26.2752 25.8824C26.2752 25.8824 26.234 25.9014 26.1937 25.938C26.1529 25.9751 26.1529 26.0117 26.1529 26.0117V26.0117ZM26.2547 27.0454C26.2547 27.064 26.2751 27.064 26.2955 27.0079L26.3974 26.8981C26.4795 26.8429 27.1121 26.1603 27.5403 25.6806L28.1117 25.0725C28.2957 24.9066 28.4385 24.7407 28.4385 24.7222C28.4385 24.7041 28.5001 24.648 28.5812 24.5748C28.6832 24.5007 28.7448 24.427 28.7448 24.3904C28.7448 24.3718 28.6021 24.483 28.4385 24.63C28.1117 24.9432 27.6223 25.4405 27.6223 25.4966C27.6223 25.4966 27.5403 25.5698 27.4587 25.6625C27.3772 25.7367 27.214 25.9026 27.1121 26.031L26.5814 26.5843C26.3775 26.7692 26.2338 26.9528 26.2547 27.0454V27.0454ZM26.3364 26.0488C26.3364 26.1229 26.3776 26.1039 26.4179 26.0302C26.4179 25.9936 26.4179 25.9755 26.3975 25.9936C26.3572 25.9936 26.3364 26.0302 26.3364 26.0488V26.0488ZM26.5407 25.8823C26.5815 25.8457 26.6019 25.8263 26.5815 25.8086C26.5611 25.7896 26.5407 25.8086 26.5203 25.8647C26.4999 25.9189 26.4999 25.9189 26.5407 25.8823V25.8823ZM26.6423 25.6986C26.6423 25.7362 26.6627 25.7362 26.7039 25.6986C26.7447 25.662 26.785 25.6254 26.7646 25.6254C26.7243 25.5883 26.6423 25.6435 26.6423 25.6986V25.6986ZM27.1736 25.1276C27.1736 25.1642 27.2144 25.1276 27.2756 25.0724C27.3163 25.0168 27.3571 24.9626 27.3367 24.9431C27.3163 24.9241 27.1736 25.0724 27.1736 25.1276V25.1276ZM27.4386 24.9059C27.4589 24.9059 27.5201 24.8136 27.6225 24.7033L27.7857 24.5189L27.6021 24.6658C27.4589 24.7951 27.3774 24.9059 27.4386 24.9059V24.9059ZM27.9284 24.0945C27.9488 24.0945 27.9692 24.0751 28.01 24.0385C28.0508 24.0018 28.0712 23.9652 28.0508 23.9652C28.0309 23.9652 27.9896 24.0018 27.9692 24.0385C27.9284 24.0751 27.9085 24.0945 27.9284 24.0945V24.0945ZM27.9692 24.3346C27.9692 24.3902 27.9896 24.3717 28.1119 24.2243L28.2347 24.0765L28.0915 24.1877C28.0308 24.2428 27.9692 24.317 27.9692 24.3346V24.3346ZM28.8061 24.2978C28.8061 24.3173 28.8265 24.3173 28.8469 24.3173C28.8673 24.3173 28.8877 24.2978 28.8877 24.2798C28.8877 24.2431 28.8673 24.2431 28.8469 24.2612C28.8265 24.2612 28.8061 24.2978 28.8061 24.2978V24.2978ZM28.9897 26.4362C29.0309 26.4182 29.0513 26.3996 29.0513 26.3811C29.0513 26.363 29.0309 26.363 28.9897 26.363C28.9693 26.363 28.9494 26.3811 28.9494 26.3996C28.9494 26.4362 28.9693 26.4362 28.9897 26.4362V26.4362ZM28.8876 26.7857C28.9493 26.6564 28.9692 26.5466 28.9692 26.5281C28.9289 26.4548 28.8672 26.4915 28.8672 26.6013C28.8672 26.6564 28.8468 26.7681 28.8265 26.8418C28.8061 26.9702 28.8061 26.9702 28.8876 26.7857V26.7857ZM28.1132 29.2601C28.1318 29.2328 28.1512 29.205 28.1744 29.1707C28.2351 29.0975 28.2968 29.0048 28.2968 28.9862C28.2968 28.9686 28.3681 28.8069 28.4437 28.6354C28.3848 28.7527 28.2259 29.0567 28.1132 29.2601V29.2601ZM28.704 26.4725C28.6831 26.4178 28.5812 26.657 28.4384 27.1C28.2957 27.487 28.1937 27.8188 28.1937 27.8374L28.1326 27.9847C28.0913 28.1326 28.1733 28.2429 28.2345 28.1326C28.2549 28.096 28.2549 28.096 28.2141 28.1136C28.1326 28.1502 28.153 28.0218 28.2345 27.9481C28.2753 27.9115 28.2957 27.8554 28.2957 27.8374C28.2957 27.8007 28.3161 27.7632 28.4588 27.4504C28.5001 27.3586 28.5409 27.2098 28.5409 27.1366C28.5205 27.0634 28.5409 26.9892 28.5608 26.9892C28.622 26.9341 28.7244 26.5471 28.704 26.4725V26.4725ZM28.3161 29.2927C28.2754 29.3298 28.255 29.4039 28.255 29.4415C28.255 29.5513 28.2957 29.5147 28.3365 29.3488C28.3569 29.2561 28.3569 29.238 28.3161 29.2927V29.2927ZM28.3572 29.2025C28.3781 29.2025 28.4184 29.1659 28.4388 29.1293C28.48 29.0366 28.4388 29.0176 28.3781 29.1103C28.3368 29.1659 28.3164 29.2025 28.3572 29.2025V29.2025ZM28.7654 26.9886C28.7246 26.9334 28.7042 26.9334 28.7042 27.0627C28.7042 27.1359 28.6834 27.2462 28.6222 27.3208C28.5814 27.3755 28.561 27.4311 28.6023 27.4131C28.6222 27.3945 28.6426 27.3755 28.6426 27.3945C28.6426 27.4678 28.3984 28.2051 28.378 28.2246L28.3163 28.2978C28.3163 28.3163 28.2959 28.3896 28.2756 28.4632C28.2552 28.5749 28.2552 28.5926 28.2959 28.5555C28.3367 28.5383 28.378 28.4632 28.378 28.4262L28.5207 28.0026C28.745 27.3945 28.8062 27.0808 28.7654 26.9886V26.9886ZM28.6021 28.5748C28.5409 28.6657 28.5409 28.7217 28.6021 28.6847C28.622 28.6847 28.6424 28.629 28.6424 28.5924C28.6424 28.5187 28.6424 28.5187 28.6021 28.5748V28.5748ZM28.6424 28.4645C28.6627 28.4468 28.704 28.3727 28.7244 28.299C28.7652 28.1141 28.7244 28.1507 28.6627 28.3542C28.622 28.4468 28.622 28.502 28.6424 28.4645V28.4645ZM28.8062 25.9381C28.8062 25.9558 28.7858 26.0484 28.745 26.1226C28.7042 26.2329 28.7246 26.4549 28.7858 26.4549C28.8062 26.4549 28.8062 26.4174 28.7858 26.3622C28.7654 26.3061 28.8062 26.1963 28.847 26.1036C28.9086 25.9933 28.9494 25.8825 28.9494 25.8459C28.9494 25.7898 28.9693 25.7166 29.0101 25.6429C29.0514 25.5878 29.0921 25.4219 29.1125 25.2926C29.1329 25.1633 29.1737 25.0159 29.1941 24.9617C29.2145 24.9056 29.2145 24.85 29.1941 24.85C29.1533 24.85 28.7858 25.8825 28.8062 25.9381V25.9381ZM31.6025 17.5311C31.6025 17.6052 31.6433 17.5867 31.6637 17.5125C31.6841 17.4574 31.6841 17.4393 31.6433 17.4574C31.6229 17.4759 31.6025 17.5125 31.6025 17.5311V17.5311ZM31.6027 17.2923C31.6027 17.347 31.6231 17.347 31.6435 17.3104C31.6435 17.2923 31.6435 17.2548 31.6231 17.2367C31.6231 17.2177 31.6027 17.2367 31.6027 17.2923V17.2923ZM31.6842 17.8438C31.6638 17.8438 31.6435 17.8628 31.6435 17.9179C31.6638 17.9545 31.6638 17.9731 31.6842 17.9365C31.7046 17.8994 31.7046 17.8628 31.6842 17.8438V17.8438ZM41.9074 16.2033C40.6417 18.1952 40.6014 19.1541 40.5606 19.2458C40.5194 19.3566 40.0902 19.1541 40.0096 19.0062C39.8052 18.5998 39.7848 17.9927 39.9892 17.4393C40.0503 17.2919 39.9683 17.2734 39.9683 17.2544C39.9479 17.2363 39.7231 17.4027 39.662 17.4759C39.6416 17.494 39.6008 17.5125 39.56 17.494C39.5192 17.4759 39.5192 17.494 39.5392 17.5311C39.5392 17.5677 39.5192 17.6233 39.4784 17.6604C39.3969 17.716 39.3969 17.716 39.4168 17.6418C39.4377 17.5867 39.4377 17.5677 39.3969 17.5867C39.3765 17.6052 39.3561 17.6418 39.3765 17.6789C39.3969 17.716 39.3969 17.7707 39.3765 17.7707C39.3561 17.7892 38.9677 18.1762 38.8454 18.324C38.7235 18.4714 38.5604 18.6192 38.54 18.6558C38.4987 18.6744 38.4783 18.711 38.4987 18.711C38.5191 18.711 38.5191 18.7295 38.4783 18.7666C38.4167 18.8037 38.3147 18.933 38.2332 19.0794L38.0292 19.3751C38.0292 19.3932 37.9477 19.5225 37.8656 19.6703C37.7845 19.8168 37.6821 19.9656 37.6622 19.9832C37.6209 20.0198 37.6006 20.0573 37.6006 20.0939C37.6006 20.1491 37.0495 21.1631 37.0087 21.2002C36.9883 21.2002 36.9476 21.2558 36.9476 21.31C36.9272 21.3476 36.9068 21.3842 36.8655 21.3842C36.8451 21.3842 36.8247 21.4027 36.8451 21.4393C36.8451 21.4769 36.8451 21.532 36.8247 21.5686C36.8044 21.5872 36.7844 21.6238 36.7844 21.6428C36.7844 21.6428 36.7029 21.8087 36.6004 21.9931L36.3145 22.5465L36.0295 23.136C35.927 23.3204 35.8047 23.5967 35.7634 23.744C35.3148 25.1636 35.2537 25.2748 35.0085 25.2748C34.9269 25.2748 34.8454 25.2563 34.8454 25.2373L34.6618 25.1089C34.5395 25.0718 34.4575 24.9796 34.4371 24.8869C34.3555 24.7034 34.2531 24.6107 34.2531 24.74C34.2531 24.8137 34.2327 24.8327 34.2123 24.8137C34.172 24.7951 34.172 24.7215 34.1919 24.6292C34.1919 24.5555 34.1919 24.4823 34.172 24.4823C34.1516 24.4823 34.0899 24.4262 34.0492 24.3711C33.9676 24.2789 33.9676 24.2422 34.0288 24.1319C34.1108 24.0203 34.1312 23.8919 34.2735 23.2092L34.7434 21.1816L34.9469 20.3525L34.9941 20.1426C34.9529 20.1815 34.9135 20.2186 34.8681 20.2598L34.7865 20.3331V20.3159C34.7865 20.2784 34.6841 20.0754 34.6841 20.0573C34.6841 20.0573 34.7253 20.0388 34.7661 20.0022C34.8069 19.9656 34.9089 19.8905 35.0521 19.8168C34.8681 19.8905 34.7253 19.928 34.6841 19.928C34.6234 19.928 34.6433 20.3159 34.6841 20.3525C34.7045 20.3525 34.6637 20.3701 34.603 20.3701C34.5413 20.3701 34.5006 20.3891 34.5209 20.4068C34.5413 20.4443 34.6637 20.4258 34.7457 20.3701C34.5006 20.6102 34.0515 21.0343 33.8272 21.145C33.664 21.2368 33.5825 21.2924 33.6232 21.3295C33.6436 21.3661 33.5009 21.4769 33.1737 21.6604C32.8882 21.8263 32.5819 22.159 32.4187 22.2693C32.276 22.362 32.1124 22.4538 32.092 22.4538C32.0716 22.4538 32.0517 22.4719 32.0517 22.5094C32.0517 22.527 32.0104 22.5465 31.9901 22.5465C31.9493 22.5465 31.807 22.6387 31.6434 22.749L31.0103 23.2092C30.9492 23.2287 30.8268 23.5967 30.7452 24.0203C30.7045 24.2422 30.6428 24.4457 30.6224 24.4823C30.602 24.5365 30.5612 24.6658 30.5612 24.8137C30.5209 25.0352 30.4389 25.33 30.3369 25.4959C30.2962 25.5515 30.2554 25.6618 30.235 25.7535L29.9286 26.8051C29.8874 26.8973 29.8475 27.0447 29.8271 27.1365C29.8068 27.2292 29.7655 27.3214 29.7451 27.339C29.7247 27.3585 29.6635 27.5601 29.582 27.8006C29.5203 28.0397 29.4592 28.2793 29.4184 28.335L29.189 28.8985C29.1264 29.0908 29.1371 29.0918 29.1741 29.0167C29.1139 29.1817 29.0532 29.3508 28.9702 29.4477C28.929 29.5218 28.8924 29.5186 28.8924 29.5728C28.8924 29.6094 28.827 29.7795 28.7659 29.8171C28.6847 29.8722 28.6236 29.9274 28.6236 29.9454C28.6236 30.0015 28.1129 30.5544 27.9701 30.6462C27.6842 30.8487 27.0923 31.0341 26.7457 31.0517C26.5413 31.0707 26.3777 31.0707 26.3578 31.0341C26.317 31.0151 26.1738 30.959 26.0107 30.9224C25.7863 30.8672 25.6635 30.794 25.3577 30.5354C24.9086 30.1484 24.6731 30.0126 24.5707 29.6623C24.5095 29.5144 24.4331 29.3318 24.3918 29.2767C24.3107 29.1659 24.2528 28.917 24.314 28.88C24.3339 28.8624 24.314 28.734 24.314 28.6964L24.3775 28.5389C24.3571 28.5013 24.4382 28.3535 24.561 28.1876C24.6829 28.0397 24.7649 27.8738 24.7649 27.8372C24.7649 27.8006 24.7848 27.7821 24.8057 27.7821C24.8465 27.7821 24.8669 27.7454 24.8873 27.7088C24.9081 27.6528 24.9489 27.5601 25.0096 27.4868C25.0509 27.4136 25.0916 27.339 25.0712 27.3214C25.0712 27.3024 25.0916 27.3024 25.112 27.3024C25.1528 27.3024 25.1528 27.2658 25.1528 27.2292C25.112 27.1365 25.1528 27.0262 25.2344 27.0633C25.2552 27.0813 25.2756 27.0633 25.2552 27.0447C25.1936 27.0072 25.3975 26.7129 25.6427 26.4357L26.1117 25.9195C26.2753 25.7359 26.3573 25.6618 26.3976 25.6984C26.418 25.7359 26.4384 25.7359 26.4593 25.6799C26.4797 25.6252 26.4593 25.6066 26.4384 25.6252C26.3573 25.6799 26.3976 25.5881 26.4797 25.4959C26.5408 25.4593 26.5816 25.4398 26.6219 25.4593C26.6423 25.4773 26.6423 25.4773 26.6219 25.4398C26.5816 25.3856 27.255 24.6107 27.357 24.6107C27.3978 24.6107 27.4385 24.5926 27.4589 24.5741C27.4798 24.5365 27.4798 24.5365 27.4385 24.5555C27.2958 24.6292 27.3978 24.5189 27.7245 24.1871C27.9692 23.9466 28.0915 23.8548 28.1328 23.8919C28.1532 23.9294 28.1532 23.91 28.1532 23.8733C28.1119 23.7816 28.2551 23.6157 28.3571 23.6333C28.3983 23.6523 28.459 23.6157 28.5003 23.5596C28.561 23.4674 28.561 23.4674 28.4799 23.523C28.4387 23.542 28.3983 23.5596 28.3983 23.542C28.3983 23.523 28.459 23.4674 28.5003 23.4303C28.561 23.4127 28.6023 23.3937 28.5814 23.4303C28.5207 23.523 28.6222 23.4674 28.8266 23.2838C28.9494 23.1916 29.0309 23.0799 29.0101 23.0628C28.9897 23.0433 29.0101 23.0257 29.0309 23.0433C29.0513 23.0628 29.1533 23.0067 29.2548 22.9149C29.398 22.7856 29.4388 22.6929 29.6228 22.0297C29.7247 21.6062 29.8068 21.2734 29.8068 21.2734C29.7859 21.2558 29.2145 21.919 29.1941 21.9741C29.1941 21.9931 29.1125 22.0849 29.0309 22.159L28.7042 22.5094C28.2755 22.9882 27.4181 23.6157 26.9691 23.7626C26.7448 23.8367 26.5204 23.8367 26.1117 23.7626C25.8874 23.7255 25.4587 23.3385 25.296 23.0257C24.9892 22.5094 25.0096 21.2002 25.3359 20.4068C25.3771 20.3331 25.4383 20.1491 25.4587 20.0198C25.5199 19.7436 25.9689 18.9696 26.234 18.6373C26.4593 18.3606 26.8055 18.0469 27.2351 17.697C27.6225 17.4027 28.0711 17.0885 28.1328 17.0885C28.1736 17.0885 28.2551 17.0152 28.3571 16.9411C28.459 16.8859 28.5411 16.8123 28.5814 16.8123C28.6023 16.8123 28.6834 16.7752 28.7246 16.7381C28.7858 16.6644 28.847 16.6459 28.9897 16.6829C29.0921 16.6829 29.1737 16.6829 29.1941 16.6459C29.2548 16.5356 30.602 16.7381 30.6632 16.8669C30.6632 16.8859 30.7045 16.9045 30.7248 16.9045C30.7452 16.9045 30.9084 16.9777 31.0516 17.0885C31.2759 17.2173 31.3575 17.2363 31.3982 17.1997L31.623 16.7571C31.8677 16.2218 32.0104 16.112 32.3372 16.1301C32.4595 16.1301 32.6027 16.1486 32.6431 16.1852C32.6634 16.2218 32.7455 16.2408 32.7863 16.2408C32.8474 16.2408 32.8678 16.2774 32.8678 16.314C32.8678 16.3507 32.9295 16.3697 33.0106 16.3877H33.2145C33.3781 16.4063 33.4805 16.9411 33.3373 17.0333C33.2965 17.0704 33.2553 17.1626 33.2349 17.2544C33.2145 17.3285 33.1941 17.4027 33.1737 17.4208C33.113 17.4574 32.8067 18.0469 32.6431 18.4533L32.4391 18.933L32.2148 19.5035L31.9697 20.1125C31.8677 20.2784 31.6638 20.8132 31.6434 20.9606C31.623 21.0343 31.5818 21.145 31.5818 21.1816C31.541 21.2558 31.541 21.2558 31.7454 21.1816C31.8473 21.1265 31.9493 21.0523 31.9697 21.0343C31.9901 21.0157 32.0313 20.9972 32.0517 20.9972C32.1333 20.9972 32.0313 21.0709 31.7657 21.2192C31.623 21.2924 31.5007 21.3661 31.5007 21.3661C31.5007 21.3842 31.5818 21.3476 31.6842 21.2924C32.1944 21.0343 32.3372 20.942 32.2964 20.8864C32.276 20.8688 32.2964 20.8498 32.3372 20.8688C32.3576 20.8864 32.5003 20.8322 32.6634 20.7571C32.8067 20.6654 32.9499 20.5917 32.9698 20.5917C32.9902 20.5917 33.0314 20.5551 33.0722 20.5175C33.113 20.4809 33.1737 20.4624 33.1941 20.4809C33.2349 20.4809 33.2553 20.4624 33.2553 20.4258C33.2553 20.3891 33.2145 20.3701 33.1533 20.3891C33.0926 20.4068 33.113 20.3891 33.2145 20.3331C33.2965 20.2784 33.4189 20.2413 33.4597 20.2598C33.5009 20.2784 33.5616 20.2598 33.6029 20.2232C33.6436 20.1866 33.6436 20.1491 33.6029 20.1305C33.5825 20.1305 33.7859 19.9832 34.0515 19.8168C34.5209 19.541 34.6841 19.4493 34.5209 19.5957C34.4802 19.6328 34.4394 19.6518 34.419 19.6518C34.3986 19.6518 34.2966 19.725 34.1743 19.7996C34.0311 19.8905 33.9699 19.9461 33.9903 20.0198C33.9903 20.0754 33.9699 20.0939 33.9291 20.0754C33.9083 20.0573 33.8476 20.0754 33.8476 20.0939C33.8272 20.1305 33.766 20.1305 33.7252 20.1125C33.6844 20.0939 33.664 20.1125 33.6844 20.1305C33.7252 20.1866 33.5412 20.3525 33.4805 20.2965C33.4393 20.2965 33.3781 20.2965 33.3373 20.3331C33.2553 20.3701 33.2553 20.3701 33.3572 20.3525C33.4393 20.3159 33.4597 20.3331 33.4393 20.3701C33.4189 20.4068 33.4805 20.3891 33.5825 20.3525C33.664 20.2965 33.766 20.2598 33.8068 20.2598C33.8476 20.2413 33.9291 20.1866 33.9903 20.1305C34.0515 20.0754 34.1539 20.0022 34.2355 19.9832C34.2966 19.9656 34.3787 19.928 34.3787 19.8905C34.3986 19.8729 34.419 19.8539 34.4394 19.8539C34.4598 19.8729 34.5413 19.8362 34.603 19.7996C34.6841 19.8362 34.7865 19.8729 34.7457 19.7069C34.7661 19.7069 34.8477 19.6328 34.9705 19.5591C35.047 19.4896 35.1118 19.4516 35.154 19.4317L35.5387 17.716C35.5799 17.5677 35.6823 17.1807 35.7431 16.8669C35.8251 16.5536 35.9067 16.2033 35.9474 16.112C35.9678 16.0008 35.9887 15.9085 35.9474 15.8534C35.927 15.7978 35.927 15.7792 36.0091 15.7426C36.1314 15.687 36.5393 15.7055 36.6825 15.7792C36.7436 15.7978 36.8247 15.8348 36.8864 15.8348C37.1315 15.8163 37.4782 16.314 37.4782 16.6644C37.4782 16.8859 37.3762 17.5677 37.3146 17.6418C37.2947 17.6604 37.2335 17.9551 37.1515 18.2689C37.0699 18.5826 36.9883 18.8769 36.9476 18.9135C36.9068 18.9506 36.9068 18.9696 36.9476 18.9696C36.9883 18.9696 37.0291 18.9135 37.1315 18.6744C37.1315 18.6373 37.1719 18.6373 37.2127 18.6558C37.3146 18.6744 37.2947 18.8959 37.1923 18.8959C37.1315 18.8959 37.1315 18.8959 37.1923 18.933C37.2947 18.9872 37.3355 18.9506 37.3355 18.8218C37.3355 18.7666 37.3559 18.711 37.3966 18.711C37.417 18.6925 37.4583 18.6192 37.4782 18.5455L37.4986 18.4162L37.3966 18.5265C37.2947 18.6192 37.1923 18.6558 37.1923 18.5826C37.1923 18.5455 37.2127 18.5265 37.2335 18.5265C37.2743 18.5265 37.2947 18.4899 37.3146 18.4339C37.3355 18.3972 37.3762 18.3606 37.3966 18.3796C37.417 18.3796 37.4583 18.3421 37.4782 18.2689C37.5598 18.0659 37.7025 17.9185 37.7845 17.937C37.8253 17.9551 37.8457 17.937 37.8253 17.9C37.8049 17.8443 37.8049 17.8258 37.8457 17.8443C37.9069 17.8634 38.07 17.6233 38.07 17.5311C38.07 17.4574 39.4784 16.1667 39.6212 16.1301C39.8256 16.0559 40.7233 15.4289 40.8048 15.503C40.866 15.5401 41.0092 15.4659 41.132 15.4845C41.2748 15.503 41.5603 15.687 41.5806 15.7055C41.601 15.7245 41.8462 15.9085 41.9074 16.2033V16.2033ZM37.3761 19.2633C37.3558 19.3745 37.3558 19.3926 37.4169 19.3193C37.4582 19.2633 37.4781 19.2081 37.4582 19.19C37.4378 19.1349 37.5801 18.8763 37.6412 18.9129C37.6621 18.9129 37.7024 18.9129 37.7024 18.8953C37.7228 18.8763 37.7024 18.8577 37.6412 18.8577C37.5388 18.8763 37.3965 19.0983 37.3761 19.2633V19.2633ZM38.07 18.1946C38.0904 18.2498 38.07 18.3234 38.0496 18.2864C38.0292 18.2683 37.7845 18.4894 37.7845 18.545C37.7845 18.545 37.8253 18.5626 37.8865 18.5626C37.9477 18.5626 37.9681 18.545 37.9681 18.526C37.9477 18.5084 37.9477 18.4527 37.9681 18.4157C37.9885 18.3601 38.0093 18.3601 38.0292 18.3967C38.07 18.4527 38.07 18.4527 38.07 18.3967C38.07 18.3601 38.1312 18.2864 38.172 18.2317C38.2332 18.1756 38.2535 18.1205 38.2332 18.1205C38.1924 18.0829 38.0496 18.1571 38.07 18.1946V18.1946ZM36.4779 21.3099C36.4575 21.3475 36.4168 21.4026 36.4168 21.4392C36.4168 21.4582 36.4575 21.4392 36.4983 21.4026C36.5391 21.3475 36.56 21.2923 36.56 21.2733C36.56 21.2367 36.5187 21.2557 36.4779 21.3099V21.3099ZM38.3145 17.9379C38.2941 17.956 38.2737 17.9745 38.2737 18.0111C38.2737 18.0301 38.2941 18.0301 38.3354 18.0301C38.3558 18.0111 38.3762 17.9745 38.3762 17.956C38.3762 17.9194 38.3558 17.9194 38.3145 17.9379V17.9379ZM37.7644 18.6562C37.7848 18.6377 37.7644 18.6196 37.7435 18.6196C37.6823 18.6196 37.6823 18.6377 37.7231 18.7299C37.7435 18.804 37.8255 18.8221 37.8255 18.748C37.8255 18.7299 37.8052 18.7114 37.7848 18.7114C37.7644 18.7114 37.7435 18.6928 37.7644 18.6562V18.6562ZM37.1717 19.5039C37.1314 19.5415 37.111 19.5962 37.111 19.6147C37.111 19.6522 37.1314 19.6332 37.1717 19.5781C37.2125 19.5229 37.2538 19.5039 37.2538 19.5596C37.2538 19.5781 37.2538 19.5962 37.2741 19.5962C37.2945 19.5781 37.2741 19.5415 37.2741 19.4863C37.2334 19.4303 37.2334 19.4303 37.1717 19.5039V19.5039ZM27.5607 26.38L27.4796 26.4547C27.418 26.5645 27.418 26.5645 27.5 26.4913C27.5403 26.4352 27.5811 26.3986 27.5607 26.38V26.38ZM28.0753 28.5254C28.0424 28.5565 27.9872 28.6658 27.9358 28.7961C27.9859 28.6978 28.0317 28.6084 28.0748 28.5263C28.0753 28.5263 28.0753 28.5254 28.0753 28.5254V28.5254ZM27.7653 26.1602C27.7449 26.1421 27.7245 26.1787 27.7041 26.2153C27.6633 26.2705 27.6837 26.2895 27.7245 26.2339C27.7653 26.2153 27.7653 26.1787 27.7653 26.1602V26.1602ZM27.1533 29.7791C27.1607 29.7791 27.176 29.7666 27.1904 29.755C27.2228 29.7128 27.2571 29.6595 27.2951 29.5891C27.2863 29.5923 27.2886 29.5891 27.2761 29.5947L27.0722 29.761C27.0231 29.8046 26.961 29.8584 26.8966 29.9084C26.9791 29.9042 27.0477 29.8894 27.119 29.8278C27.126 29.8014 27.1385 29.7791 27.1533 29.7791V29.7791ZM27.5609 29.5882C27.5609 29.572 27.566 29.5595 27.5679 29.5442C27.5085 29.6711 27.4701 29.7578 27.4798 29.7541C27.5201 29.7356 27.5609 29.6614 27.5609 29.5882V29.5882ZM28.1944 28.8939C28.1967 28.8939 28.1944 28.9023 28.1944 28.906C28.2023 28.8902 28.2106 28.8726 28.2143 28.8694C28.2148 28.8684 28.2148 28.867 28.2157 28.8661C28.2143 28.8652 28.2176 28.8564 28.2148 28.8573C28.1944 28.8758 28.1745 28.8939 28.1944 28.8939V28.8939ZM28.1201 29.081C28.1664 28.9906 28.1942 28.9262 28.1942 28.9067C28.1762 28.941 28.1511 29.0003 28.1201 29.081V29.081ZM27.6024 29.4849C27.6024 29.4664 27.6122 29.4451 27.6247 29.4251C27.6122 29.4506 27.5974 29.4798 27.5862 29.5039C27.5913 29.4974 27.5997 29.4896 27.6024 29.4849V29.4849ZM29.4081 28.4277C29.4294 28.3582 29.4396 28.3118 29.4183 28.335C29.3984 28.3614 29.409 28.3823 29.4081 28.4277V28.4277ZM29.1125 20.4816C29.1329 20.445 29.1329 20.4075 29.1329 20.4075C29.1125 20.4075 29.0717 20.445 29.0513 20.4816C29.01 20.5182 29.01 20.5558 29.0309 20.5558C29.0717 20.5558 29.0921 20.5182 29.1125 20.4816V20.4816ZM29.5407 19.7253C29.5611 19.7073 29.582 19.6887 29.5611 19.6521C29.5203 19.596 29.48 19.6146 29.48 19.6887C29.48 19.7253 29.4999 19.7439 29.5407 19.7253V19.7253ZM32.766 20.6282C32.8271 20.6282 33.0519 20.4618 33.0107 20.4618C32.9903 20.4618 32.9092 20.4989 32.8475 20.5545C32.766 20.5911 32.7456 20.6282 32.766 20.6282V20.6282ZM28.1204 29.0807C28.0569 29.2049 27.9674 29.3648 27.89 29.4914C27.8896 29.4932 27.8887 29.4946 27.8877 29.4965C27.8692 29.5474 27.8622 29.5729 27.8608 29.5873C27.8738 29.5748 27.8817 29.5664 27.8984 29.5507C27.9369 29.489 27.998 29.376 28.0597 29.2522C28.0801 29.1892 28.1004 29.1326 28.1204 29.0807V29.0807ZM30.1328 18.9333L30.3784 18.6001C30.4804 18.4902 30.5615 18.3424 30.5615 18.3058C30.5615 18.2506 30.5411 18.2692 30.4804 18.3609L30.2352 18.7113C30.1536 18.8221 30.0716 18.9509 30.0716 18.9699C30.0716 18.9875 30.1124 18.9699 30.1328 18.9333V18.9333ZM29.3081 28.703C29.2585 28.7869 29.2163 28.9009 29.1741 29.0168C29.2061 28.9519 29.2566 28.8332 29.3081 28.703V28.703ZM24.7619 28.4064C24.7726 28.3888 24.7823 28.3721 24.7935 28.3536C24.78 28.3462 24.7555 28.3462 24.7249 28.3605C24.71 28.3605 24.7119 28.3703 24.7022 28.3744C24.6947 28.3865 24.6915 28.3925 24.685 28.4036C24.6943 28.4087 24.6985 28.4152 24.7249 28.4152C24.7383 28.4152 24.7499 28.4101 24.7619 28.4064V28.4064ZM29.3083 28.7024C29.3495 28.5972 29.3857 28.499 29.4084 28.4271C29.4065 28.4749 29.3917 28.5509 29.3111 28.6959C29.3101 28.6983 29.3092 28.701 29.3083 28.7024V28.7024Z" fill="#57854E"/>
</g>
</g>
<path id="Fill 4" fill-rule="evenodd" clip-rule="evenodd" d="M57.5411 2.01862H58.0952C58.64 2.01151 59.1843 2.03853 59.7259 2.0992C61.4685 2.22056 62.8925 3.56066 63.1457 5.31697C63.3477 6.4703 63.3771 7.64734 63.233 8.8092C63.0483 10.7267 61.5016 12.2133 59.6069 12.2924C59.1652 12.3365 58.7216 12.3583 58.2776 12.3569H57.1693H56.2108V2.01103H57.0663H57.5803M60.327 1.12515C59.1955 0.984835 58.056 0.92321 56.9155 0.940276H55.2294H53.6463H53.4168V1.18156C53.3893 1.39393 53.4462 1.60772 53.575 1.77695C53.7573 1.96988 54.0969 2.04289 54.9052 2.05047V12.292H53.9075C53.7564 12.2745 53.6048 12.321 53.4882 12.421C53.38 12.5499 53.3277 12.7187 53.3455 12.8874C53.3455 13.1131 53.3455 13.4506 53.6384 13.4506H54.9052H56.5513C57.5886 13.4506 58.4832 13.4103 59.3699 13.3302C62.3383 13.0401 63.9214 11.6805 64.3407 9.03399C64.5231 7.72754 64.5044 6.40024 64.2852 5.09948C64.0739 2.97342 62.4195 1.29201 60.327 1.07727" fill="black"/>
<path id="Fill 6" fill-rule="evenodd" clip-rule="evenodd" d="M75.8001 7.46751C75.8001 7.6476 75.746 7.84338 75.7156 8.04747V8.09457C75.6529 8.66622 75.5475 9.23187 75.3994 9.78736C74.8757 11.488 73.6496 12.3104 71.6373 12.3104H71.5596C69.9125 12.4258 68.4171 11.3333 67.9983 9.70886C67.5127 8.08672 67.5127 6.35422 67.9983 4.73254C68.5302 2.93771 69.7639 2.05991 71.7686 2.05991H72.2614C73.9731 2.17766 75.1996 3.43963 75.5539 5.44549C75.6234 5.84537 75.6615 6.22909 75.7001 6.69961C75.7001 6.9111 75.746 7.16183 75.7696 7.43611M72.2231 0.947934C69.6861 0.822798 67.9286 1.82573 67.1504 3.8242C66.8842 4.57593 66.6826 5.34937 66.549 6.1362C66.4795 6.45758 66.4105 6.81821 66.3251 7.16268C66.2987 7.27027 66.355 7.38109 66.4563 7.42126L66.5027 7.80544C66.5027 8.17346 66.5717 8.58903 66.6253 8.93396C66.8007 10.9865 68.2266 12.706 70.1876 13.2287C70.7132 13.37 71.2551 13.4435 71.7988 13.4481C73.9547 13.5183 75.8921 12.1168 76.5326 10.0232C77.1263 8.1693 77.1263 6.17175 76.5326 4.31827C75.9534 2.37337 74.2205 1.01858 72.2231 0.947934" fill="black"/>
<path id="Fill 8" fill-rule="evenodd" clip-rule="evenodd" d="M88.7944 7.41221C88.7944 7.62376 88.7321 7.85149 88.7005 8.05473C88.6401 8.62935 88.5362 9.19797 88.3902 9.75642C87.8926 11.4498 86.6338 12.3039 84.6532 12.3039C82.7193 12.3039 81.4839 11.4336 80.9712 9.73286C80.5286 8.23765 80.4965 6.65005 80.8778 5.13867C81.1438 3.22542 82.8566 1.86323 84.7622 2.04985H85.0423C86.9451 2.12052 88.2432 3.37462 88.6081 5.47586C88.6698 5.86017 88.7088 6.25973 88.7477 6.6907V6.73781C88.7477 6.93366 88.7477 7.16139 88.8177 7.41221M89.5248 4.3395C88.9499 2.37682 87.1936 1.00586 85.1663 0.9375H84.8006C82.4707 0.9375 80.8077 1.94863 80.0776 3.85356C79.8195 4.59632 79.624 5.3594 79.4954 6.13542V6.20563C79.4332 6.51142 79.3709 6.83291 79.3009 7.1387C79.2771 7.2417 79.3293 7.34702 79.4254 7.38952V7.75766C79.4254 8.11056 79.4876 8.54153 79.5421 8.90228C79.7018 10.9583 81.1318 12.6877 83.1074 13.2143C83.6539 13.3681 84.2179 13.4471 84.7855 13.4494C87.0929 13.5011 89.1179 11.9089 89.6329 9.6395C90.1025 7.89762 90.0572 6.05551 89.5006 4.3395" fill="black"/>
<g id="Group 12">
<mask id="mask1_2_247" style="mask-type:alpha" maskUnits="userSpaceOnUse" x="0" y="1" width="10" height="13">
<path id="Clip 11" fill-rule="evenodd" clip-rule="evenodd" d="M0.045578 1.00806H9.13142V13.2551H0.045578V1.00806Z" fill="white"/>
</mask>
<g mask="url(#mask1_2_247)">
<path id="Fill 10" fill-rule="evenodd" clip-rule="evenodd" d="M9.02728 10.2895C8.89612 10.1806 8.72465 10.132 8.55549 10.1561C8.42943 10.1561 8.03596 10.1561 8.03596 10.4781V12.1456H2.8764V2.0624H4.05634C4.19908 2.06611 4.33255 1.99057 4.40253 1.86544C4.45629 1.76116 4.48317 1.64483 4.48085 1.52712C4.48085 1.32274 4.40253 1.00806 4.17451 1.00806H0.170789V1.13411C0.0771725 1.39179 0.0943201 1.67635 0.218061 1.92059C0.301945 2.02996 0.434027 2.0916 0.571671 2.08604H1.06756H1.64177V12.1535H0.383048C0.225939 12.1535 0.0447311 12.2481 0.0447311 12.6888C0.0447311 12.8301 0.0447311 13.2551 0.327898 13.2551H9.12923V12.3426V10.6121C9.13943 10.4939 9.09957 10.3771 9.0194 10.2895" fill="black"/>
</g>
</g>
<path id="Fill 13" fill-rule="evenodd" clip-rule="evenodd" d="M15.3424 2.04102H15.8922C16.1414 2.04102 16.2663 1.8318 16.2663 1.41335C16.2663 0.954105 15.9877 0.9375 15.9583 0.9375H12.5055C12.3984 0.9375 12.2956 0.983994 12.2196 1.06702C12.1363 1.18278 12.0965 1.32985 12.1099 1.4774C12.0883 1.75684 12.2766 2.00212 12.531 2.02537C12.5591 2.02821 12.5876 2.02774 12.6157 2.02489H13.3486H13.6268V12.3955H12.4101C12.0952 12.3955 12.0952 12.7741 12.0952 12.9354C12.0952 13.3861 12.3224 13.4425 12.5202 13.4506H14.3675H16.1928V12.6455C16.1928 12.3717 15.9216 12.3717 15.6577 12.3717H14.7779V2.04102H15.3424Z" fill="black"/>
<path id="Fill 15" fill-rule="evenodd" clip-rule="evenodd" d="M28.7058 10.4285C28.5702 10.3196 28.3963 10.2703 28.2232 10.2921C28.0867 10.2921 27.6843 10.2921 27.6843 10.6212V12.325H22.3745V2.02236H23.5814C23.7274 2.02615 23.864 1.94896 23.9351 1.82111C23.9943 1.71599 24.0223 1.59618 24.0157 1.47543C24.0157 1.25855 23.9351 0.9375 23.7099 0.9375H19.6071V1.06583C19.5099 1.32864 19.5274 1.62033 19.655 1.86941C19.7393 1.98353 19.8754 2.04699 20.0171 2.03799H20.5158H21.1032V12.325H19.8564C19.7033 12.325 19.5104 12.4216 19.5104 12.8719C19.5104 13.0168 19.5104 13.4506 19.8 13.4506H28.7703V12.5263V10.7581C28.794 10.644 28.7708 10.5256 28.7058 10.4285" fill="black"/>
<path id="Fill 17" fill-rule="evenodd" clip-rule="evenodd" d="M40.2576 10.4285C40.122 10.3196 39.9485 10.2703 39.776 10.2921C39.6399 10.2921 39.2386 10.2921 39.2386 10.6212V12.325H33.984V2.02236H35.1874C35.333 2.02426 35.4677 1.94707 35.5405 1.82111C35.5958 1.71457 35.6227 1.59571 35.6209 1.47543C35.6209 1.25855 35.5325 0.9375 35.308 0.9375H31.2247L31.185 1.06583C31.089 1.32864 31.1065 1.61986 31.2327 1.86941C31.3178 1.98211 31.453 2.04557 31.5938 2.03799H32.0911H32.6767V12.325H31.4336C31.2809 12.325 31.0966 12.4216 31.0966 12.8719C31.0966 13.0168 31.0966 13.4506 31.3773 13.4506H40.3616V13.2096V12.6792V12.5263V10.7581C40.3786 10.6383 40.3399 10.5171 40.2576 10.4285" fill="black"/>
<path id="Fill 19" fill-rule="evenodd" clip-rule="evenodd" d="M51.076 1.43935H49.7348H48.1254C47.6862 1.43935 47.6862 1.82044 47.6862 1.97572C47.6741 2.10626 47.7047 2.2368 47.7731 2.34902C47.8309 2.43925 47.9321 2.49192 48.0398 2.48918H49.0126L47.5613 4.82104L47.3413 5.13938C46.8623 5.91713 46.3685 6.69441 45.8743 7.51064C45.442 6.78785 44.9796 5.95606 44.5321 5.2177V5.14762C43.92 4.09826 43.3393 3.09516 42.9629 2.48139H43.6925C44.14 2.48139 44.14 2.06916 44.14 1.929C44.14 1.78929 44.14 1.40088 43.8178 1.40088H40.7188C40.3655 1.40088 40.3655 1.65692 40.3655 1.89052C40.3655 2.12366 40.3655 2.47314 40.8131 2.47314H41.1344C41.2259 2.46215 41.318 2.46215 41.409 2.47314C41.7197 2.764 41.9842 3.09974 42.1936 3.46846L42.8136 4.48713L45.0504 8.15601L45.1049 8.24899C45.1974 8.37129 45.2612 8.51191 45.2931 8.66123V11.5217V12.4084H44.2496C43.8418 12.4084 43.7004 12.5559 43.7004 12.9526C43.7004 13.3488 43.9986 13.45 44.0374 13.45H47.6709C47.7906 13.4555 47.9081 13.417 48.0005 13.341C48.0852 13.2393 48.1226 13.1065 48.1027 12.9759V12.9911C48.1027 12.5326 47.8276 12.5014 47.7412 12.5014L46.4624 12.4625V11.6151V8.76199C46.4993 8.57832 46.5738 8.40381 46.6824 8.24899C47.1448 7.4717 47.6473 6.69442 48.0865 6.01835C48.6122 5.24106 49.2563 4.20681 49.8124 3.25043C50.205 2.57437 50.2988 2.47314 50.3617 2.47314H50.4796H50.9193H51.1708C51.2522 2.47543 51.3317 2.44429 51.3904 2.38795C51.4926 2.28672 51.4842 2.13878 51.4842 1.96014V1.87495C51.5148 1.66654 51.3691 1.47325 51.1588 1.44348C51.1389 1.44073 51.1199 1.43935 51.1 1.43935" fill="black"/>
</g>
</svg>
