<svg width="37" height="37" viewBox="0 0 37 37" fill="none" xmlns="http://www.w3.org/2000/svg">
<mask id="mask0_2_1142" style="mask-type:alpha" maskUnits="userSpaceOnUse" x="0" y="0" width="37" height="37">
<path d="M0.5001 0.0214844H36.5001V36.0215H0.5001V0.0214844Z" fill="white"/>
</mask>
<g mask="url(#mask0_2_1142)">
<path fill-rule="evenodd" clip-rule="evenodd" d="M34.5258 2.0355C33.209 0.692824 31.6127 0.0214844 29.737 0.0214844H7.26323C5.38691 0.0494569 3.79065 0.720796 2.47443 2.0355C1.15763 3.35079 0.5001 4.93065 0.5001 6.77684V29.2667C0.5001 31.0855 1.15763 32.6654 2.47443 34.008C3.79065 35.3507 5.38691 36.0215 7.26323 36.0215H19.7393V22.0498H15.0345V16.6371H19.7393V12.6511C19.7107 10.3293 20.3414 8.55367 21.6296 7.3223C22.9173 6.09151 24.6121 5.47612 26.7125 5.47612C28.5328 5.47612 29.9324 5.54605 30.9132 5.68591V10.5112L28.0567 10.5531C26.9919 10.5811 26.2778 10.8049 25.9143 11.2245C25.5503 11.644 25.3682 12.288 25.3682 13.1546V16.6371H30.7031L30.031 22.0498H25.3682V36.0215H29.737C31.6127 35.9935 33.209 35.3222 34.5258 34.008C35.8414 32.6933 36.5001 31.1129 36.5001 29.2667V6.77684C36.5001 4.95863 35.8414 3.37818 34.5258 2.0355Z" fill="black"/>
</g>
</svg>
