<svg width="37" height="37" viewBox="0 0 37 37" fill="none" xmlns="http://www.w3.org/2000/svg">
<path fill-rule="evenodd" clip-rule="evenodd" d="M29.6518 6.88963C29.1751 6.46956 28.657 6.25952 28.0975 6.25952C27.5368 6.25952 27.0327 6.46956 26.5847 6.88963C26.1372 7.3097 25.9265 7.81378 25.9551 8.40188C25.9826 8.98998 26.1926 9.49406 26.5847 9.91413C26.9767 10.3342 27.4808 10.5442 28.0975 10.5442C28.713 10.5442 29.2311 10.3342 29.6518 9.91413C30.0718 9.49406 30.2813 8.98998 30.2813 8.40188C30.3373 7.81378 30.1272 7.3097 29.6518 6.88963ZM22.762 22.2642C21.5578 23.4404 20.1436 24.0279 18.5199 24.0279C16.8956 24.0279 15.4808 23.4404 14.2766 22.2642C13.0724 21.0874 12.4843 19.6743 12.5129 18.0215C12.5403 16.3692 13.1284 14.955 14.2766 13.7788C15.4248 12.6026 16.8396 12.0145 18.5199 12.0145C20.2002 12.0145 21.6138 12.6026 22.762 13.7788C23.9102 14.955 24.4849 16.3692 24.4849 18.0215C24.5403 19.6743 23.9662 21.0874 22.762 22.2642ZM18.5199 8.77994C15.9155 8.80795 13.7311 9.7041 11.9668 11.4684C10.2025 13.2327 9.30578 15.417 9.27777 18.0215C9.24977 20.6253 10.1459 22.8103 11.9668 24.5746C13.7871 26.3383 15.9715 27.2356 18.5199 27.2624C21.0677 27.291 23.2381 26.3949 25.0304 24.5746C26.8227 22.7543 27.7188 20.5699 27.7188 18.0215C27.6628 15.4731 26.7673 13.2893 25.0304 11.4684C23.2941 9.64809 21.1243 8.75194 18.5199 8.77994Z" fill="black"/>
<mask id="mask0_2_1148" style="mask-type:alpha" maskUnits="userSpaceOnUse" x="0" y="0" width="37" height="37">
<path d="M0.5 0.000488281H36.5V36.0419H0.5V0.000488281Z" fill="white"/>
</mask>
<g mask="url(#mask0_2_1148)">
<path fill-rule="evenodd" clip-rule="evenodd" d="M33.2074 24.1393C33.0919 26.8126 32.2961 28.8867 30.8223 30.3611C29.3474 31.8354 27.285 32.6306 24.6351 32.7461C23.4828 32.815 21.4431 32.85 18.5172 32.85C15.5907 32.85 13.5516 32.815 12.3993 32.7461C9.72607 32.6078 7.65197 31.8126 6.17765 30.3611C4.70273 28.9095 3.90752 26.8354 3.79258 24.1393C3.72315 23.0104 3.68873 20.9713 3.68873 18.0215C3.68873 15.0717 3.72315 13.0326 3.79258 11.9031C3.90752 9.23036 4.70273 7.15685 6.17765 5.68194C7.65197 4.20702 9.72607 3.41239 12.3993 3.29687C13.5283 3.22744 15.5674 3.19302 18.5172 3.19302C21.4664 3.19302 23.5055 3.22744 24.6351 3.29687C27.3083 3.43514 29.3708 4.22978 30.8223 5.68194C32.2739 7.13351 33.0691 9.20761 33.2074 11.9031C33.2762 13.0326 33.3113 15.0717 33.3113 18.0215C33.3113 20.9713 33.2762 23.0104 33.2074 24.1393ZM36.3737 10.5863C36.2062 7.30971 35.2395 4.78929 33.4752 3.02499C31.7115 1.2607 29.2045 0.294537 25.9559 0.126509C24.5837 0.0424953 22.1053 0.000488281 18.5207 0.000488281C14.9361 0.000488281 12.4577 0.0424953 11.0855 0.126509C7.83692 0.267116 5.31592 1.23328 3.5242 3.02499C1.7319 4.81729 0.765743 7.33771 0.62572 10.5863C0.542289 11.9585 0.499699 14.4369 0.499699 18.0215C0.499699 21.6061 0.542289 24.0845 0.62572 25.4567C0.765743 28.7333 1.7319 31.2537 3.5242 33.018C5.31592 34.7823 7.83692 35.7479 11.0855 35.9165C12.4851 36.0005 14.9635 36.0419 18.5207 36.0419C22.0773 36.0419 24.5557 36.0005 25.9559 35.9165C29.1765 35.7759 31.6829 34.8097 33.4752 33.018C35.2669 31.2257 36.2337 28.7053 36.3737 25.4567C36.4577 24.0845 36.5003 21.6061 36.5003 18.0215C36.5003 14.4369 36.4577 11.9585 36.3737 10.5863Z" fill="black"/>
</g>
</svg>
