<svg width="26" height="26" viewBox="0 0 26 26" fill="none" xmlns="http://www.w3.org/2000/svg">
<path fill-rule="evenodd" clip-rule="evenodd" d="M4.81115 1.14624C4.83607 1.14624 4.86099 1.14748 4.88716 1.14995C5.17376 1.18958 5.3856 1.24035 5.70834 1.56105L7.50523 3.43695L9.24479 5.14199L9.67469 5.53822C9.76441 5.62613 9.83544 5.73633 9.87781 5.85644C9.96379 6.09913 9.92765 6.38269 9.7856 6.59566C9.74447 6.66253 9.65351 6.75415 9.55507 6.85197C9.51768 6.89036 9.47781 6.92998 9.44042 6.9696L9.01924 7.39555L7.98871 8.29327C7.80678 8.48395 7.55632 8.75512 7.48653 8.91733C7.46535 8.9681 7.28093 9.42872 7.57002 9.96858C7.72579 10.2583 7.90523 10.5233 8.07843 10.7784C8.12952 10.8539 8.18061 10.9307 8.2317 11.0075C9.29837 12.5961 10.3663 13.6238 11.4055 14.6231C12.6604 15.8105 14.1083 17.1949 15.4292 18.0282L15.565 18.1111C15.8691 18.2969 16.1569 18.4715 16.4996 18.6522C16.7326 18.7538 17.0118 18.755 17.2485 18.6535C17.4367 18.5742 17.56 18.4455 17.6684 18.3315C17.7033 18.2956 17.737 18.2597 17.7719 18.2275C18.4473 17.5688 19.008 16.816 19.4965 16.4234C19.7856 16.2513 20.1569 16.2241 20.4722 16.3541C20.7052 16.4346 21.165 16.967 21.3607 17.1887C21.4255 17.2605 21.4915 17.3348 21.5613 17.4066L22.689 18.8083C22.9245 19.1277 23.241 19.4534 23.5463 19.7666C24.1357 20.3709 24.7438 20.9962 24.7152 21.5435C24.704 21.7701 24.5843 21.9744 24.3538 22.1663C24.3526 22.1676 24.3501 22.1688 24.3501 22.1688L22.7737 23.6745C22.1731 24.2961 21.5339 24.6131 20.8722 24.6155C20.861 24.6155 20.8485 24.6155 20.8373 24.6155C20.2167 24.6155 19.5127 24.4508 18.6865 24.1153C18.2354 23.9395 17.813 23.8107 17.3993 23.542C17.1538 23.381 16.8996 23.2163 16.6404 23.0715C13.8379 21.4704 11.7557 19.2627 9.55507 17.1255L9.30335 16.868C7.0828 14.602 4.65788 12.2655 3.1638 9.60083C2.74386 8.83189 2.41863 8.13725 2.16692 7.47728C2.12953 7.38689 2.09215 7.29278 2.05227 7.1962C1.77564 6.52137 1.5177 5.77348 1.51645 5.15065C1.5015 4.99712 1.51396 4.83738 1.55757 4.64051C1.56879 4.49068 1.61115 4.34209 1.6934 4.17617C1.73327 4.02635 1.82798 3.90376 1.92766 3.78489C1.99869 3.67098 2.23047 3.42829 2.36629 3.2958L4.20803 1.40627C4.37127 1.23539 4.57937 1.14624 4.81115 1.14624ZM24.9904 19.9245L21.5848 16.5057L21.1649 16.0748C21.0029 15.904 20.801 15.769 20.5817 15.6885C20.1431 15.5189 19.621 15.5684 19.2185 15.8185C18.8085 16.1516 18.4683 16.5033 18.1406 16.8438C17.9238 17.0691 17.6995 17.3019 17.459 17.5236C17.4191 17.5607 17.3817 17.5978 17.3456 17.635C17.2447 17.7365 17.1562 17.8244 17.0565 17.8591C16.9194 17.9161 16.7599 17.9124 16.6341 17.8554C16.3063 17.6734 15.9425 17.4443 15.6222 17.2412C14.1929 16.3349 12.9257 15.2378 11.8814 14.1779C10.9157 13.1737 10.026 12.0692 9.05402 10.4855C8.83595 10.1276 8.63532 9.78466 8.45962 9.46644C8.41975 9.3909 8.41352 9.30051 8.44467 9.21508C8.46336 9.15069 8.51445 9.1024 8.6266 8.99715L10.0035 7.66234C10.0409 7.6252 10.0783 7.58805 10.1194 7.54967C10.2266 7.44689 10.3487 7.3305 10.4733 7.15591C10.7824 6.71015 10.8696 6.11085 10.6989 5.5908C10.6129 5.33077 10.4659 5.09055 10.274 4.89244L8.07582 2.7986L6.35122 1.24216C6.31259 1.20872 6.27396 1.17158 6.23284 1.13195C6.12318 1.02794 5.99857 0.910313 5.81041 0.791443C5.5724 0.646571 5.29826 0.556181 5.01913 0.52894C4.47957 0.476935 3.88268 0.691147 3.51508 1.08738L1.76805 2.70202C1.72568 2.74536 1.67334 2.79613 1.61602 2.84937C1.33066 3.12426 1.00792 3.56011 0.888296 3.93405C0.779885 4.16436 0.718826 4.39963 0.706365 4.6287C0.663997 4.88996 0.655274 5.11656 0.681442 5.31591C0.725056 6.16533 0.889542 7.05809 1.25091 7.86789C1.58487 8.66531 2.04593 9.38719 2.45216 10.0261C4.17053 12.5843 6.17053 15.1165 8.61663 17.5545C9.34436 18.295 10.1842 19.002 10.9967 19.6867C11.4416 20.0619 11.9014 20.4495 12.3288 20.8321C13.7232 22.0802 14.9082 22.8913 16.1207 23.6924C16.7973 24.1258 17.4976 24.574 18.2827 24.8935C18.8833 25.1572 20.0995 25.5212 20.9892 25.5212C21.2347 25.5212 21.4565 25.494 21.6334 25.4271C22.3936 25.1423 22.6976 24.9257 22.907 24.7374C23.0939 24.6 23.2608 24.4527 23.4017 24.2979L25.0964 22.5867C25.4752 22.2573 25.7069 21.6865 25.6608 21.2048C25.6633 20.7157 25.3157 20.1994 24.9904 19.9245Z" fill="black"/>
</svg>
