<svg width="37" height="37" viewBox="0 0 37 37" fill="none" xmlns="http://www.w3.org/2000/svg">
<mask id="mask0_2_1159" style="mask-type:alpha" maskUnits="userSpaceOnUse" x="0" y="0" width="37" height="37">
<path d="M0.500107 0.000732422H36.5001V36.0422H0.500107V0.000732422Z" fill="white"/>
</mask>
<g mask="url(#mask0_2_1159)">
<path fill-rule="evenodd" clip-rule="evenodd" d="M34.5258 2.01707C33.209 0.672844 31.6127 0.000732422 29.737 0.000732422H7.26323C5.38692 0.0287371 3.79066 0.700849 2.47444 2.01707C1.15763 3.33387 0.500107 4.91555 0.500107 6.76386V29.2796C0.500107 31.1005 1.15763 32.6822 2.47444 34.0264C3.79066 35.3706 5.38692 36.0422 7.26323 36.0422H11.5479C11.2679 33.6338 11.3233 31.646 11.716 30.0777L13.9844 20.3741C13.6197 19.5906 13.4383 18.6378 13.4383 17.5177C13.4383 16.2014 13.7743 15.1093 14.4464 14.2411C15.1185 13.3735 15.9301 12.9389 16.8828 12.9389C17.6664 12.9389 18.2545 13.1909 18.6471 13.695C19.0392 14.1991 19.2352 14.8292 19.2352 15.5853C19.2352 16.0894 19.1512 16.6775 18.9832 17.3496C18.8152 18.0217 18.5905 18.8199 18.3111 19.744C18.031 20.6682 17.821 21.3969 17.681 21.9284C17.4563 22.8251 17.639 23.6227 18.2271 24.3222C18.8152 25.0235 19.5713 25.373 20.4954 25.373C22.1477 25.373 23.5054 24.4488 24.5701 22.6005C25.6343 20.7522 26.1664 18.5118 26.1664 15.8794C26.1664 13.863 25.5077 12.2248 24.1921 10.9646C22.8753 9.70435 21.0555 9.07424 18.7311 9.07424C16.1267 9.04682 14.0118 9.87238 12.3881 11.5527C10.7632 13.2329 9.95168 15.2353 9.95168 17.5597C9.95168 18.9319 10.3437 20.1081 11.1279 21.0882C11.4073 21.3969 11.5059 21.7044 11.4219 22.0118C11.3379 22.321 11.2119 22.8251 11.0439 23.5247C10.9873 23.7207 10.8758 23.8601 10.7078 23.9447C10.5398 24.0287 10.3572 24.0287 10.1617 23.9447C8.95693 23.4692 8.04678 22.6151 7.43126 21.3817C6.81458 20.1501 6.50711 18.7359 6.50711 17.1396C6.53453 16.104 6.70256 15.0672 7.01119 14.0311C7.31924 12.9949 7.83675 12.0007 8.56545 11.0486C9.29299 10.097 10.1331 9.24227 11.0859 8.48615C12.0374 7.73002 13.2282 7.12792 14.6565 6.67985C16.0847 6.23235 17.6244 6.00773 19.2772 6.00773C20.9295 6.00773 22.4552 6.30178 23.856 6.88988C25.2562 7.47798 26.4458 8.23411 27.4266 9.15826C28.4068 10.0824 29.1629 11.1606 29.695 12.3928C30.2265 13.625 30.4931 14.8992 30.4931 16.2154C30.4651 19.716 29.569 22.6285 27.8047 24.9529C26.0404 27.2779 23.744 28.4395 20.9155 28.4395C19.9914 28.4395 19.1092 28.2154 18.2691 27.7674C17.4289 27.3193 16.8542 26.8006 16.5468 26.2131L15.2866 31.0859C14.9219 32.4867 14.0818 34.1378 12.7662 36.0422H29.737C31.6127 36.0142 33.209 35.342 34.5258 34.0264C35.8414 32.7102 36.5001 31.1279 36.5001 29.2796V6.76386C36.5001 4.94356 35.8414 3.36129 34.5258 2.01707Z" fill="black"/>
</g>
</svg>
