<svg width="37" height="37" viewBox="0 0 37 37" fill="none" xmlns="http://www.w3.org/2000/svg">
<mask id="mask0_2_1155" style="mask-type:alpha" maskUnits="userSpaceOnUse" x="0" y="0" width="37" height="37">
<path d="M0.5 0H36.5V36.0424H0.5V0Z" fill="white"/>
</mask>
<g mask="url(#mask0_2_1155)">
<path fill-rule="evenodd" clip-rule="evenodd" d="M7.51459 20.1214H9.36289V30.035H11.0852V20.1214H12.9755V18.4831H7.51459V20.1214ZM16.1266 27.9767C15.762 28.4533 15.4259 28.6908 15.1179 28.6908C14.8932 28.6908 14.7818 28.5793 14.7818 28.3547C14.7538 28.3273 14.7404 28.1307 14.7404 27.7666V21.4236H13.2275V28.2287C13.2275 28.7894 13.2695 29.2095 13.3536 29.4889C13.4936 29.909 13.8162 30.119 14.3197 30.119C14.9078 30.119 15.5099 29.7695 16.1266 29.0688V30.035H17.6803V21.4236H16.1266V27.9767ZM22.049 27.5566C22.049 28.3133 21.8244 28.6908 21.3775 28.6908C21.0968 28.6908 20.8308 28.5648 20.5793 28.3133V23.0624C20.8308 22.8384 21.0968 22.7258 21.3775 22.7258C21.8244 22.7258 22.049 23.1039 22.049 23.86V27.5566ZM22.175 21.2975C21.6149 21.2975 21.0828 21.6056 20.5793 22.2217V18.4831H19.0251V30.035H20.5793V29.1949C21.1108 29.8116 21.6429 30.119 22.175 30.119C22.8191 30.119 23.2392 29.797 23.4352 29.1529C23.5467 28.8168 23.6033 28.2427 23.6033 27.4306V24.028C23.6033 23.1879 23.5467 22.6144 23.4352 22.3057C23.2392 21.6336 22.8191 21.2975 22.175 21.2975ZM27.888 24.7001H26.3757V23.902C26.3757 23.1184 26.6284 22.7258 27.1319 22.7258C27.6359 22.7258 27.888 23.1184 27.888 23.902V24.7001ZM27.1739 21.2975C26.3617 21.2975 25.7316 21.5916 25.2835 22.1797C24.9755 22.6003 24.8215 23.2719 24.8215 24.196V27.2205C24.8215 28.1447 24.9755 28.8168 25.2835 29.2375C25.759 29.825 26.4037 30.119 27.2165 30.119C28.028 30.119 28.6447 29.8116 29.0648 29.1949C29.2596 28.9154 29.3856 28.6068 29.4422 28.2707C29.4702 28.0467 29.4842 27.7106 29.4842 27.2625V27.0525H27.888V27.5566C27.916 27.7246 27.916 27.8512 27.888 27.9347L27.8466 28.1027C27.762 28.4953 27.5373 28.6908 27.1739 28.6908C26.6418 28.6908 26.3757 28.2987 26.3757 27.5146V26.0029H29.4842V24.196C29.4842 23.3005 29.3162 22.6278 28.9802 22.1797C28.5875 21.5916 27.986 21.2975 27.1739 21.2975ZM30.9125 30.5391C30.7719 31.2112 30.451 31.7859 29.9463 32.2614C29.4422 32.7375 28.8541 33.0035 28.182 33.0595C26.0537 33.3116 22.8331 33.4376 18.5204 33.4376C14.2077 33.4376 10.9866 33.3116 8.85939 33.0595C8.21412 33.0035 7.62602 32.7375 7.09452 32.2614C6.56243 31.7859 6.22637 31.2112 6.08693 30.5391C5.77771 29.2229 5.62485 27.1995 5.62485 24.4691C5.62485 21.7386 5.77771 19.7013 6.08693 18.3571C6.25438 17.6849 6.59043 17.1114 7.09452 16.6348C7.59918 16.1587 8.1867 15.8786 8.85939 15.7946C10.9866 15.5712 14.2077 15.4586 18.5204 15.4586C22.8331 15.4586 26.0537 15.5712 28.182 15.7946C28.8541 15.9066 29.4422 16.1873 29.9463 16.6348C30.451 17.0828 30.787 17.6575 30.9551 18.3571C31.2625 19.6459 31.4172 21.6762 31.4172 24.4487C31.4172 27.1931 31.2491 29.2229 30.9125 30.5391ZM11.6319 2.22637L12.8501 6.80513L14.0677 2.22637H15.7905L13.6896 9.19953V13.9043H11.9679V9.19953C11.7999 8.33197 11.4352 7.08576 10.8757 5.46091L10.3291 3.86464C10.0776 3.13711 9.89498 2.59102 9.78355 2.22637H11.6319ZM15.832 8.02334C15.832 7.12777 16 6.45566 16.3361 6.007C16.7561 5.39148 17.3582 5.08285 18.1429 5.08285C18.9265 5.08285 19.5426 5.39148 19.9912 6.007C20.2987 6.45566 20.4533 7.12777 20.4533 8.02334V11.0898C20.4533 12.014 20.2987 12.6861 19.9912 13.1062C19.5426 13.7229 18.9265 14.0303 18.1429 14.0303C17.3582 14.0303 16.7561 13.7229 16.3361 13.1062C16 12.6587 15.832 11.9866 15.832 11.0898V8.02334ZM21.755 5.20887H23.3518V12.224C23.3786 12.4487 23.5047 12.5601 23.7293 12.5601C24.0373 12.5601 24.3734 12.3226 24.738 11.846V5.20887H26.2923V13.9043H24.738V12.9382C24.0933 13.6669 23.5047 14.0303 22.9732 14.0303C22.4411 14.0303 22.091 13.8063 21.923 13.3582C21.811 13.0788 21.755 12.6587 21.755 12.098V5.20887ZM34.5251 2.01634C33.2083 0.672112 31.6126 0 29.7363 0H7.26254C5.38623 0.0285881 3.78996 0.700117 2.47375 2.01634C1.15753 3.33314 0.5 4.91482 0.5 6.76313V29.2789C0.5 31.0998 1.15753 32.6814 2.47375 34.0263C3.78996 35.3699 5.38623 36.042 7.26254 36.042H29.7363C31.6126 36.014 33.2083 35.3413 34.5251 34.0263C35.8413 32.71 36.5 31.1272 36.5 29.2789V6.76313C36.5 4.94282 35.8413 3.36056 34.5251 2.01634ZM18.1429 12.5601C18.6464 12.5601 18.8991 12.1686 18.8991 11.3839V7.72929C18.8991 6.91774 18.6464 6.51109 18.1429 6.51109C17.6389 6.51109 17.3862 6.91774 17.3862 7.72929V11.3839C17.3862 12.1686 17.6389 12.5601 18.1429 12.5601Z" fill="black"/>
</g>
</svg>
